<?xml version="1.0" encoding="UTF-8"?><svg version="1.1" width="20px" height="28px" viewBox="0 0 20.0 28.0" xmlns="http://www.w3.org/2000/svg" xmlns:xlink="http://www.w3.org/1999/xlink"><defs><clipPath id="i0"><path d="M11.6512753,0.0817604251 C12.7750156,0.288313505 13.8037758,0.945735911 14.4743581,1.86978916 C15.032223,2.62962986 15.3400501,3.56741517 15.3451996,4.50977783 C15.3480604,5.56829085 15.3457718,6.62623169 15.3463439,7.6847447 C15.8916212,7.67845084 16.4306046,8.00401512 16.638302,8.51553438 C16.797365,8.86112457 16.746442,9.25077179 16.6772095,9.61123839 C16.5839459,10.1485053 16.2583816,10.6399986 15.7989298,10.9340936 C15.5128452,11.1229094 15.1764097,11.2070183 14.8577114,11.324313 C14.467492,12.3925528 13.8260904,13.3663848 12.9958729,14.1439628 C14.5773485,14.6091363 16.1599685,15.0737377 17.740872,15.5406278 C18.5819607,15.788377 19.3051826,16.4040311 19.6822421,17.1953411 C19.9025272,17.6439217 20.0043734,18.1445698 19.999796,18.6429291 C19.9986517,21.3538668 20.0009403,24.0648045 19.9986517,26.7757421 C20.0175332,26.9960272 19.8355834,27.2094464 19.6112931,27.2100185 C19.3761316,27.2243228 19.1753002,27.0023211 19.1993313,26.7700204 C19.1958983,24.0224639 19.20162,21.2743353 19.1964705,18.5267788 C19.1941818,17.5472251 18.5104396,16.6197389 17.5755151,16.3285047 C16.4414758,15.9869197 15.3028591,15.6584946 14.1665311,15.3243478 C13.4959488,16.3491028 12.8259386,17.37443 12.1559285,18.4003294 C12.0758248,18.5347892 11.9385042,18.6480787 11.7737195,18.638924 C11.6083626,18.642357 11.4727585,18.523918 11.4018095,18.3831643 C11.0682349,17.7858197 10.7346602,17.1879029 10.4005134,16.5911304 C10.3999412,19.9852381 10.4016577,23.3799179 10.3993691,26.7740256 C10.4211115,27.0006046 10.2282905,27.2197454 9.99770629,27.2105907 C9.76654993,27.2168846 9.57658976,26.9965994 9.6000487,26.7694482 C9.59833219,23.3770571 9.6000487,19.9840937 9.59947653,16.5911304 C9.25674718,17.1999184 8.92088386,17.8121395 8.57586583,18.419211 C8.49232913,18.5811349 8.29836377,18.679548 8.11984699,18.6280527 C7.9802377,18.5988721 7.89384015,18.4770001 7.8206025,18.3659993 C7.16031924,17.3503989 6.49545864,16.3376595 5.83288671,15.3237756 C4.69312567,15.6619276 3.54993162,15.9926414 2.41074275,16.3336543 C1.48382865,16.6283214 0.805808151,17.5512303 0.802947305,18.5244901 L0.800658628,26.7700204 C0.828122749,27.0212027 0.590100364,27.2552199 0.338918087,27.2065855 C0.134081514,27.1802657 -0.015826815,26.9788622 0.00133826084,26.7757421 C-0.000378246749,24.0447785 0,21.313815 0.00133826084,18.5828514 C-0.00152258514,17.8699286 0.243938,17.1587223 0.690229973,16.6020016 C1.09761444,16.0881937 1.66921147,15.710562 2.29859758,15.5303287 C3.86748552,15.0674438 5.43694562,14.607992 7.00468922,14.1439628 C6.17389955,13.3658127 5.52963703,12.3919807 5.14113415,11.3220243 C4.84932786,11.2156008 4.54321734,11.138358 4.27372565,10.9792949 C3.79253135,10.6983599 3.43835862,10.2068665 3.33136298,9.6593006 C3.25926966,9.28338544 3.19461454,8.87657314 3.36168795,8.51496221 C3.57052971,8.00458728 4.10779658,7.67845084 4.65364599,7.68531687 L4.65364599,4.56585042 C4.64964081,3.79628285 4.843034,3.02671528 5.21608831,2.3538443 C5.83689189,1.21808845 6.96349304,0.374711054 8.22970347,0.105791531 C8.82933679,-0.0326734141 9.44727952,0.00680626043 10.0566397,0.00108456847 C10.5887571,0.00508975284 11.1260239,-0.023518707 11.6512753,0.0817604251 Z M7.75537521,14.7584725 C7.38232089,14.8689011 7.00983874,14.9804741 6.63564009,15.0874698 C7.15402538,15.8804963 7.67355501,16.6729506 8.19079597,17.4671215 C8.57872668,16.7793741 8.95979137,16.0876215 9.34657774,15.399302 C8.77841373,15.2991724 8.23485299,15.0788872 7.75537521,14.7584725 Z M12.242326,14.7590446 C11.7657091,15.0828924 11.2198597,15.298028 10.6522678,15.3987298 C11.0379099,16.0881937 11.4218354,16.7782297 11.8086218,17.4671215 C12.3270071,16.6740949 12.8453924,15.8816406 13.3626333,15.0880419 C12.9901512,14.9758968 12.6165247,14.8660403 12.242326,14.7590446 Z M14.5464514,6.78128954 C14.257506,7.0811062 13.899328,7.31683991 13.4976653,7.43299026 C12.803624,7.63439381 12.0477885,7.48105247 11.4166859,7.15491603 C10.7695625,6.83106826 10.0085775,6.70290236 9.30194854,6.8917182 C8.82819245,6.98727045 8.42710184,7.27678807 7.96364479,7.40209312 C7.5511108,7.51824347 7.10996835,7.57374388 6.68713532,7.47933596 C6.21395139,7.38607238 5.78539666,7.12745191 5.45353853,6.78186171 L5.45611525,7.16005535 L5.45254253,7.91848642 C5.45067769,8.67739468 5.4689871,9.43596389 5.64292653,10.1782581 C5.97993419,11.7648832 6.92859072,13.2187652 8.26975531,14.1365246 C9.29107733,14.8168337 10.7083404,14.8151172 11.7308068,14.1376689 C13.0702549,13.2193373 14.0177671,11.7665997 14.3559191,10.1811189 C14.6174004,9.06653331 14.5292863,7.91532889 14.5464514,6.78128954 Z M4.65364599,8.48005989 C4.35554584,8.48463724 4.05572918,8.7083554 4.05743836,9.02362062 C4.07174992,9.37436034 4.13239986,9.74970333 4.37042224,10.0237724 C4.49916031,10.1862684 4.68168229,10.2915476 4.86477643,10.3825225 C4.73432185,9.75656936 4.66222853,9.11917288 4.65364599,8.48005989 Z M15.3463439,8.48005989 C15.3377614,9.11917288 15.2650959,9.75599719 15.1352135,10.3819503 C15.3062921,10.2989858 15.4762263,10.2022892 15.6015314,10.0552417 C15.8681622,9.76686841 15.9402556,9.35490659 15.9396868,8.97555841 C15.9133636,8.67974694 15.6278512,8.48578158 15.3463439,8.48005989 Z M5.5359309,5.44069712 C5.71158684,5.83721037 5.95533092,6.22228024 6.32094703,6.4700295 C6.67283109,6.71262924 7.12827777,6.78357822 7.5419561,6.68630946 C8.048898,6.56958694 8.48889612,6.26805377 8.99354935,6.14389306 C9.66241514,5.95107204 10.3816318,5.9573659 11.0482089,6.15648078 C11.5191042,6.27835282 11.9333547,6.55242186 12.4042499,6.67372173 C12.7916085,6.77614002 13.2207354,6.73608818 13.5703307,6.53525679 C13.9925916,6.2955179 14.2706658,5.87154052 14.4623425,5.43669193 C13.1646628,4.73292382 11.7050592,4.32897237 10.2288626,4.27919365 C8.5987526,4.24371916 6.96463738,4.65911399 5.5359309,5.44069712 Z M8.62450022,0.84732281 C7.78627234,0.972055694 6.99896753,1.39774958 6.43194786,2.02713569 C5.79455137,2.70973354 5.44724467,3.6429415 5.45239419,4.57500512 C6.74091922,3.93245912 8.160471,3.55539961 9.59947653,3.48387847 L9.59947653,0.802121443 C9.27391225,0.802121443 8.94663147,0.794683244 8.62450022,0.84732281 Z M10.4005134,0.802121443 L10.4005134,3.48387847 C11.8395189,3.55597178 13.2596429,3.93017044 14.5475957,4.57500512 C14.5447349,4.02972788 14.4360227,3.48273413 14.2060107,2.9872356 C13.7351155,1.95046502 12.7681495,1.15228899 11.6558526,0.901678883 C11.2456073,0.799260597 10.8204856,0.798116259 10.4005134,0.802121443 Z"></path></clipPath><clipPath id="i1"><path d="M1.04825267,0.599547264 C1.01621119,0.981756287 0.520140501,1.19860841 0.218035166,0.962302534 C-0.113250799,0.748311255 -0.0554617101,0.188157612 0.313015252,0.0474039894 C0.667760154,-0.127679785 1.11862948,0.21047221 1.04825267,0.599547264 Z"></path></clipPath><clipPath id="i2"><path d="M1.0488471,0.596053607 C1.01966647,0.979406968 0.52245144,1.19911994 0.219201766,0.962814062 C-0.114372876,0.748822782 -0.0554394485,0.185236124 0.31589836,0.0461990095 C0.668926754,-0.125451749 1.1157909,0.208695061 1.0488471,0.596053607 Z"></path></clipPath><clipPath id="i3"><path d="M3.50927684,0.00114065786 C3.74386621,-0.0143079104 3.95499664,0.21284326 3.92009432,0.446860462 C3.89148586,0.684882847 3.65289131,0.802749702 3.48066838,0.93205994 C2.46277938,1.62781768 0.976283806,1.51281167 0.0911380598,0.650552695 C-0.0913839138,0.453726492 0.0167560643,0.101842436 0.26908268,0.0240274257 C0.445882961,-0.048065893 0.619822397,0.0543523931 0.749704805,0.168786232 C1.40941589,0.704908769 2.42616055,0.726079029 3.10761406,0.217420614 C3.23234695,0.132167404 3.34620862,0.00114065786 3.50927684,0.00114065786 Z"></path></clipPath><clipPath id="i4"><path d="M0.801240627,0.440579112 C0.804673642,2.36764496 0.799524119,4.29528299 0.804101473,6.22292101 C0.801240627,6.3642468 0.811539673,6.52674285 0.707977048,6.63946018 C0.569512103,6.81397179 0.282855335,6.83056469 0.126080976,6.67207383 C0.0133636439,6.57537723 -0.00208492438,6.41917504 0.000203752404,6.28013793 C0.00306459838,4.33361832 -0.000368416792,2.38652655 0.00192025999,0.440006943 C-0.0141004775,0.246613755 0.117498438,0.0537927356 0.309175118,0.0125965535 C0.566079087,-0.0577802577 0.830421256,0.177953451 0.801240627,0.440579112 Z"></path></clipPath><clipPath id="i5"><path d="M3.39679463,0.123200531 C3.53011005,0.249649924 3.50951196,0.447620465 3.51180064,0.614693871 C3.5032181,0.975160464 3.52152751,1.33562706 3.50436244,1.69609365 C3.49234688,1.90836842 3.28350513,2.06800363 3.07580771,2.05026638 C2.19466715,2.05198289 1.31295442,2.05198289 0.431813853,2.05026638 C0.20637919,2.07029231 -0.00532341243,1.87689912 0.00325912551,1.64974795 C-0.00246256645,1.24636866 0.000970448724,0.842417211 0.00154261792,0.439037927 C-0.0121894428,0.254799446 0.105677412,0.0654114424 0.288771554,0.0196379067 C1.13787064,-0.020413937 1.99154708,0.0156327223 2.84236268,0.00132849244 C3.029462,0.0070501844 3.25604101,-0.0330016593 3.39679463,0.123200531 Z M0.802007323,0.804081875 L0.802007323,1.24980168 C1.4376873,1.25037385 2.07336728,1.25037385 2.70904725,1.24980168 L2.70961942,0.804081875 C2.07336728,0.803509705 1.4376873,0.803509705 0.802007323,0.804081875 Z"></path></clipPath><clipPath id="i6"><path d="M0.801095921,0.437629276 C0.802812429,2.40531914 0.802812429,4.37415335 0.80166809,6.34184321 C0.82341052,6.56899438 0.632306008,6.78927952 0.401149653,6.78184132 C0.170565467,6.78870735 -0.0205390447,6.57013872 0.00177555396,6.34355972 C0.000631215568,4.37529768 0.000631215568,2.40646348 0.00177555396,0.438201446 C-0.0136730143,0.245380427 0.117925901,0.0531315766 0.309602581,0.0125075637 C0.565362212,-0.0572970782 0.828560042,0.176147954 0.801095921,0.437629276 Z"></path></clipPath></defs><g transform=""><g clip-path="url(#i0)"><polygon points="0,-2.77555756e-17 20,-2.77555756e-17 20,27.2130419 0,27.2130419 0,-2.77555756e-17" stroke="none" fill="#000000"></polygon></g><g transform="translate(7.644335681117656 8.090498717592984)"><g clip-path="url(#i1)"><polygon points="-4.4408921e-16,-1.5959456e-16 1.05558153,-1.5959456e-16 1.05558153,1.06058699 -4.4408921e-16,1.06058699 -4.4408921e-16,-1.5959456e-16" stroke="none" fill="#000000"></polygon></g></g><g transform="translate(11.30619627499708 8.090559359059183)"><g clip-path="url(#i2)"><polygon points="-1.58206781e-15,-2.56739074e-16 1.05556718,-2.56739074e-16 1.05556718,1.06050353 -1.58206781e-15,1.06050353 -1.58206781e-15,-2.56739074e-16" stroke="none" fill="#000000"></polygon></g></g><g transform="translate(8.039580140002801 11.38782742168847)"><g clip-path="url(#i3)"><polygon points="6.9388939e-17,-3.40005801e-16 3.92389128,-3.40005801e-16 3.92389128,1.3850068 6.9388939e-17,1.3850068 6.9388939e-17,-3.40005801e-16" stroke="none" fill="#000000"></polygon></g></g><g transform="translate(3.876436473995242 20.428660378457472)"><g clip-path="url(#i4)"><polygon points="-6.66133815e-16,1.53176083e-15 0.804101473,1.53176083e-15 0.804101473,6.78132373 -6.66133815e-16,6.78132373 -6.66133815e-16,1.53176083e-15" stroke="none" fill="#000000"></polygon></g></g><g transform="translate(11.10502757109717 20.42848505555811)"><g clip-path="url(#i5)"><polygon points="0,0 3.51202289,0 3.51202289,2.05169484 0,2.05169484 0,0" stroke="none" fill="#000000"></polygon></g></g><g transform="translate(15.31996510313343 20.42874936820361)"><g clip-path="url(#i6)"><polygon points="-4.4408921e-16,1.32879818e-15 0.803357611,1.32879818e-15 0.803357611,6.78202451 -4.4408921e-16,6.78202451 -4.4408921e-16,1.32879818e-15" stroke="none" fill="#000000"></polygon></g></g></g></svg>