<?xml version="1.0" encoding="UTF-8"?><svg version="1.1" width="21px" height="18px" viewBox="0 0 21.0 18.0" xmlns="http://www.w3.org/2000/svg" xmlns:xlink="http://www.w3.org/1999/xlink"><defs><clipPath id="i0"><path d="M11.3451006,0.189952019 C11.901483,0.449159678 12.3078719,0.985386736 12.4292729,1.58489234 C12.8342556,1.59004837 13.239707,1.57504901 13.6446897,1.59239202 C14.2432578,1.62895295 14.7293308,2.18392921 14.7171438,2.77827878 C16.3131693,2.78109116 17.9091947,2.77499767 19.5052202,2.78155989 C20.3048735,2.79655925 21.0009375,3.51559098 20.9976564,4.31383808 C21.0009375,8.29898008 21.0004687,12.2845908 20.9981251,16.2697328 C21.0074997,17.0581366 20.3367471,17.7757621 19.5488121,17.8146667 C18.8457172,17.831541 18.1421535,17.8170104 17.4390586,17.8216977 C12.1414728,17.8207602 6.84388691,17.82451 1.54630107,17.8198227 C0.723680014,17.8282599 -0.0108198105,17.0942288 0.00183589804,16.2706703 C-0.00144521158,12.3174019 0.00183589804,8.36366481 0.000429708207,4.41039645 C-0.00613251103,4.11134674 0.062302061,3.80901593 0.216982943,3.55168319 C0.486502662,3.08717181 1.00773036,2.77968497 1.54630107,2.77968497 C3.12498353,2.77734132 4.70366598,2.77968497 6.28281717,2.77827878 C6.27063019,2.1993973 6.730923,1.65613929 7.31074194,1.59707932 C7.72978651,1.57036171 8.150706,1.59192329 8.57068803,1.58489234 C8.67896465,1.05429004 9.00660688,0.571029464 9.47205572,0.290260227 C10.0260945,-0.0575373927 10.7568445,-0.0950357883 11.3451006,0.189952019 Z M19.4110055,3.52824669 C17.8463849,3.52918415 16.2817644,3.52824669 14.7171438,3.52918415 C14.7087067,3.78886054 14.6346473,4.05041185 14.4729355,4.25665303 C14.2493513,4.55710892 13.8753048,4.72866408 13.5026645,4.71928948 L7.49589027,4.71928948 C7.1691855,4.72632043 6.8406058,4.5974197 6.6151467,4.35977361 C6.39859347,4.140408 6.28844193,3.83432735 6.28281717,3.52918415 C4.70319725,3.52918415 3.12357734,3.52768037 1.54395742,3.52965288 C1.10991349,3.52730923 0.732117153,3.92666714 0.750866351,4.35930488 L0.750397621,16.2219223 C0.736335723,16.5364401 0.919609131,16.8476768 1.20319075,16.9850147 C1.38755786,17.0814949 1.596989,17.074464 1.80083228,17.0718816 L1.92222249,17.0717297 C7.68713209,17.0721985 13.4520417,17.0707923 19.2169513,17.0726672 C19.4991267,17.0909477 19.8098947,17.0468871 20.0119173,16.8293964 C20.2430011,16.6142493 20.2678438,16.2823885 20.2500321,15.9866199 L20.2494462,10.3153977 L20.2495634,4.64382396 C20.246751,4.43336422 20.2711249,4.21071749 20.1792539,4.01385091 C20.0517593,3.7162074 19.7348979,3.51559098 19.4110055,3.52824669 Z M6.13938581,7.1285614 C6.6245213,7.18527773 7.08434538,7.41870524 7.42089348,7.77165889 C7.99086909,8.36319608 8.22710898,9.26315758 7.99368147,10.053905 C7.86993676,10.4888864 7.59479229,10.87137 7.24090118,11.1497956 C7.74431714,11.3307254 8.2102347,11.6157132 8.59506199,11.9878847 C8.90817359,12.2630292 9.11816461,12.659106 9.13550762,13.0790881 C9.17300601,13.6621881 8.83833283,14.2471631 8.31616767,14.5091831 C8.09352095,14.6258969 7.8422817,14.681207 7.59197991,14.681207 C6.40468695,14.681207 5.217394,14.6816757 4.03056978,14.6807383 C3.73433245,14.6830819 3.43668894,14.6024604 3.18779334,14.4393424 C2.76546766,14.1698226 2.49735413,13.6776562 2.48844826,13.1779901 C2.48235477,12.7828507 2.67031548,12.4116166 2.92530457,12.1195979 C3.31903772,11.6686797 3.85010875,11.3583804 4.40555374,11.1497956 C3.91244983,10.7541875 3.59324474,10.1495259 3.55809,9.51674048 C3.50699843,8.77895954 3.8477651,8.02805417 4.43742737,7.58182326 C4.91412573,7.21012041 5.54175512,7.04934604 6.13938581,7.1285614 Z M5.22348749,11.7047719 C4.66897997,11.8228918 4.1200972,12.0338203 3.67949105,12.3989609 C3.42684561,12.6089519 3.2154484,12.923001 3.26044648,13.2661113 C3.2904452,13.6289083 3.622306,13.9293642 3.98510298,13.9288955 C5.1719272,13.9354577 6.35922015,13.9288955 7.54604437,13.9321766 C7.73025524,13.9363951 7.92243452,13.905459 8.07383429,13.7939012 C8.35694718,13.6054718 8.46241142,13.2140823 8.3400729,12.9014394 C8.19945392,12.5344239 7.86337455,12.2916218 7.53338866,12.1041298 C6.83451231,11.7277396 6.01001634,11.544935 5.22348749,11.7047719 Z M13.4278066,13.1379571 L14.2971618,13.1376793 C15.5786694,13.1390855 16.8606459,13.1343982 18.1426223,13.140023 C18.3694875,13.1390855 18.5485424,13.3832938 18.4871388,13.6003158 C18.4477654,13.775152 18.2729292,13.8970218 18.096218,13.8867098 C16.0009951,13.8885847 13.9057723,13.8881159 11.8105494,13.8867098 C11.6408692,13.8970218 11.4702515,13.7901514 11.4215036,13.6246897 C11.3516628,13.4273544 11.4843134,13.1897083 11.6896171,13.1479914 C12.2683423,13.1314296 12.8481092,13.1354919 13.4278066,13.1379571 Z M12.141004,10.5188851 C14.0627968,10.5184164 15.9850583,10.5202913 17.9068511,10.5184164 L18.084571,10.5185739 C18.1741959,10.520835 18.2623359,10.533322 18.3371452,10.5873197 C18.4843264,10.685753 18.5415114,10.8952752 18.4618273,11.0546434 C18.3985488,11.1952624 18.2443366,11.2786963 18.0924681,11.268853 C15.9981828,11.2693217 13.9043661,11.268853 11.8105494,11.268853 C11.6235262,11.2847898 11.4383778,11.1483894 11.4093166,10.9613662 C11.3708807,10.7734055 11.5011877,10.5718516 11.6886796,10.5320095 L11.8386559,10.518399 L12.141004,10.5188851 Z M5.50238181,7.9080593 C5.05380725,8.00180529 4.65819918,8.31210452 4.45852022,8.72458687 C4.16509527,9.29362502 4.30852664,10.0356245 4.77772531,10.4668561 C5.24176796,10.9205867 6.00345412,11.0157388 6.5649926,10.690909 C7.19168453,10.3534234 7.51229582,9.53877078 7.24886959,8.87036188 C7.01028604,8.17476664 6.21860117,7.7374416 5.50238181,7.9080593 Z M11.8574224,7.90290327 C13.935771,7.90477819 16.0145883,7.90243454 18.0929369,7.90384073 C18.311365,7.88368535 18.5166687,8.078677 18.4969821,8.29944881 C18.4908886,8.50240887 18.2987093,8.66740181 18.0980929,8.65287119 C16.0024013,8.65427738 13.9071785,8.65333992 11.8119556,8.65333992 C11.6703992,8.6608396 11.5260303,8.59334248 11.4557208,8.46819159 C11.3366634,8.28116834 11.4313469,8.00743005 11.6385255,7.93055834 C11.7078976,7.90290327 11.7838318,7.90524692 11.8574224,7.90290327 Z M10.3743609,0.768364771 C9.91828663,0.810550467 9.50580427,1.13631778 9.35674815,1.56895552 C9.30003183,1.71332434 9.29721945,1.86941141 9.27753279,2.02081119 C9.25878359,2.20127222 9.08441605,2.34142247 8.90536121,2.33439152 C8.4371,2.33767263 7.96790132,2.3325166 7.49917138,2.33579771 C7.34917779,2.32923549 7.19355945,2.39157657 7.11012552,2.52047731 C7.05500288,2.5966928 7.04037851,2.68623897 7.03689116,2.77747256 L7.03606619,2.95873981 C7.04215968,3.17716796 7.02575413,3.39653358 7.04450333,3.61496173 C7.06934602,3.8319837 7.28636798,3.98619585 7.49870265,3.96932157 C9.50158571,3.96932157 11.504,3.9697903 13.5064144,3.96885284 C13.7332797,3.98713331 13.9573326,3.80339117 13.9596762,3.57090112 C13.9671759,3.30231886 13.9634261,3.03326787 13.9615511,2.76468561 C13.9718632,2.53922651 13.7740592,2.33392279 13.5476626,2.33814136 C13.0625271,2.32923549 12.5764541,2.33954755 12.0908499,2.33392279 C11.8953895,2.3418912 11.7163347,2.17267969 11.7163347,1.97581311 C11.7050852,1.72504259 11.6371193,1.47286588 11.4857196,1.26896835 C11.2405738,0.918358354 10.7994989,0.721491777 10.3743609,0.768364771 Z"></path></clipPath></defs><g clip-path="url(#i0)"><polygon points="-5.42101086e-20,1.83186799e-15 21,1.83186799e-15 21,17.8230828 -5.42101086e-20,17.8230828 -5.42101086e-20,1.83186799e-15" stroke="none" fill="#000000"></polygon></g></svg>