<?xml version="1.0" encoding="UTF-8"?><svg version="1.1" width="24px" height="23px" viewBox="0 0 24.0 23.0" xmlns="http://www.w3.org/2000/svg" xmlns:xlink="http://www.w3.org/1999/xlink"><defs><clipPath id="i0"><path d="M19.2801563,0.364519088 C20.656875,0.827175338 21.8746875,1.73889409 22.7165625,2.92155034 C23.5017188,4.01233159 23.9409375,5.33748784 24,6.67811284 L24,7.16608159 C23.941875,8.84186284 23.259375,10.4857691 22.100625,11.6988941 C22.4484375,12.0692066 22.6645312,12.5646753 22.6701562,13.0751441 C22.6879687,13.7271753 22.3664062,14.3754566 21.8367188,14.7556128 C21.3946875,15.0837378 20.818125,15.2088941 20.2771875,15.1165503 C20.3475,15.7254566 20.1379687,16.3624878 19.7034375,16.7970191 C19.2426562,17.2681128 18.545625,17.4781128 17.8992188,17.3646753 C17.960625,17.8990503 17.8120313,18.4568628 17.4721875,18.8768628 C17.0770313,19.3807691 16.4301562,19.6728003 15.7907813,19.6357691 C15.5165625,19.6263941 15.2517188,19.5457691 15.001875,19.4370191 C14.8298438,19.7299878 14.5720313,19.9545191 14.3301562,20.1870191 C13.7446875,20.7424878 13.1564062,21.2946753 12.5685937,21.8478003 C12.1776563,22.2124878 11.64,22.4159253 11.1051563,22.3924878 C10.4746875,22.3751441 9.86625,22.0381128 9.51046875,21.5192066 C9.2034375,21.0823316 9.088125,20.5235816 9.18,19.9990503 C8.63015625,20.0665503 8.0596875,19.9029566 7.63359375,19.5490503 C7.070625,19.0971753 6.80390625,18.3274878 6.93515625,17.6210816 C6.30421875,17.7003003 5.6465625,17.4673316 5.2096875,17.0046753 C4.76578125,16.5448316 4.5796875,15.8688941 4.6884375,15.2426441 C4.0771875,15.3153003 3.43828125,15.1029566 3.00515625,14.6637378 C2.4215625,14.0965503 2.24859375,13.1703003 2.57390625,12.4263941 C2.22890625,12.0504566 1.86234375,11.6937378 1.5403125,11.2976441 C0.57375,10.1131128 0.03328125,8.59998784 0,7.07326909 L0,6.84264409 C0.02109375,5.86905034 0.23484375,4.89780034 0.64875,4.01467534 C1.340625,2.51936284 2.58609375,1.28842534 4.0903125,0.614362838 C5.398125,0.0223315879 6.8915625,-0.145949662 8.29875,0.136237838 C9.7040625,0.409050338 11.0104687,1.14030034 11.9915625,2.18092534 C12.2151562,1.97139409 12.4354688,1.75623784 12.6740625,1.56311284 C13.3959375,0.971550338 14.2401563,0.530925338 15.1364063,0.272175338 C16.4840625,-0.120637162 17.95125,-0.0868871621 19.2801563,0.364519088 Z M12.9079688,17.2235816 C12.7082813,17.2793628 12.526875,17.3895191 12.3782813,17.5329566 L10.498125,19.3085816 C10.3617188,19.4374878 10.2178125,19.5640503 10.12125,19.7276441 C9.92578125,20.0468628 9.88875,20.4565503 10.0246875,20.8053003 C10.1685938,21.1910816 10.5182813,21.4915503 10.9223438,21.5726441 C11.3123438,21.6584253 11.7360938,21.5360816 12.0253125,21.2623316 C12.7120313,20.6187378 13.3940625,19.9704566 14.0784375,19.3249878 C14.4632813,18.9809253 14.5921875,18.3888941 14.379375,17.9178003 C14.1501563,17.3628003 13.483125,17.0463941 12.9079688,17.2235816 Z M10.8009375,14.8320191 C10.4948437,14.8704566 10.2267187,15.0443628 10.018125,15.2642066 C9.3684375,15.8806128 8.71453125,16.4923316 8.06578125,17.1101441 C7.64109375,17.5123316 7.57828125,18.2243628 7.9228125,18.6963941 C8.16234375,19.0404566 8.58609375,19.2462378 9.00515625,19.2171753 C9.2953125,19.2021753 9.575625,19.0770191 9.78609375,18.8773316 L11.8125,16.9653003 C12.0360937,16.7590503 12.1828125,16.4707691 12.2085937,16.1670191 C12.2465625,15.7873316 12.0942187,15.3949878 11.8101562,15.1404566 C11.5425,14.8924878 11.1609375,14.7785816 10.8009375,14.8320191 Z M5.5509375,0.962175338 C4.1896875,1.27201909 2.95078125,2.07217534 2.0953125,3.17373784 C1.2909375,4.19983159 0.83296875,5.48983159 0.8053125,6.79295659 C0.7678125,8.15983159 1.20515625,9.53420659 2.03015625,10.6245191 C2.33296875,11.0304566 2.698125,11.3834253 3.04171875,11.7532691 C3.740625,11.0951441 4.43671875,10.4351441 5.13609375,9.77748784 C5.52890625,9.40858159 6.073125,9.20842534 6.61125,9.23420659 C7.1521875,9.25530034 7.67953125,9.50514409 8.03953125,9.90967534 C8.45203125,10.3681128 8.6465625,11.0229566 8.52,11.6295191 C9.2071875,11.5259253 9.92953125,11.8287378 10.3575,12.3715503 C10.7203125,12.8234253 10.8810938,13.4365503 10.7657812,14.0060816 C11.4571875,13.9053003 12.1828125,14.2118628 12.6103125,14.7607691 C12.9684375,15.2112378 13.1226563,15.8192066 13.0110938,16.3845191 C13.6959375,16.2842066 14.4164063,16.5818628 14.8425,17.1246753 C15.1907813,17.5540503 15.3407813,18.1287378 15.2648438,18.6748316 C15.6445313,18.8932691 16.138125,18.8946753 16.513125,18.6659253 C16.8782813,18.4540503 17.1145313,18.0424878 17.1164062,17.6206128 C17.1220312,17.2976441 16.9917188,16.9779566 16.7676563,16.7459253 C15.0004688,14.8728003 13.2323438,13.0001441 11.4646875,11.1270191 C11.3015625,10.9728003 11.304375,10.6840503 11.4782813,10.5392066 C11.6385938,10.3901441 11.9104688,10.4154566 12.0496875,10.5818628 C13.8196875,12.4540503 15.5859375,14.3299878 17.3559375,16.2021753 C17.634375,16.5031128 18.065625,16.6526441 18.4701563,16.5790503 C18.9417187,16.5040503 19.34625,16.1290503 19.4578125,15.6649878 C19.5646875,15.2581128 19.4404688,14.8062378 19.1484375,14.5048316 C17.38125,12.6303003 15.61125,10.7585816 13.8440625,8.88358159 C13.6720313,8.72608159 13.681875,8.42373784 13.869375,8.28264409 C14.0329688,8.14389409 14.296875,8.17623784 14.4309375,8.34076909 C16.2,10.2148316 17.968125,12.0898316 19.7376563,13.9634253 C20.0160938,14.2638941 20.4492188,14.4110816 20.8532813,14.3356128 C21.3046875,14.2601441 21.69375,13.9113941 21.8207813,13.4721753 C21.9496875,13.0554566 21.8325,12.5787378 21.5301563,12.2656128 L15.0867188,5.43733159 C14.945625,5.26858159 14.6676563,5.24842534 14.5096875,5.40405034 C13.4915625,6.35842534 12.481875,7.32217534 11.461875,8.27514409 C10.7615625,8.92108159 9.67359375,9.06405034 8.81625,8.66233159 C8.311875,8.43545659 7.86984375,8.02108159 7.6996875,7.48530034 C7.54828125,7.02780034 7.63171875,6.50842534 7.89703125,6.10998784 C8.04140625,5.88545659 8.25234375,5.71764409 8.4421875,5.53389409 C9.42890625,4.59826909 10.42125,3.66920659 11.405625,2.73170659 C10.815,2.09701909 10.08375,1.59498784 9.2821875,1.26545659 C8.10984375,0.780300338 6.78609375,0.674362838 5.5509375,0.962175338 Z M8.54671875,12.4306128 C8.30109375,12.4737378 8.07328125,12.5970191 7.89609375,12.7713941 C7.26984375,13.3610816 6.645,13.9526441 6.01921875,14.5428003 C5.91515625,14.6421753 5.805,14.7373316 5.715,14.8507691 C5.48859375,15.1367066 5.40328125,15.5257691 5.48484375,15.8806128 C5.5790625,16.3245191 5.941875,16.6938941 6.3815625,16.8031128 C6.789375,16.9123316 7.2459375,16.7899878 7.54828125,16.4960816 L9.62015625,14.5385816 C9.98015625,14.2024878 10.1020312,13.6446753 9.91546875,13.1890503 C9.7134375,12.6546753 9.10828125,12.3171753 8.54671875,12.4306128 Z M6.2990625,10.0601441 C6.058125,10.1018628 5.83265625,10.2195191 5.65640625,10.3882691 C4.98140625,11.0257691 4.30640625,11.6632691 3.63140625,12.3003003 C3.48046875,12.4381128 3.3571875,12.6082691 3.28734375,12.8018628 C3.110625,13.2612378 3.24609375,13.8181128 3.615,14.1448316 C3.954375,14.4603003 4.47703125,14.5526441 4.905,14.3759253 C5.0878125,14.3056128 5.2425,14.1818628 5.38078125,14.0463941 L7.38046875,12.1563941 C7.71375,11.8343628 7.83703125,11.3178003 7.68421875,10.8799878 C7.5046875,10.3151441 6.88125,9.94483159 6.2990625,10.0601441 Z M16.40625,0.830925338 C15.0909375,0.967331588 13.828125,1.54858159 12.86625,2.45561284 C11.4675,3.77561284 10.0692187,5.09561284 8.671875,6.41748784 C8.38125,6.68889409 8.34140625,7.17639409 8.58375,7.49186284 C8.88421875,7.86686284 9.3628125,8.08998784 9.8428125,8.08764409 C10.2567187,8.09045659 10.6664062,7.92592534 10.9682812,7.64373784 C11.9765625,6.69545659 12.9801562,5.74155034 13.9903125,4.79467534 C14.44125,4.37889409 15.208125,4.40561284 15.6304687,4.85045659 C17.6076562,6.93780034 19.5754687,9.03498784 21.5540625,11.1213941 C22.24125,10.3920191 22.7404687,9.48733159 22.9978125,8.51936284 C23.3320312,7.27155034 23.2589062,5.91920659 22.790625,4.71498784 C22.3045312,3.44936284 21.380625,2.35998784 20.2171875,1.66483159 C19.0823437,0.981862838 17.7225,0.686550338 16.40625,0.830925338 Z"></path></clipPath></defs><g transform=""><g clip-path="url(#i0)"><polygon points="0,0 24,0 24,22.3943129 0,22.3943129 0,0" stroke="none" fill="#000000"></polygon></g></g></svg>