<?xml version="1.0" encoding="UTF-8"?><svg version="1.1" width="34px" height="23px" viewBox="0 0 34.0 23.0" xmlns="http://www.w3.org/2000/svg" xmlns:xlink="http://www.w3.org/1999/xlink"><defs><clipPath id="i0"><path d="M15.3347855,0.337784428 C16.9634577,1.06893757 18.1065985,2.56908675 18.8641703,4.14135161 C20.3393289,3.68652295 21.9522927,3.4923104 23.459582,3.91215224 C24.4913362,4.18704869 25.4045637,4.87321878 25.9557846,5.78787422 C26.3013687,6.35623155 26.4984373,7.00384473 26.5976856,7.65859809 C26.9682603,7.66431022 27.3331229,7.7571324 27.7036976,7.75570436 C29.2816746,7.51079662 30.8546534,7.23161608 32.4333445,6.98813637 C32.753224,6.93387109 33.0438288,7.21233762 33.0573951,7.52579097 L33.9856169,14.2553988 C34.0548765,14.5510017 33.8678041,14.8915877 33.5579208,14.9422829 C32.881033,15.0522415 32.1791545,15.0565256 31.5258292,15.288581 C30.9103468,15.5127823 30.4590882,16.0097379 29.9928352,16.4474302 C29.1353011,17.3042503 28.2656287,18.1489321 27.3709658,18.9671953 C26.4784448,19.8133051 25.4045637,20.4359277 24.309976,20.9792944 C23.1268502,21.55979 21.9001695,22.0453214 20.6556383,22.4758735 C20.4685659,22.5444191 20.2707833,22.5736938 20.0730006,22.5886882 C18.2672523,22.7429158 16.4579339,22.8821491 14.6443313,22.8928593 C14.1002506,22.8978574 13.5504577,22.8621566 13.0235133,22.7172112 C12.0867234,22.4751595 11.1520755,22.1874108 10.2945414,21.73044 C9.82114825,21.4669679 9.34918319,21.1449463 9.07000264,20.6679831 C8.83580515,20.2731319 8.8208108,19.7540417 9.05358025,19.3549063 C9.34704114,18.8486685 9.92325265,18.530217 10.5030342,18.5066545 C11.5747734,18.5180787 12.6322322,18.7287137 13.6625583,19.0107503 C14.1280972,19.086436 14.5950642,19.3234896 15.0705993,19.1806863 C16.2044579,18.9193561 17.3240362,18.5901944 18.4786013,18.4281126 C18.6842381,18.3852716 18.9212916,18.403836 19.0869435,18.2538925 C19.5724749,17.8668955 20.0094531,17.422063 20.3978783,16.9379597 C18.0751818,17.9097365 15.4918692,18.2081955 13.0028069,17.8754637 C12.6150958,17.7062417 12.3537656,17.3420931 12.0331721,17.0764789 C10.0860485,17.5591542 8.05110075,17.6969595 6.06042207,17.4327733 C5.06151265,17.3428072 4.08902184,17.0714808 3.15437393,16.7173285 C2.27756137,16.6801996 1.39717873,16.7230406 0.518938132,16.69805 C0.214052983,16.6937659 -0.0230005751,16.399591 0.00341804438,16.1018461 C0.00127599416,13.9340912 0.00413206113,11.7663364 0.0019900109,9.59786756 C0.00413206113,9.38294852 -0.0115763072,9.16660145 0.0205544462,8.95311044 C0.0676795512,8.70106253 0.318299428,8.51827425 0.571775371,8.53184056 C1.39932078,8.52755646 2.2275802,8.53255458 3.05583962,8.53112655 C4.04475281,7.53364516 5.05294445,6.5547282 6.10611914,5.62436439 C6.66876433,5.13597694 7.23140953,4.64259137 7.85974426,4.23917191 C8.09679782,4.08280224 8.36312606,3.97926981 8.63373841,3.89644387 C9.29991603,2.44841792 10.3573748,1.10321038 11.8303914,0.422038404 C12.9149828,-0.107762019 14.2266316,-0.142034823 15.3347855,0.337784428 Z"></path></clipPath><clipPath id="i1"><path d="M8.40552921,0.000314912186 L8.56302429,0.00164253707 C9.09710881,0.0194929556 9.6254812,0.113743166 10.1524256,0.195855091 C11.3619699,0.418628315 12.604359,0.448617018 13.8238996,0.296531452 C14.0331066,0.285107184 14.2780143,0.239410112 14.4558045,0.381499444 C14.5422005,0.582852165 14.4400961,0.808481456 14.3472739,0.990555725 C14.0259664,1.54106263 13.4390446,1.88379067 12.8421266,2.06158084 C11.8860582,2.33861933 10.8571601,2.21009632 9.92893832,1.8895028 C9.71758936,1.80953293 9.45768727,1.76312184 9.26847283,1.92091954 C9.08282848,2.04587247 9.03998747,2.28006996 9.04784166,2.48927687 C9.04926969,3.64169989 8.72796215,4.84767417 7.92540734,5.70592229 C7.314209,6.36567376 6.44168055,6.73696247 5.55986987,6.85049113 C5.30353786,6.87333967 5.08504874,7.09254281 5.06934037,7.35030285 C5.03363953,7.66018612 5.31424811,7.96007315 5.62770146,7.93436854 C6.30244728,7.87581917 6.9557726,7.65375997 7.55768871,7.34887482 C8.17317115,8.77119617 9.01713894,10.0928412 10.0460371,11.2509763 C7.89184855,11.7222274 5.62912949,11.6850985 3.49064935,11.1460159 C3.06866545,11.0589058 2.6823824,10.8632652 2.2775349,10.726888 C1.51996314,10.6890451 0.75953531,10.7226039 0.000535512557,10.7111797 L0.000535512557,4.73271747 C0.735972757,4.72843337 1.47212402,4.74057166 2.20756126,4.72771935 C2.40248783,4.73414551 2.55671545,4.60276642 2.68452445,4.47138734 C3.53349035,3.60599905 4.40887488,2.76631536 5.30282384,1.94662414 C5.96186129,1.36398648 6.6101885,0.761356351 7.35062386,0.2815371 C7.70477616,0.0409134579 8.14532449,-0.0104957476 8.56302429,0.00164253707 Z"></path></clipPath><clipPath id="i2"><path d="M22.0519112,0 C22.3153834,1.92141905 22.5809976,3.84283811 22.8444698,5.76497118 C22.1925725,5.85208122 21.5213968,5.91491469 20.9173386,6.19409524 C20.3239907,6.46684964 19.8548817,6.93381659 19.3857727,7.37579295 L18.0495796,8.68199733 C17.6032299,9.11638726 17.1533993,9.54711786 16.6925015,9.96624569 C15.7542835,10.873047 14.5904362,11.4942415 13.4215908,12.0483185 C12.5433502,12.4567361 11.6429751,12.8173145 10.7318898,13.1443342 C10.4984063,13.2271602 10.2670649,13.3285505 10.017159,13.3464009 C8.28138431,13.4920604 6.54275354,13.6312936 4.79983867,13.6505721 C4.33929787,13.645574 3.86947486,13.6619963 3.42035833,13.5377574 C2.48428238,13.2914217 1.53892421,13.0208093 0.69281437,12.53742 C0.435768342,12.3746242 0.152303696,12.2025461 0.0173545313,11.9183675 C-0.048335009,11.7819903 0.0866141554,11.6641775 0.185862483,11.5927758 C0.470755163,11.385711 0.839187802,11.4792472 1.1633514,11.5020957 C2.32648468,11.6056281 3.43963678,11.9769168 4.58206357,12.1932639 C4.84196566,12.2214166 5.09720479,12.1789253 5.35031227,12.1201469 L5.72869119,12.0265587 L5.91727487,11.983343 C6.9975822,11.6955942 8.09002782,11.4478304 9.20032386,11.302885 C9.50378097,11.2736103 9.71584394,11.0365568 9.94290127,10.8601947 C10.8875454,10.0719202 11.7443655,9.11299568 12.1727756,7.94200823 C12.3569919,7.42220404 12.4569542,6.85527474 12.3541358,6.30833792 C12.2498894,5.89492223 11.9521444,5.46222808 11.5023138,5.39511051 C10.9639452,5.29157808 10.4105822,5.26158937 9.86435943,5.30800046 C9.38668222,5.3394172 8.92756946,5.48793268 8.45417636,5.54648205 C7.5645115,5.66857892 6.62415145,5.71499001 5.76947341,5.39225444 C5.28751211,5.20946615 4.81126294,4.82246908 4.75556963,4.27838832 C4.74842947,4.13772702 4.76056775,3.89924543 4.94835415,3.89567535 C5.49457696,3.80927932 6.03722969,3.99420966 6.58559454,3.97350317 C8.23354519,4.00563392 9.74583265,3.19165484 11.0453431,2.25129479 C12.7825459,0.976060887 15.008136,0.381998957 17.1494722,0.650469252 C17.3765296,0.679743939 17.607157,0.721870927 17.8363564,0.680457955 C19.2408273,0.451258581 20.6467263,0.226343307 22.0519112,0 Z"></path></clipPath><clipPath id="i3"><path d="M2.84178663,0.275702622 C3.60292848,-0.0755936148 4.50830171,-0.0913019832 5.28229586,0.229291534 C6.14197202,0.586299905 6.83314022,1.25319154 7.38793123,1.98648674 C7.86489442,2.61696352 8.24403731,3.31812796 8.52678794,4.05499324 C8.63746053,4.23492546 8.87165802,4.33417379 9.07800886,4.28276458 C10.3139718,3.78580893 11.6798859,3.54375725 13.007243,3.73154366 C13.9054761,3.8572106 14.7851447,4.29347483 15.3135171,5.04890455 C15.6448208,5.49944911 15.8140428,6.04352987 15.9254294,6.58475456 C14.0911204,6.71184954 12.2967963,7.36374682 10.8159256,8.45405039 C9.73847435,9.23375667 8.50893752,9.93920521 7.14445152,9.96990793 C6.45399733,10.0113209 5.76282913,9.75641693 5.07880109,9.93777718 C4.63825276,10.016319 4.29124062,10.3761835 4.16057556,10.7953113 C3.95922284,11.4157918 4.15414941,12.10696 4.54685862,12.6096278 C5.0366741,13.2379626 5.80638415,13.5764065 6.57252411,13.7199239 C7.70709672,13.9269887 8.87451409,13.7934676 9.99195029,13.5478458 C10.5367451,13.4371732 11.0993903,13.4628778 11.6470411,13.5399916 C11.6984503,13.769905 11.7027344,14.0069586 11.6648915,14.2397281 C9.31577644,15.6277766 6.482558,16.0240559 3.80142514,15.7084605 C2.13705211,14.3175559 0.824689337,12.5068094 0,10.4997084 C0.961780552,9.55149412 1.55584248,8.25055562 1.64652261,6.90320603 C2.80037366,7.20166502 4.06703936,7.22808364 5.17376532,6.74041021 C5.97346407,6.38768594 6.71175738,5.77363154 7.01164441,4.93037777 C7.1901486,4.44199031 7.15516178,3.83650412 6.78030299,3.44665098 C6.40758625,3.0425175 5.81780842,2.9404131 5.29300611,3.00324658 C4.5804174,3.09035662 3.86140254,3.12748549 3.14524375,3.07964637 C2.20202763,3.03180725 1.2838021,2.78190139 0.34201402,2.71692586 C0.881810677,1.6608951 1.76504939,0.779084426 2.84178663,0.275702622 Z"></path></clipPath></defs><g clip-path="url(#i0)"><polygon points="1.30104261e-18,-5.55111512e-17 34,-5.55111512e-17 34,22.8933049 1.30104261e-18,22.8933049 1.30104261e-18,-5.55111512e-17" stroke="none" fill="#444444"></polygon></g><g transform="translate(1.0881879802353067 4.892996740737681)"><g clip-path="url(#i1)"><polygon points="0,-4.33680869e-19 14.4884584,-4.33680869e-19 14.4884584,11.5792443 0,11.5792443 0,-4.33680869e-19" stroke="none" fill="#FDB918"></polygon></g></g><g transform="translate(9.986582006741171 8.164121941137434)"><g clip-path="url(#i2)"><polygon points="1.05471187e-15,0 22.8444698,0 22.8444698,13.6505721 1.05471187e-15,13.6505721 1.05471187e-15,0" stroke="none" fill="#FDB918"></polygon></g></g><g transform="translate(9.567672308493593 1.0938359982862718)"><g clip-path="url(#i3)"><polygon points="0,-5.55111512e-17 15.9254294,-5.55111512e-17 15.9254294,15.8105302 0,15.8105302 0,-5.55111512e-17" stroke="none" fill="#E51B23"></polygon></g></g></svg>