<?xml version="1.0" encoding="UTF-8"?><svg version="1.1" width="20px" height="27px" viewBox="0 0 20.0 27.0" xmlns="http://www.w3.org/2000/svg" xmlns:xlink="http://www.w3.org/1999/xlink"><defs><clipPath id="i0"><path d="M10.1554214,0 C10.8543403,0.0448286173 11.539505,0.321950979 12.0545247,0.800292702 C12.7060679,1.39274363 13.0769228,2.27861824 13.0376978,3.15888927 C13.0101893,4.02438724 12.5858457,4.86237673 11.9144353,5.40694255 C12.4579822,5.60816191 12.9373428,5.96730027 13.2908776,6.42577476 C13.4880216,6.23168722 13.6928069,6.04625976 13.9103276,5.87509595 C13.923063,5.45788416 13.8828191,5.03557821 13.9724763,4.62447941 C14.1849028,3.5139523 15.0672115,2.56847601 16.1619468,2.2837124 C16.5622629,2.1635751 16.9799134,2.17397568 17.394262,2.17694728 L17.64231,2.17673502 C17.8802073,2.18131977 18.1191234,2.16705611 18.3570208,2.18386685 C18.7344981,2.21697889 19.0625621,2.53128863 19.1160508,2.90621888 C19.1573135,3.48338733 19.1318426,4.08144184 18.9036242,4.62142291 C18.5607872,5.47724197 17.8083796,6.15527481 16.9199579,6.40336045 C16.6260248,6.49098002 16.3188469,6.5251109 16.0131972,6.52409207 C15.5053094,6.52409207 14.9969121,6.52409207 14.4890243,6.52358265 C14.214449,6.7339715 13.9597409,6.97084999 13.7299943,7.22963338 C13.8563295,7.58928115 13.9179688,7.96930556 13.9128746,8.35034881 L13.9128746,11.2596242 C13.9174594,11.5347089 13.8420658,11.8128501 13.6836374,12.0395402 C13.4477777,12.3940939 13.0315848,12.6029545 12.6092788,12.6116145 L12.6097882,14.7791801 C12.8028569,14.7801989 12.9964351,14.7837648 13.1895038,14.7735765 C13.5511892,14.0063958 14.1095093,13.3370231 14.7819385,12.8220034 C14.7885609,12.366076 14.7498453,11.9009791 14.8700675,11.4557494 C15.0570232,10.6743051 15.5700052,9.97844268 16.2607735,9.56734389 C16.7350399,9.28105203 17.289794,9.12618954 17.8440387,9.13179312 C18.2877402,9.1343402 18.731951,9.1282272 19.1756524,9.1343402 C19.5465074,9.1440191 19.8852691,9.42725446 19.970851,9.78690223 C20.016189,10.0023852 19.9942841,10.2239812 19.9973406,10.4425208 C19.9968312,11.2575865 19.6499188,12.0639922 19.060015,12.6263876 C18.5093362,13.1597463 17.7508156,13.4720183 16.9836349,13.4755843 C16.4421256,13.4766031 15.9006163,13.4750748 15.359107,13.4760937 C14.8858594,13.8342132 14.4757794,14.275877 14.1604509,14.7786707 C14.8135223,14.7832554 15.4665938,14.7751047 16.1191558,14.782746 C16.6260248,14.7883496 17.1069136,15.1215077 17.2923411,15.5927176 C17.3976204,15.8317186 17.3932338,16.0937142 17.3906159,16.3509929 L17.390149,16.5045724 C17.3886207,16.8519942 17.423261,17.2223397 17.250569,17.5391965 C17.0248976,18.003784 16.5103874,18.28651 15.9989336,18.2615486 C15.5175354,20.4199446 15.0417407,22.5803783 14.5598331,24.7387744 C14.399367,25.4641829 13.734579,26.0219935 12.9979633,26.0821046 L7.02098415,26.0821046 C6.27876488,26.0296348 5.60327912,25.4708053 5.44332247,24.7397932 C4.960396,22.5808877 4.48460135,20.420454 4.00269372,18.2610392 C3.49123995,18.2870194 2.97622026,18.003784 2.75105835,17.5391965 C2.57021563,17.2065478 2.61708191,16.8178633 2.61198775,16.4546496 C2.60944067,16.1388117 2.59110169,15.8051441 2.74290769,15.5168146 C2.94820238,15.0848297 3.40616746,14.7878401 3.8850186,14.7822366 C4.53758063,14.7756142 5.19014266,14.7832554 5.84270469,14.7786707 C5.52533846,14.2768958 5.11729616,13.8326849 4.64252035,13.4760937 C4.06738956,13.4735466 3.49225878,13.4796596 2.917128,13.4730372 C1.77399825,13.4338121 0.69403611,12.6890458 0.252881762,11.6330262 C0.00581495061,11.0854039 -0.0242405996,10.4730857 0.0134561922,9.88216304 C0.0577753934,9.48023373 0.423026741,9.14300027 0.828012546,9.1343402 C1.27120456,9.1282272 1.71439657,9.1343402 2.158098,9.13179312 C2.78722689,9.12568012 3.41635578,9.32588065 3.92984721,9.69011317 C4.53554296,10.1154756 4.97516906,10.7690565 5.14021988,11.4908991 C5.25025376,11.925431 5.21408522,12.3767737 5.2196888,12.8199657 C5.90128755,13.3370231 6.44585336,14.0196407 6.82842486,14.7832554 C7.0163994,14.7781612 7.20437394,14.7801989 7.39234849,14.7791801 C7.39387674,14.056828 7.3928579,13.334476 7.3928579,12.6116145 C6.71839098,12.6167087 6.10199749,12.0395402 6.09231858,11.3599792 C6.08569618,10.3579577 6.09129975,9.3559362 6.08926209,8.35391472 C6.08314909,7.97185264 6.14529786,7.59029998 6.27214247,7.22963338 C6.04188639,6.97135941 5.78870659,6.73244326 5.51260306,6.52358265 L3.9420732,6.52358265 C3.35624468,6.5251109 2.76939733,6.35802242 2.27730137,6.03861852 C1.61658868,5.61936906 1.13060571,4.93471382 0.954857156,4.17160849 C0.85755868,3.79005583 0.86927525,3.39322068 0.876407076,3.00249853 C0.884048317,2.55064644 1.29973186,2.16043371 1.75158395,2.17724444 L2.76962373,2.17596146 C2.9392593,2.17679162 3.10883826,2.17945191 3.27830402,2.18590451 C4.48714843,2.26486401 5.59054372,3.14004088 5.94356908,4.2984531 C6.12033647,4.80328446 6.0897715,5.34326554 6.08875267,5.86898296 C6.3047451,6.04473151 6.51207746,6.23015898 6.71125915,6.42424651 C7.0607186,5.96322494 7.54415449,5.61070899 8.08464498,5.40643313 C7.39846148,4.85371666 6.97360845,3.99382227 6.95832596,3.11253241 C6.93336458,2.22207305 7.32561498,1.33059487 8.00110073,0.749860508 C8.49880027,0.309724992 9.14423048,0.05756402 9.80341492,0 L10.1554214,0 Z M3.93392254,15.650791 C3.69398756,15.6370368 3.47239155,15.8484445 3.48257987,16.0904171 C3.48105163,16.3838408 3.47850455,16.6767551 3.48359871,16.9701787 C3.48359871,17.2045101 3.70366646,17.4036918 3.93646962,17.3878999 C5.23038653,17.3899376 6.52430344,17.3853529 7.81822035,17.3899376 C8.09279563,17.375674 8.32610821,17.6634941 8.24816755,17.9294093 C8.20282951,18.1250251 8.00772314,18.2686804 7.80752261,18.2569638 C6.83504727,18.2584921 5.86308134,18.255945 4.89060599,18.2579827 C5.36181589,20.3516828 5.8207998,22.4484395 6.2920097,24.5421397 C6.3775916,24.9282771 6.74997478,25.2191537 7.14477226,25.2115125 C9.04846025,25.2135502 10.9526577,25.2135502 12.8563456,25.2115125 C13.252162,25.2196632 13.625564,24.9277677 13.7106364,24.5406115 C14.1803181,22.4469113 14.6428679,20.3516828 15.1094931,18.2569638 C14.1365083,18.2574732 13.1635236,18.2579827 12.1900294,18.2569638 C11.9551885,18.2712275 11.7381773,18.0664422 11.7407244,17.831092 C11.7295172,17.5906476 11.9490756,17.3772022 12.1885011,17.3894282 C13.4793615,17.3858623 14.770222,17.3894282 16.0610824,17.3878999 C16.2240955,17.3960506 16.3886369,17.308431 16.4655588,17.1637569 C16.5222058,17.065949 16.5217983,16.9524918 16.5211951,16.8419037 L16.5215945,16.7597899 C16.5165004,16.5203643 16.5282169,16.2809387 16.5159909,16.0420226 C16.5022367,15.8183889 16.2893008,15.6390745 16.0682142,15.650791 C12.0234503,15.6482439 7.97868643,15.6482439 3.93392254,15.650791 Z M9.13506099,6.08956013 C8.60272116,6.08701305 8.07343782,6.28925124 7.68016859,6.64788018 C7.2283165,7.04980949 6.9593448,7.64684517 6.95985421,8.2520315 C6.95832596,9.27137313 6.95679772,10.2907148 6.96036363,11.3100564 C6.9562883,11.5428595 7.16922423,11.7481542 7.40202739,11.7374565 C7.62871756,11.7384753 7.82993692,11.5352183 7.82586159,11.3080187 C7.83197459,10.2881677 7.82382393,9.26780722 7.82993692,8.24795617 C7.82942751,8.01820951 8.04083519,7.81749956 8.27007244,7.8281973 C8.49727202,7.82615964 8.70052905,8.02992608 8.69543489,8.25814449 C8.6990008,9.27442963 8.69696313,10.2912242 8.6959443,11.3080187 C8.69696313,11.6727607 8.52885582,12.0242578 8.26345003,12.2708152 C8.26192178,13.1072764 8.2624312,13.9432282 8.26294061,14.7791801 L9.56602701,14.7791801 C9.56857409,13.9106256 9.56449876,13.0420711 9.56806468,12.1735167 C9.56144227,11.9417324 9.76877462,11.7318529 10.0015778,11.7400036 C10.2338715,11.7328718 10.440185,11.9422418 10.4340721,12.1735167 L10.4361097,14.7791801 L11.7391961,14.7791801 L11.7391961,12.271834 C11.4732809,12.0252766 11.3041548,11.6737795 11.3061924,11.3080187 C11.3051736,10.2902053 11.3031359,9.27239196 11.3072113,8.25457858 C11.3031359,8.02788841 11.5053741,7.82615964 11.7315549,7.8281973 C11.9623204,7.81699015 12.1742375,8.02075659 12.1721998,8.2520315 C12.1788222,9.27137313 12.1701621,10.2917336 12.1762751,11.3110752 C12.1727092,11.537256 12.374438,11.7379659 12.5995999,11.7374565 C12.8318937,11.7486637 13.0438108,11.5438784 13.0417731,11.312094 L13.0439381,10.0879671 L13.0438108,8.86384024 C13.0397354,8.41861057 13.0789605,7.95758899 12.9159473,7.53273596 C12.6357685,6.71716077 11.8293628,6.11757802 10.9659025,6.09261663 C10.355622,6.0854848 9.74534148,6.09057896 9.13506099,6.08956013 Z M0.872331747,10.0028947 C0.871822331,10.3875038 0.85755868,10.7833201 0.996119861,11.1490809 C1.27018573,11.9631278 2.0664031,12.5662765 2.92527865,12.6019356 C3.40005446,12.6116145 3.87483028,12.6039733 4.3501155,12.606011 C4.35520966,12.21427 4.36386974,11.8108124 4.22072381,11.4394481 C3.9420732,10.638646 3.15808181,10.0451762 2.309904,10.0064606 C1.83054344,9.99627225 1.35118289,10.0028947 0.872331747,10.0028947 Z M18.6142759,10.0014985 L18.3554925,10.0013664 C18.0050142,10.0074794 17.6484229,9.97436735 17.3055859,10.0640246 C16.5862904,10.2372261 15.9780475,10.8021685 15.7569609,11.5087287 C15.6352105,11.8612446 15.6494741,12.2387219 15.6520212,12.606011 C16.1273065,12.6039733 16.6020823,12.6116145 17.0768581,12.6019356 C17.936243,12.5657671 18.7329698,11.962109 19.0060169,11.1475526 C19.1435592,10.7838295 19.1287862,10.3900509 19.1318426,10.0079888 C18.9593204,9.99847972 18.7867981,10.000291 18.6142759,10.0014985 Z M1.74343329,3.04681773 C1.73884854,3.4349928 1.72764139,3.83488445 1.86874965,4.20421112 C2.14383435,5.00959799 2.93088223,5.604596 3.78109771,5.64687753 C4.26045827,5.66317885 4.74032824,5.65095286 5.2196888,5.65400936 C5.22376412,5.26277779 5.23395245,4.85881082 5.09080652,4.48744648 C4.81266533,3.68358786 4.02459861,3.08808043 3.1733643,3.05140247 C2.69706024,3.0396859 2.21973735,3.04885539 1.74343329,3.04681773 Z M17.0824617,3.0457989 C16.8323383,3.04223298 16.579668,3.06260963 16.339733,3.13596555 C15.6331728,3.34075082 15.0534573,3.92810759 14.8619168,4.63925248 C14.7651278,4.9688447 14.7824479,5.31524765 14.7824479,5.65400936 C15.2618085,5.65095286 15.741169,5.66317885 16.2200202,5.64687753 C17.0595379,5.60612425 17.8374163,5.02488047 18.1216705,4.23477609 C18.2719483,3.85729875 18.2648164,3.44569054 18.2587034,3.04681773 C17.866453,3.04528948 17.4747121,3.04681773 17.0824617,3.0457989 Z M9.76418988,0.886384024 C8.87169286,0.972984762 8.08311673,1.66782833 7.88750094,2.5430052 C7.73977027,3.15736102 7.87629379,3.83284678 8.25682762,4.33818756 C8.60832473,4.81551045 9.16155062,5.13746143 9.75094506,5.20215727 C10.3856775,5.28060735 11.0489373,5.05646427 11.5069024,4.61021576 C11.9648675,4.17415557 12.2139719,3.53025361 12.1671056,2.89959648 C12.1288994,2.24856269 11.7743458,1.62707504 11.2369118,1.25978603 C10.8125682,0.961268192 10.2787001,0.829838837 9.76418988,0.886384024 Z"></path></clipPath><clipPath id="i1"><path d="M0.855601324,0.339130627 C1.09808339,1.64119819 1.33088655,2.94581284 1.56929329,4.24889924 C1.6360268,4.49800372 1.44346751,4.7822579 1.18009938,4.78938973 C0.959012793,4.81638878 0.748623942,4.6365649 0.717549559,4.42057247 C0.482199318,3.12665556 0.246339661,1.83273865 0.0120082524,0.538312324 C-0.0348580293,0.349318949 0.0588745342,0.137401849 0.233604259,0.0497822787 C0.47150158,-0.0857224055 0.806187962,0.070158923 0.855601324,0.339130627 Z"></path></clipPath></defs><g clip-path="url(#i0)"><polygon points="0,0 20,0 20,26.0821046 0,26.0821046 0,0" stroke="none" fill="#000000"></polygon></g><g transform="translate(6.526049425086771 19.127187030623624)"><g clip-path="url(#i1)"><polygon points="4.8919202e-16,-8.67361738e-16 1.58260735,-8.67361738e-16 1.58260735,4.79208259 4.8919202e-16,4.79208259 4.8919202e-16,-8.67361738e-16" stroke="none" fill="#000000"></polygon></g></g></svg>