<?xml version="1.0" encoding="UTF-8"?><svg version="1.1" width="16px" height="17px" viewBox="0 0 16.0 17.0" xmlns="http://www.w3.org/2000/svg" xmlns:xlink="http://www.w3.org/1999/xlink"><defs><clipPath id="i0"><path d="M7.6984756,0 C8.33545959,0 8.64946183,0.429107867 8.79846558,0.93279406 C9.00864223,1.64778551 8.88798007,2.51617101 8.88798007,2.51617101 C8.88798007,2.51617101 8.88736198,2.52148449 8.88619712,2.5317027 L8.87321726,2.64859908 C8.80268386,3.29725135 8.51836315,6.10807788 8.88798007,6.10807788 C9.48399505,6.10807788 10.1942182,3.11166765 10.1942182,3.11166765 C10.4734248,0.997767601 11.5419865,1.04889895 11.8228768,1.07912577 C13.6858445,1.27658884 12.3770809,4.92103953 11.8228768,6.10807788 C11.273443,7.29681119 10.9768386,9.57597003 11.8228768,9.86044114 C12.5364672,10.1002783 12.5507783,9.51410392 13.2910267,8.74289623 C14.8150179,7.14680706 15.8268964,8.26265701 15.8268964,8.26265701 C16.4832425,8.9847108 15.1166733,10.3197758 14.3379814,11.2890116 C13.5533967,12.2678521 13.2312568,12.69357 13.2312568,12.69357 L13.2115502,12.7256244 C12.9890248,13.0819204 10.8958359,16.2885843 7.63926696,16.2885843 C2.82175983,16.2885843 2.3980392,10.711877 2.28495349,9.93982186 C2.17102596,9.17030914 1.33957945,7.77676792 0.976470515,7.12505505 C0.613361578,6.47955704 -0.741983216,4.66736022 0.54012245,4.01508237 C1.55200099,3.49472905 2.28495349,4.9713234 2.28495349,4.9713234 C2.28495349,4.9713234 3.37596396,7.41461105 3.95009138,7.12505505 C4.26577728,6.97109601 3.71157315,5.74987592 3.71157315,5.74987592 L2.83999946,3.77157283 C1.94681882,1.73394607 3.51795246,1.54156789 3.51795246,1.54156789 C4.58342745,1.2203726 5.08179026,2.873243 5.08179026,2.873243 C5.08179026,2.873243 5.87787994,5.5591927 6.24996839,5.65043815 C6.66555134,5.74987592 6.50925174,3.97496827 6.50925174,3.97496827 C6.50925174,3.97496827 6.47277248,1.83281886 6.61083245,0.966128311 C6.69866328,0.423457994 7.07945063,0 7.6984756,0 Z"></path></clipPath></defs><g clip-path="url(#i0)"><polygon points="2.33146835e-15,0 16,0 16,16.2885843 2.33146835e-15,16.2885843 2.33146835e-15,0" stroke="none" fill="#000000"></polygon></g></svg>