<?xml version="1.0" encoding="UTF-8"?><svg version="1.1" width="21px" height="20px" viewBox="0 0 21.0 20.0" xmlns="http://www.w3.org/2000/svg" xmlns:xlink="http://www.w3.org/1999/xlink"><defs><clipPath id="i0"><path d="M0.819082031,0.00372036869 C1.32849609,0.00331021244 1.83791016,0.0266891187 2.34650391,0.0525289624 C3.84316406,0.148505525 5.36033203,0.348661775 6.74994141,0.941337556 C7.61988281,1.32360318 8.46603516,1.88018521 8.95330078,2.71895474 C9.49634766,3.66272427 9.63908203,4.79352506 9.5221875,5.86403287 C9.41677734,6.74176724 9.13992188,7.63180631 8.5575,8.31389615 C9.38314453,9.97010709 9.84251953,11.7805368 10.1386523,13.5995797 C10.5254297,12.1480368 11.1242578,10.7453024 11.9810742,9.50786099 C11.6435156,8.82946256 11.4778125,8.0743649 11.4445898,7.32008756 C11.4076758,6.37508756 11.5783008,5.39973599 12.0631055,4.57737271 C12.5425781,3.77182584 13.3546875,3.23000943 14.1930469,2.85143521 C15.3857813,2.33340787 16.6822852,2.10166959 17.9718164,1.99338834 C18.7876172,1.91053677 19.6083398,1.89454068 20.427832,1.88633756 C20.5660547,1.88633756 20.716582,1.90315396 20.8236328,1.99954068 C20.9331445,2.08444302 20.981543,2.2206149 21,2.35309537 L21,2.69926724 C20.97375,4.17829068 20.8958203,5.66838834 20.5541602,7.11254849 C20.34375,7.98372037 20.0377734,8.84299771 19.543125,9.59563443 C19.2494531,10.0299899 18.8995898,10.4376852 18.4574414,10.7264352 C17.6982422,11.2292868 16.7741602,11.4339547 15.8726367,11.4446188 C14.9424023,11.4491305 13.9933008,11.2596383 13.1799609,10.7945211 C12.9613477,10.6698336 12.7640625,10.513154 12.5766211,10.3462204 C11.8801758,11.4507711 11.3695312,12.6677047 11.0467383,13.9322165 C10.6648828,15.400986 10.5020508,16.9206149 10.4926172,18.4361422 C10.4897461,18.6002047 10.4823633,18.7855954 10.3605469,18.910693 C10.2026367,19.0915719 9.90404297,19.1157711 9.7190625,18.963193 C9.58042969,18.860654 9.53408203,18.6818258 9.53367187,18.5173532 C9.52300781,16.1327047 9.33474609,13.7283688 8.701875,11.4212399 C8.46931641,10.5672946 8.17523438,9.72770474 7.79173828,8.92913052 C6.87175781,9.4328024 5.79837891,9.61450162 4.75822266,9.54477506 C3.88376953,9.47915006 2.99742188,9.21993131 2.30425781,8.66704068 C1.81042969,8.26139615 1.43308594,7.73106412 1.14023438,7.16750943 C0.482753906,5.87018521 0.223535156,4.4124899 0.102949219,2.97571256 C0.0299414063,2.25793912 0.0172265625,1.53565396 0,0.815009431 L0,0.470888337 C0.0176367187,0.326923494 0.07546875,0.179267244 0.199746094,0.0951852124 C0.378164063,-0.0348343188 0.612773438,0.00741177494 0.819082031,0.00372036869 Z M20.0422852,2.84036099 C18.8803125,2.86045865 17.7150586,2.92321256 16.5711328,3.13649381 C15.6400781,3.30137662 14.7098437,3.57454068 13.9022461,4.07821256 C13.6311328,4.25211881 13.3739648,4.45145474 13.1569922,4.69016568 C12.8169727,5.06832974 12.6221484,5.55313443 12.5105859,6.04368131 C12.3260156,6.90213834 12.376875,7.80940396 12.6455273,8.64489224 C13.6737891,7.43903287 14.9735742,6.47393521 16.4083008,5.80538052 C16.603125,5.71883756 16.847168,5.75370084 17.0017969,5.90299771 C17.1498633,6.06377896 17.1773437,6.33817349 17.0346094,6.51166959 C16.9230469,6.62979459 16.765957,6.68557584 16.6248633,6.75981412 C15.2775,7.41893521 14.0691797,8.37172818 13.1442773,9.55502896 C13.316543,9.75641568 13.5351562,9.91268521 13.7693555,10.0340915 C14.4912305,10.4011813 15.3209766,10.5152047 16.122832,10.4725485 C16.8890039,10.4208688 17.6912695,10.2092282 18.2601562,9.66495084 C18.8840039,9.04602506 19.2515039,8.22038052 19.4992383,7.38899381 C19.9196484,5.91243131 20.0135742,4.36778287 20.0422852,2.84036099 Z M0.956074219,0.956923494 C0.970429688,1.83711881 1.01349609,2.71772427 1.12054688,3.59176724 C1.24072266,4.46663052 1.39658203,5.34600552 1.72880859,6.16877896 C1.96998047,6.77786099 2.30179688,7.36397427 2.78003906,7.81883756 C3.28371094,8.27985318 3.96662109,8.4878024 4.63271484,8.56573209 C5.55474609,8.66129849 6.52476563,8.53907193 7.34548828,8.08872037 C6.81884766,7.16709927 6.13675781,6.33079068 5.31972656,5.65116177 C4.94525391,5.33575162 4.53263672,5.07161099 4.13970703,4.78122037 C4.003125,4.68114224 3.86039063,4.55932584 3.82962891,4.38336881 C3.766875,4.11471646 3.98794922,3.82760709 4.26398438,3.82022427 C4.49244141,3.79889615 4.64871094,3.98715787 4.82179688,4.10118131 C5.50347656,4.56588834 6.16916016,5.06504849 6.73599609,5.66797818 C7.24253906,6.19133756 7.66828125,6.78483365 8.05998047,7.39678677 C8.49433594,6.64209927 8.63214844,5.74877896 8.58908203,4.88786099 C8.54068359,4.1565524 8.35037109,3.39653287 7.86310547,2.82887662 C7.46361328,2.38385709 6.94189453,2.06557584 6.40007813,1.82317349 C5.73152344,1.53565396 5.02318359,1.34329068 4.305,1.23049771 C3.20085938,1.02952115 2.07621094,0.976610994 0.956074219,0.956923494 Z"></path></clipPath></defs><g transform=""><g clip-path="url(#i0)"><polygon points="0,2.77555756e-17 21,2.77555756e-17 21,19.0636395 0,19.0636395 0,2.77555756e-17" stroke="none" fill="#000000"></polygon></g></g></svg>