<?xml version="1.0" encoding="UTF-8"?><svg version="1.1" width="30px" height="43px" viewBox="0 0 30.0 43.0" xmlns="http://www.w3.org/2000/svg" xmlns:xlink="http://www.w3.org/1999/xlink"><defs><clipPath id="i0"><path d="M15,0 C23.2842712,0 30,6.71572875 30,15 C30,20.5228475 25,29.7415975 15,42.65625 C5,29.7415975 0,20.5228475 0,15 C0,6.71572875 6.71572875,0 15,0 Z"></path></clipPath><linearGradient id="i1" x1="15px" y1="0px" x2="15px" y2="42.65625px" gradientUnits="userSpaceOnUse"><stop stop-color="#E8298C" offset="0%"></stop><stop stop-color="#FDB918" offset="100%"></stop></linearGradient><clipPath id="i2"><path d="M2.2322151,0.108322673 C1.85934986,0.309077595 1.43465731,0.626717035 1.3276042,1.27207007 C1.16034889,2.42246618 2.52630771,3.44408297 1.95123104,4.63623222 C1.7840971,5.04587422 1.16034889,5.78650695 0,5.41704021 C0.204032059,5.32673691 0.36121321,5.20463325 0.491570397,5.06760041 C1.85255283,3.59616636 -0.474820591,2.29538613 0.269210652,0.845799644 C0.926337104,-0.306295717 2.02320665,0.0248163929 2.2322151,0.108322673 Z"></path></clipPath><clipPath id="i3"><path d="M2.22881659,0.108322673 C1.85595134,0.309077595 1.4312588,0.626717035 1.32250643,1.27207007 C1.15695038,2.42246618 2.52485121,3.44408297 1.94953178,4.63623222 C1.77899934,5.04587422 1.1553725,5.78650695 0,5.41704021 C0.199055667,5.32673691 0.357814699,5.20463325 0.489871141,5.06760041 C1.85085358,3.59616636 -0.478219102,2.29538613 0.267511396,0.845799644 C0.922938592,-0.306295717 2.01980814,0.0248163929 2.22881659,0.108322673 Z"></path></clipPath><clipPath id="i4"><path d="M2.23379298,0.108322673 C1.86092774,0.309077595 1.43453593,0.626717035 1.32590494,1.27207007 C1.1637474,2.42246618 2.52630771,3.44408297 1.95462955,4.63623222 C1.78567498,5.04587422 1.16034889,5.78650695 0,5.41704021 C0.202332803,5.32673691 0.362791091,5.20463325 0.493148277,5.06760041 C1.22140072,4.27933217 0.891585498,3.54003983 0.542978848,2.80060816 L0.404997448,2.50471164 C0.159226885,1.96179418 -0.0221293375,1.41528005 0.270788532,0.845799644 C0.92803636,-0.306295717 2.02320665,0.0248163929 2.23379298,0.108322673 Z"></path></clipPath><clipPath id="i5"><path d="M4.09472072,4.69235772e-05 C5.42062566,-0.00832797948 5.68158279,1.10686926 5.71326177,1.33092826 C5.35556844,1.10686926 4.86739656,0.897860807 4.25530038,1.12859545 C3.1719035,1.55838577 2.97114858,3.25375745 1.65361854,3.35243566 C1.21217619,3.41263786 0.259136493,3.24210541 0,2.0532333 C0.18048523,2.18031335 0.362791091,2.2605425 0.551772599,2.30241701 C1.52738812,2.52398782 2.00600169,1.9688774 2.44427311,1.34813322 L2.63096516,1.08015464 C3.00473489,0.544452778 3.39679479,0.0351590948 4.09472072,4.69235772e-05 Z"></path></clipPath><clipPath id="i6"><path d="M4.09314284,0 C5.41892641,-0.00495973825 5.68158279,1.10683899 5.71326177,1.33599575 C5.35374781,1.10683899 4.86387667,0.899529792 4.25360113,1.13026444 C3.17178213,1.56163264 2.97284784,3.25372718 1.65191929,3.35228401 C1.21217619,3.41272896 0.255737982,3.24195377 0,2.05490229 C0.177208094,2.18198234 0.364490346,2.25893435 0.548495463,2.30238674 C1.52659918,2.52559612 2.00603203,1.97048569 2.44430346,1.3493298 L2.63094782,1.08115313 C3.00453177,0.545018993 3.39589315,0.0351193084 4.09314284,0 Z"></path></clipPath><clipPath id="i7"><path d="M4.09472072,0 C5.42062566,-0.00664584702 5.68316067,1.11025065 5.71326177,1.33430965 C5.35544707,1.11025065 4.86557593,0.897843684 4.25360113,1.12869971 C3.17348138,1.5600679 2.97284784,3.25556096 1.65361854,3.35411779 C1.21217619,3.41431999 0.259257869,3.24536542 0,2.05491544 C0.180606605,2.18369474 0.362791091,2.25894749 0.550073343,2.3057984 C2.50470289,2.75051789 2.46622689,0.0819581999 4.09472072,0 Z"></path></clipPath><clipPath id="i8"><path d="M0.591521198,0 C0.56821712,0.220660489 0.593220454,0.421415412 0.648324889,0.605177778 C1.24027275,2.51465568 3.52929154,1.15197398 4.41545339,2.51805419 C5.08580976,3.66505178 4.24649882,4.44925828 4.06929073,4.58956825 C4.08604053,4.16827422 4.02256119,3.63834919 3.51751813,3.22360943 C2.60137656,2.50130438 1.03624069,3.17518064 0.288932309,2.08158822 C0.016323146,1.72887129 -0.309691196,0.819283995 0.591521198,0 Z"></path></clipPath><clipPath id="i9"><path d="M0.58701473,0 C0.568565668,0.218961234 0.593690377,0.416317645 0.648794812,0.601900642 C0.943919113,1.55833885 1.66455525,1.69461308 2.42177089,1.76294744 L2.74739753,1.79026708 C3.39859428,1.84535948 4.03584489,1.9294875 4.41422405,2.51635493 C5.0847018,3.6634739 4.248668,4.44585977 4.07145991,4.58459186 C4.08311194,4.16499708 4.02290974,3.63664994 3.5162888,3.22033229 C2.60172511,2.50300364 1.03671061,3.17348138 0.290980113,2.08001034 C0.0184923251,1.72887129 -0.310920529,0.816006859 0.58701473,0 Z"></path></clipPath><clipPath id="i10"><path d="M0.588829695,0 C0.567103498,0.217383353 0.590528951,0.418016901 0.644055505,0.598623506 C0.941668003,1.55500102 1.66354823,1.69209454 2.42138593,1.76147576 L2.74724289,1.78925609 C3.39883137,1.84529012 4.03608198,1.9304585 4.41446114,2.51805419 C5.08323963,3.66007539 4.24720583,4.44598115 4.06999773,4.58629112 C4.08504828,4.1634192 4.02144757,3.63495068 3.51652588,3.21875441 C2.60196219,2.49802725 1.03354919,3.1719035 0.292916454,2.07831109 C0.0187294101,1.7238949 -0.312382699,0.812608348 0.588829695,0 Z"></path></clipPath><clipPath id="i11"><path d="M2.23379298,0.100085109 C2.03315944,0.192087667 1.87100189,0.314191327 1.74052333,0.451345536 C0.377841641,1.92265822 2.70873495,3.22513771 1.96458233,4.67302493 C1.30915514,5.82681955 0.212406962,5.49400818 0,5.40722477 C0.372865249,5.21156761 0.800956309,4.89052966 0.907888042,4.24845376 C1.07332272,3.09478052 -0.292636106,2.07486298 0.280862691,0.884291612 C0.448118001,0.472950359 1.07514335,-0.269381629 2.23379298,0.100085109 Z"></path></clipPath><clipPath id="i12"><path d="M2.23379298,0.100085109 C2.03315944,0.192087667 1.87100189,0.314191327 1.74052333,0.451345536 C0.381118777,1.92265822 2.70861358,3.22513771 1.96785947,4.67302493 C1.31085439,5.82681955 0.210707706,5.49400818 0,5.40722477 C0.37444313,5.21156761 0.800834933,4.89052966 0.907888042,4.24845376 C1.07672123,3.09478052 -0.29093685,2.07486298 0.280862691,0.884291612 C0.451395137,0.472950359 1.07672123,-0.269381629 2.23379298,0.100085109 Z"></path></clipPath><clipPath id="i13"><path d="M2.23039447,0.100085109 C2.02976093,0.192087667 1.87100189,0.314191327 1.74052333,0.451345536 C0.377720266,1.92265822 2.70861358,3.22513771 1.96118382,4.67302493 C1.30575663,5.82681955 0.20900845,5.49400818 0,5.40722477 C0.372865249,5.21156761 0.799135678,4.89052966 0.906188786,4.24845376 C1.07332272,3.09478052 -0.294335361,2.07486298 0.280862691,0.884291612 C0.451395137,0.472950359 1.07502198,-0.269381629 2.23039447,0.100085109 Z"></path></clipPath><clipPath id="i14"><path d="M5.71168389,1.31202381 C5.53277654,1.1832445 5.3488928,1.10471462 5.16161054,1.05944159 C3.20868025,0.6147221 3.24715626,3.28328179 1.61866242,3.36523999 C0.291058225,3.37188584 0.031921732,2.25498935 0,2.03093034 C0.35963533,2.25498935 0.84453008,2.4639978 1.4563835,2.2349624 C2.54160102,1.80359421 2.74053531,0.109800408 4.0597646,0.009544322 C4.50120696,-0.0473807437 5.45412527,0.121452447 5.71168389,1.31202381 Z"></path></clipPath><clipPath id="i15"><path d="M5.71496102,1.30872414 C5.53435442,1.18164409 5.34707217,1.10469209 5.16318843,1.05966181 C3.21183601,0.614820944 3.24703488,3.28338064 1.61684179,3.36532561 C0.292636106,3.37028543 0.0316789811,2.25338893 0,2.02932993 C0.357814699,2.25338893 0.849385096,2.46409664 1.4613599,2.23506125 C2.53978038,1.80369305 2.74199181,0.109899252 4.05794397,0.0113424217 C4.50108558,-0.0522582914 5.45230464,0.121672666 5.71496102,1.30872414 Z"></path></clipPath><clipPath id="i16"><path d="M5.71338314,1.30964122 C5.53277654,1.18086191 5.3488928,1.10403128 5.16488768,1.06057888 C4.18678397,0.838158451 3.70735111,1.39366334 3.26888245,2.01480572 L3.0821409,2.28295157 C2.70833615,2.81897396 2.31658835,3.32846073 1.61866242,3.36285744 C0.291058225,3.36950324 0.0318003566,2.25430601 0,2.03194626 C0.357814699,2.25430601 0.847807216,2.46501371 1.45978202,2.23427907 C2.54160102,1.80291087 2.74053531,0.107417815 4.06146386,0.0104388648 C4.50120696,-0.0497633369 5.45582453,0.120890485 5.71338314,1.30964122 Z"></path></clipPath><clipPath id="i17"><path d="M0.603097042,0 C0.58464798,0.424692548 0.648248693,0.951340438 1.15317039,1.36595883 C2.06943333,2.08668599 3.63444782,1.41450899 4.37847907,2.50628077 C4.65096686,2.8589977 4.98207896,3.76870638 4.08086657,4.58799037 C4.10271414,4.36720851 4.07758943,4.16827422 4.02406288,3.98596836 C3.43053714,2.07163544 1.13811983,3.43759427 0.255356502,2.06981481 C-0.413543364,0.922938592 0.422490437,0.14030997 0.603097042,0 Z"></path></clipPath><clipPath id="i18"><path d="M0.601118101,0 C0.587766806,0.421415412 0.649668263,0.949762557 1.15458996,1.36438095 C2.06915364,2.08340886 3.63586739,1.41293111 4.38159789,2.50300364 C4.65238643,2.8575412 4.98179928,3.76882775 4.08228614,4.58471324 C4.10231308,4.36563063 4.07730975,4.16669634 4.02208394,3.98451185 C3.43195671,2.07163544 1.1395394,3.43771564 0.255076816,2.06495979 C-0.413701675,0.922938592 0.423788632,0.138853465 0.601118101,0 Z"></path></clipPath><clipPath id="i19"><path d="M0.599652183,0 C0.584480257,0.422993292 0.647959595,0.953039693 1.15300266,1.36777946 C2.06914423,2.08838525 3.6342801,1.41450899 4.3800106,2.50640215 C4.65419764,2.86081834 4.98178987,3.77040563 4.08409736,4.58968963 C4.10072579,4.37072839 4.07730034,4.1717941 4.02389516,3.98948824 C3.72877085,3.03141147 3.00767956,2.89386279 2.24981152,2.82466364 L1.92389396,2.79699858 C1.27209423,2.74126604 0.634122798,2.65680362 0.255067403,2.06993619 C-0.413711088,0.926215728 0.424021969,0.140431346 0.599652183,0 Z"></path></clipPath></defs><g clip-path="url(#i0)"><polygon points="0,0 30,0 30,42.65625 0,42.65625 0,0" stroke="none" fill="url(#i1)"></polygon></g><g transform="translate(5.625 5.624999999999858)"><g transform="translate(12.55680773617708 5.352478249577342)"><g clip-path="url(#i2)"><polygon points="0,-1.88737914e-15 2.2322151,-1.88737914e-15 2.2322151,5.51729702 0,5.51729702 0,-1.88737914e-15" stroke="none" fill="#FFFFFF"></polygon></g></g><g transform="translate(16.52118340697854 5.352478249577342)"><g clip-path="url(#i3)"><polygon points="0,-1.88737914e-15 2.22881659,-1.88737914e-15 2.22881659,5.51729702 0,5.51729702 0,-1.88737914e-15" stroke="none" fill="#FFFFFF"></polygon></g></g><g transform="translate(14.5365013069704 5.352478249577342)"><g clip-path="url(#i4)"><polygon points="0,-1.88737914e-15 2.23379298,-1.88737914e-15 2.23379298,5.51729702 0,5.51729702 0,-1.88737914e-15" stroke="none" fill="#FFFFFF"></polygon></g></g><g transform="translate(10.96837992638497 11.47675030634444)"><g clip-path="url(#i5)"><polygon points="0,-1.58971144e-15 5.71326177,-1.58971144e-15 5.71326177,3.36287843 0,3.36287843 0,-1.58971144e-15" stroke="none" fill="#FFFFFF"></polygon></g></g><g transform="translate(12.94973634024991 14.90607276691583)"><g clip-path="url(#i6)"><polygon points="0,-1.65423194e-05 5.71326177,-1.65423194e-05 5.71326177,3.36279266 0,3.36279266 0,-1.65423194e-05" stroke="none" fill="#FFFFFF"></polygon></g></g><g transform="translate(11.95822064301126 13.19056389693798)"><g clip-path="url(#i7)"><polygon points="0,-2.95354283e-05 5.71326177,-2.95354283e-05 5.71326177,3.36461162 0,3.36461162 0,-2.95354283e-05" stroke="none" fill="#FFFFFF"></polygon></g></g><g transform="translate(7.195014579271108 13.52334437471925)"><g clip-path="url(#i8)"><polygon points="1.44328993e-15,0 4.67117274,0 4.67117274,4.58956825 1.44328993e-15,4.58956825 1.44328993e-15,0" stroke="none" fill="#FFFFFF"></polygon></g></g><g transform="translate(5.214899635246084 16.955998663899237)"><g clip-path="url(#i9)"><polygon points="-1.55431223e-15,0 4.67063698,0 4.67063698,4.58459186 -1.55431223e-15,4.58459186 -1.55431223e-15,0" stroke="none" fill="#FFFFFF"></polygon></g></g><g transform="translate(6.206202522553468 15.242153646375908)"><g clip-path="url(#i10)"><polygon points="-1.49880108e-15,0 4.66981471,0 4.66981471,4.58629112 -1.49880108e-15,4.58629112 -1.49880108e-15,0" stroke="none" fill="#FFFFFF"></polygon></g></g><g transform="translate(3.9626521400264125 10.67103550624471)"><g clip-path="url(#i11)"><polygon points="0,-5.55111512e-16 2.23379298,-5.55111512e-16 2.23379298,5.51863748 0,5.51863748 0,-5.55111512e-16" stroke="none" fill="#FFFFFF"></polygon></g></g><g transform="translate(0.0 10.67103550624471)"><g clip-path="url(#i12)"><polygon points="0,-5.55111512e-16 2.23379298,-5.55111512e-16 2.23379298,5.51863748 0,5.51863748 0,-5.55111512e-16" stroke="none" fill="#FFFFFF"></polygon></g></g><g transform="translate(1.98303139447715 10.67103550624471)"><g clip-path="url(#i13)"><polygon points="0,-5.55111512e-16 2.23039447,-5.55111512e-16 2.23039447,5.51863748 0,5.51863748 0,-5.55111512e-16" stroke="none" fill="#FFFFFF"></polygon></g></g><g transform="translate(2.0781775757803764 6.705392265018272)"><g clip-path="url(#i14)"><polygon points="0,8.32667268e-17 5.71168389,8.32667268e-17 5.71168389,3.36526953 0,3.36526953 0,8.32667268e-17" stroke="none" fill="#FFFFFF"></polygon></g></g><g transform="translate(0.09697894994408385 3.275989093026154)"><g clip-path="url(#i15)"><polygon points="0,2.80331314e-15 5.71496102,2.80331314e-15 5.71496102,3.36534208 0,3.36534208 0,2.80331314e-15" stroke="none" fill="#FFFFFF"></polygon></g></g><g transform="translate(1.086686153623075 4.990567741912832)"><g clip-path="url(#i16)"><polygon points="0,-3.09127723e-15 5.71338314,-3.09127723e-15 5.71338314,3.36288702 0,3.36288702 0,-3.09127723e-15" stroke="none" fill="#FFFFFF"></polygon></g></g><g transform="translate(6.88751335635313 3.4294257033623285)"><g clip-path="url(#i17)"><polygon points="1.49880108e-15,0 4.66989956,0 4.66989956,4.58799037 1.49880108e-15,4.58799037 1.49880108e-15,0" stroke="none" fill="#FFFFFF"></polygon></g></g><g transform="translate(8.867450200257649 -1.6608936448392342e-13)"><g clip-path="url(#i18)"><polygon points="-1.33226763e-15,0 4.67087739,0 4.67087739,4.58471324 -1.33226763e-15,4.58471324 -1.33226763e-15,0" stroke="none" fill="#FFFFFF"></polygon></g></g><g transform="translate(7.877570346558765 1.7121700369105755)"><g clip-path="url(#i19)"><polygon points="6.66133815e-16,0 4.6715887,0 4.6715887,4.58968963 6.66133815e-16,4.58968963 6.66133815e-16,0" stroke="none" fill="#FFFFFF"></polygon></g></g></g></svg>