<?xml version="1.0" encoding="UTF-8"?><svg version="1.1" width="20px" height="19px" viewBox="0 0 20.0 19.0" xmlns="http://www.w3.org/2000/svg" xmlns:xlink="http://www.w3.org/1999/xlink"><defs><clipPath id="i0"><path d="M9.29851284,0.000257547096 C9.67812858,-0.00884689692 10.0359728,0.224306039 10.2034154,0.561170468 C10.5806561,1.21471121 10.9575009,1.86825195 11.3363249,2.52060516 C11.7321703,2.29457744 12.1236614,2.05984112 12.521486,1.83737601 C12.6845743,1.7439565 12.9117896,1.842522 12.9636453,2.02104827 C13.0155011,2.16157339 12.9284151,2.29497328 12.8678507,2.41610197 C12.1957053,3.74060066 11.5279141,5.06747441 10.8553728,6.39197309 C10.7967877,6.51468516 10.6590335,6.58949994 10.5240502,6.57049936 C9.07129759,6.45016237 7.618545,6.32309599 6.16579241,6.202759 C6.0506014,6.1984047 5.93659793,6.13784035 5.88276296,6.03333717 C5.80161465,5.89122867 5.8534704,5.69132675 5.99676643,5.61057429 C6.33640178,5.41067237 6.67841219,5.21393721 7.02042261,5.01799374 C6.18241792,3.55376163 5.33332955,2.0962589 4.48819964,0.635985247 C3.88651464,0.643506309 3.28482965,0.633214329 2.6835405,0.641131237 C2.55053645,0.63915201 2.44207481,0.734154904 2.38546892,0.847762532 C1.81941001,1.83895939 1.25058018,2.82817703 0.684521268,3.81897804 C0.580809775,3.97494113 0.642165811,4.20294807 0.810400102,4.28528392 C1.70778161,4.80423723 2.60674649,5.32081546 3.50452384,5.83897708 C3.65929939,5.94150104 3.88888972,5.88568684 3.97320479,5.71824424 C4.32313211,5.09241267 4.66949683,4.46460188 5.01823662,3.83797862 C5.06217546,3.75524694 5.13026087,3.68003631 5.22368038,3.65668143 C5.38835206,3.60245062 5.58033708,3.71328732 5.61873408,3.88112577 C5.65317263,3.99275417 5.59854596,4.10240335 5.54471099,4.19701039 C5.19122106,4.82363365 4.84921064,5.45698628 4.49255394,6.08163031 C4.23921289,6.50597657 3.63713205,6.65125182 3.21318163,6.40186923 C2.29086187,5.87301978 1.37012549,5.34219111 0.450576641,4.80898737 C0.0250428444,4.55683386 -0.130524395,3.9563364 0.120837429,3.52961506 C0.696000784,2.52179269 1.27314337,1.51476202 1.85068179,0.508127185 C2.01377009,0.208472223 2.34034254,0.00421600102 2.68393634,0.00619522798 C4.88879518,0.00263261945 7.09365401,0.00144508327 9.29851284,0.000257547096 Z M9.26209507,0.632818484 C7.9150332,0.633610174 6.56757548,0.637172783 5.22011777,0.635985247 C6.05297648,2.07329987 6.88385595,3.51140617 7.71315205,4.95070002 C7.80459234,5.08726668 7.77648731,5.29073121 7.63754558,5.38375488 C7.49227032,5.48232038 7.3351197,5.56148946 7.18390676,5.65095052 C8.2499184,5.74199496 9.31632589,5.83145602 10.3823375,5.92170877 C10.8874362,4.92417838 11.392535,3.92664799 11.8976337,2.9291176 C11.7127739,3.02926649 11.5370185,3.14564503 11.3493878,3.23985624 C11.2053001,3.31269179 11.0180652,3.24658561 10.9420629,3.10685218 C10.4935701,2.33891212 10.0545775,1.56543023 9.60529302,0.797886012 C9.53839515,0.675965631 9.39589081,0.622526503 9.26209507,0.632818484 Z"></path></clipPath><clipPath id="i1"><path d="M7.73253687,0.250285012 C7.86949937,0.370226165 7.95104352,0.535689539 8.04169212,0.690465088 L9.48336104,3.17281154 C9.58707253,3.3608381 9.71928489,3.53817684 9.77153648,3.75034997 C9.83170498,3.99537827 9.78776614,4.26019883 9.66069977,4.47712211 L6.4883948,9.97145615 C6.40605896,10.1115854 6.33243172,10.2604233 6.21842824,10.3787811 C6.03436014,10.5755162 5.76478942,10.6808111 5.49719794,10.678436 C4.72054928,10.6796236 3.94350478,10.678436 3.16685612,10.6792277 C3.16210597,11.141971 3.17556471,11.6055059 3.16091843,12.0682492 C3.13716771,12.3394033 2.73934309,12.4367813 2.59208861,12.2087743 C1.74735454,10.9238602 0.910537381,9.63340419 0.0685742319,8.34611497 C-0.0193034451,8.23171565 -0.025241126,8.06506474 0.0654074688,7.95066542 C0.907370618,6.74294113 1.74656285,5.53402931 2.59129692,4.32828424 C2.73815556,4.10186068 3.1336051,4.19607188 3.16052259,4.46564259 C3.17596056,4.87455088 3.16210597,5.28464671 3.16685612,5.69395084 C4.85315749,5.69434669 6.53906301,5.69395084 8.22536438,5.69395084 C8.5202692,5.18370613 8.81556986,4.67346142 9.10928714,4.16242502 C9.181331,4.04762986 9.17895593,3.89760445 9.10572453,3.78439267 C8.5289778,2.79121658 7.95183522,1.79843634 7.37469263,0.805656097 C7.29671109,0.644942867 7.08176704,0.575669924 6.92857488,0.6722562 C6.0157554,1.2007098 5.1009567,1.72599663 4.18972061,2.2568253 C4.0317783,2.34114037 3.98665192,2.5620221 4.0875925,2.70729736 L5.19991805,4.56381225 C5.29412925,4.70156645 5.26127409,4.90819774 5.11995728,5.00122141 C4.9762654,5.10651628 4.75261276,5.05703561 4.66592262,4.90146837 C4.33301664,4.36232694 4.02109047,3.80972678 3.67908005,3.27612719 C3.54686769,3.04534933 3.39248799,2.80309195 3.39842567,2.52679186 C3.39446722,2.19071912 3.58684808,1.86414668 3.87977367,1.70026668 C4.71659083,1.21852284 5.55261629,0.734008081 6.38903761,0.251076702 C6.53312533,0.169136706 6.67365044,0.0729462759 6.8363429,0.0317783551 C7.14668569,-0.052140868 7.49542548,0.0333617367 7.73253687,0.250285012 Z M2.53310764,5.52215394 C1.92192236,6.39736811 1.31113292,7.27297811 0.700739323,8.14898397 C1.31152876,9.08555416 1.92192236,10.0225202 2.53350349,10.9586946 C2.53746194,10.7485007 2.52598243,10.5379109 2.53785779,10.3281128 C2.54973315,10.1575035 2.71717575,10.0304371 2.88382666,10.0435 C3.75547821,10.0415208 4.62752561,10.0438959 5.49917717,10.0427083 C5.63178537,10.0522086 5.75885174,9.97818552 5.81902024,9.86061944 C6.49987432,8.68337524 7.17954086,7.50533936 7.85960324,6.32769932 C6.19942766,6.32690763 4.53964794,6.32809516 2.87986821,6.32690763 C2.7175716,6.34036637 2.5536916,6.21923768 2.53864948,6.0537743 C2.52519074,5.87683141 2.53746194,5.69909683 2.53310764,5.52215394 Z"></path></clipPath><clipPath id="i2"><path d="M5.22847887,0.188431814 L7.038284,4.04475762 C7.09766081,4.166678 7.17287143,4.30799481 7.10795279,4.44376978 C7.04105492,4.61912929 6.80869367,4.69631914 6.64995967,4.59537856 C6.31072017,4.40378939 5.97583497,4.20388747 5.63659547,4.01150661 C4.79423647,5.47178026 3.9502941,6.93126222 3.1079351,8.39153587 C3.40561084,8.90494735 3.70051566,9.4199422 3.99858724,9.93295783 C4.06390173,10.0544824 4.20165592,10.1186093 4.3366392,10.1087132 L7.74843063,10.0988171 C7.93804058,10.1130675 8.11577516,9.94879165 8.10469149,9.75680663 C8.10667071,8.72562939 8.10508733,7.69405629 8.10548318,6.66287905 C8.12131699,6.48158186 7.97168744,6.30265974 7.78643179,6.30463897 C7.04501337,6.30978496 6.30319911,6.3319523 5.56178069,6.33828583 C5.43273509,6.34145259 5.30804379,6.25911675 5.25935481,6.13996728 C5.19799877,6.00735908 5.25262544,5.83991648 5.37335828,5.76114324 C5.46361103,5.69662045 5.58038542,5.70809996 5.68528445,5.70334982 C6.39780616,5.6962246 7.11032786,5.67484895 7.82284957,5.67168219 C8.31726046,5.68237001 8.74556518,6.13125869 8.73804411,6.62527373 C8.73923165,7.6802017 8.7396275,8.73512967 8.73764827,9.79005764 C8.74596102,10.2813018 8.31726046,10.7238569 7.82601633,10.7309821 C6.66460595,10.7377115 5.50319557,10.7377115 4.34178519,10.7412741 C4.07894385,10.7460243 3.81056067,10.6549798 3.62055489,10.47012 C3.49467605,10.3517623 3.4174862,10.1946116 3.33158775,10.0473571 C2.2750764,8.21498883 1.21698167,6.38380805 0.160074468,4.55223142 C0.0361748607,4.34362089 -0.0113265864,4.09067569 0.0361748607,3.85237676 C0.0686341828,3.66474605 0.174720748,3.50324113 0.26814026,3.34134036 L1.32029731,1.51965987 C0.930389601,1.29204877 0.536919282,1.07037535 0.148199107,0.841180866 C-0.0204310304,0.744990435 -0.0505152802,0.490066003 0.0856555347,0.353499343 C0.189367027,0.23434988 0.359580546,0.253350459 0.501293196,0.243058478 L4.8991355,0.00198863455 C5.03530632,-0.0134493357 5.17345636,0.0621571342 5.22847887,0.188431814 Z M4.74238073,0.644841551 C3.62570088,0.706989278 2.50902102,0.765574396 1.39234117,0.827722122 L1.76033078,1.03757882 C1.82126165,1.07319025 1.88147413,1.10995989 1.9401912,1.14914858 C2.07359109,1.24098471 2.10525873,1.43811572 2.01896443,1.573099 C1.58551373,2.32678862 1.15047964,3.07968656 0.715049708,3.83258449 C0.670319179,3.91096188 0.63152633,4.00081879 0.6513186,4.09305076 C0.679819468,4.21061684 0.754238402,4.30918235 0.811635984,4.41368553 C1.45528059,5.52799031 2.09734182,6.64308678 2.74098642,7.75699571 C3.57305344,6.3188894 4.40314123,4.8799914 5.23481239,3.44188509 C5.30448118,3.30056829 5.48261161,3.21941998 5.63144948,3.28315109 C5.79532947,3.35875756 5.94535487,3.46167736 6.10408888,3.54717997 C5.64965837,2.58012967 5.19681124,1.61189184 4.74238073,0.644841551 Z"></path></clipPath></defs><g transform="translate(3.315649349316769 0.0)"><g clip-path="url(#i0)"><polygon points="1.11022302e-16,5.42101086e-20 12.9794694,5.42101086e-20 12.9794694,6.57343508 1.11022302e-16,6.57343508 1.11022302e-16,5.42101086e-20" stroke="none" fill="#000000"></polygon></g></g><g transform="translate(10.20185311980098 6.656287091209824)"><g clip-path="url(#i1)"><polygon points="0,6.9388939e-18 9.79814688,6.9388939e-18 9.79814688,12.3360836 0,12.3360836 0,6.9388939e-18" stroke="none" fill="#000000"></polygon></g></g><g transform="translate(0.0 7.3087416135135905)"><g clip-path="url(#i2)"><polygon points="0,0 8.73903373,0 8.73903373,10.7414508 0,10.7414508 0,0" stroke="none" fill="#000000"></polygon></g></g></svg>