<?xml version="1.0" encoding="UTF-8"?><svg version="1.1" width="20px" height="20px" viewBox="0 0 20.0 20.0" xmlns="http://www.w3.org/2000/svg" xmlns:xlink="http://www.w3.org/1999/xlink"><defs><clipPath id="i0"><path d="M8.55,0 C8.7984375,0.023046875 9.01679688,0.15078125 9.22617188,0.276171875 C9.33085937,0.1703125 9.43046875,0.045703125 9.57851562,0 L9.665625,0 C9.7953125,0.03046875 9.91171875,0.134765625 9.91523438,0.275 C9.93007812,0.401953125 9.83007812,0.494921875 9.7578125,0.58515625 C10.1878906,0.84375 10.6550781,1.02890625 11.1109375,1.23398437 C11.715625,1.496875 12.3117188,1.7953125 12.8355469,2.19921875 C13.5175781,2.72070312 14.0332031,3.43984375 14.3761719,4.22226563 C14.4109375,4.29765625 14.4648438,4.36171875 14.5238281,4.41914062 C14.7863281,4.67617187 15.0449219,4.93710938 15.3046875,5.196875 C15.4347656,4.990625 15.6082031,4.7953125 15.846875,4.7171875 C16.4265625,4.52578125 17.1285156,5.00507812 17.1234375,5.62695312 C17.4566406,5.67070312 17.7851562,5.84414063 17.9605469,6.13867188 C18.0457031,6.27265625 18.0660156,6.43320313 18.0847656,6.5875 C18.4261719,6.6328125 18.7628906,6.81445312 18.934375,7.121875 C19.0113281,7.25117187 19.0261719,7.40390625 19.0453125,7.55 C19.5046875,7.59765625 19.9605469,7.94101562 20,8.42578125 L20,8.53945313 C19.978125,8.79140625 19.8511719,9.01367188 19.7234375,9.22578125 C19.8292969,9.33046875 19.9539062,9.43007812 20,9.57851562 L20,9.66289062 C19.9710938,9.79375 19.8660156,9.91210938 19.725,9.91523438 C19.5972656,9.93046875 19.5046875,9.83007812 19.4148437,9.75664063 C19.0847656,10.3050781 18.871875,10.9117187 18.5941406,11.4859375 C18.4085938,11.8886719 18.19375,12.278125 17.9417969,12.6433594 C18.528125,13.2292969 19.1136719,13.8160156 19.7003906,14.4019531 C19.8113281,14.5164062 19.9492188,14.6183594 20,14.7765625 L20,14.8617187 C19.971875,14.9824219 19.884375,15.0953125 19.7546875,15.1113281 C19.6414062,15.1355469 19.5375,15.0707031 19.4617188,14.9929687 C18.8339844,14.3632812 18.2046875,13.7355469 17.5761719,13.10625 C17.0792969,13.6542969 16.4546875,14.0796875 15.7785156,14.3753906 C15.6419922,14.4354492 15.2286133,14.9857178 14.957782,15.2963196 L14.892,15.368 L14.9445233,15.4033938 C15.1205915,15.5360172 15.262221,15.7196429 15.3074219,15.9382812 C15.4230469,16.5 14.9632812,17.1285156 14.3730469,17.125 C14.3292969,17.4585937 14.1550781,17.7875 13.8601562,17.9625 C13.7265625,18.046875 13.5667969,18.0675781 13.4128906,18.0855469 C13.3671875,18.4257812 13.1871094,18.7621094 12.88125,18.9335938 C12.7511719,19.0117188 12.5976562,19.0277344 12.45,19.046875 C12.4015625,19.5144531 12.0429688,19.9835938 11.5445313,20 L11.4476562,20 C11.2003906,19.9738281 10.9828125,19.8492187 10.7738281,19.7238281 C10.6738281,19.8285156 10.5738281,19.9390625 10.4394531,20 L10.3351562,20 C10.2054687,19.9699219 10.0882812,19.8660156 10.0847656,19.7261719 C10.0683594,19.5984375 10.1691406,19.5050781 10.2425781,19.4152344 C9.61835937,19.04375 8.92578125,18.8109375 8.27929688,18.4828125 C7.95898438,18.3253906 7.65039062,18.1441406 7.35625,17.9421875 C6.78984375,18.5085937 6.22382813,19.075 5.65742188,19.6410156 C5.51953125,19.7675781 5.40820312,19.9375 5.2234375,20 L5.13867188,20 C5.01796875,19.971875 4.9046875,19.8847656 4.88867188,19.7550781 C4.86328125,19.6410156 4.93007812,19.5367187 5.00820313,19.4605469 C5.6375,18.8335937 6.26523437,18.2046875 6.89296875,17.5765625 C6.34570312,17.0796875 5.9203125,16.4554688 5.62460938,15.7796875 C5.56679687,15.6515625 5.45429687,15.5628906 5.35820312,15.4652344 C5.13632813,15.2453125 4.91640625,15.0238281 4.69570312,14.8027344 C4.56875,15.0007812 4.40585938,15.1902344 4.17890625,15.2730469 C3.7703125,15.4261719 3.29492188,15.2265625 3.04375,14.8882812 C2.92890625,14.7410156 2.89414063,14.5535156 2.87539063,14.3726563 C2.54257813,14.3285156 2.21523438,14.1554688 2.03945313,13.8617188 C1.9546875,13.7273438 1.9328125,13.5671875 1.91523438,13.4125 C1.57460938,13.3671875 1.23945313,13.1851563 1.06640625,12.8808594 C0.98828125,12.7515625 0.971875,12.5984375 0.95546875,12.4511719 C0.498046875,12.4007812 0.037890625,12.0621094 0,11.5769531 L0,11.4578125 C0.021484375,11.2066406 0.14921875,10.9855469 0.276953125,10.7746094 C0.171875,10.6742187 0.0609375,10.5742188 0,10.4390625 L0,10.334375 C0.030078125,10.2039063 0.135546875,10.0867188 0.276171875,10.084375 C0.403515625,10.0699219 0.495703125,10.1703125 0.58515625,10.2429688 L0.724030671,9.99626736 L0.845,9.757 L0.84734375,9.7038125 C0.856203125,9.6393125 0.8853125,9.5759375 0.91484375,9.51875 C1.06210938,9.23671875 1.87617188,7.61757812 2.05742188,7.35585937 C1.47226562,6.7703125 0.887109375,6.18515625 0.3015625,5.6 C0.190234375,5.48476562 0.0515625,5.3828125 0,5.22421875 L0,5.13710937 C0.02890625,5.00546875 0.135546875,4.88710937 0.276953125,4.88515625 C0.391015625,4.87265625 0.4828125,4.9515625 0.558203125,5.02617187 C1.178125,5.65039062 1.80195313,6.27070312 2.42382812,6.89335938 C2.85507813,6.41757812 3.38359375,6.03554687 3.95585937,5.74726562 C4.10664062,5.66875 4.28125,5.6234375 4.40078125,5.4953125 C4.66445312,5.2265625 4.93203125,4.96171875 5.19804687,4.6953125 C4.99140625,4.56445312 4.7953125,4.39140625 4.7171875,4.15195313 C4.52539062,3.571875 5.00585938,2.86914062 5.628125,2.875 C5.6625,2.6140625 5.77226563,2.36054687 5.96171875,2.17460938 C6.12382813,2.00390625 6.35625,1.92617188 6.58671875,1.91484375 C6.62226562,1.6734375 6.71484375,1.43671875 6.88242188,1.25625 C7.046875,1.06015625 7.29804688,0.9671875 7.5484375,0.952734375 C7.59882812,0.501171875 7.928125,0.053125 8.40273438,0 L8.55,0 Z M9.74921875,11.6617188 C9.02929688,12.0519531 8.37539063,12.5492187 7.71679688,13.0324219 C7.60664063,13.121875 7.43554688,13.1214844 7.33359375,13.0195313 C7.06132813,12.7570313 6.7984375,12.484375 6.52890625,12.21875 C6.32421875,12.4105469 6.14023438,12.6246094 5.984375,12.8582031 C5.66210938,13.3378906 5.340625,13.8179688 5.01875,14.2980469 L6.00429688,15.2820313 C6.05898438,15.3359375 6.10273438,15.4 6.13164063,15.4710938 C6.46328125,16.2664063 6.99609375,16.9933594 7.715625,17.478125 C8.37890625,17.9421875 9.14140625,18.2277344 9.87304688,18.5617188 C10.3945313,18.79375 10.8652344,19.1234375 11.3726563,19.3816406 C11.6253906,19.5105469 11.8640625,19.221875 11.8574219,18.9847656 C11.8492188,18.8453125 11.725,18.7585938 11.6167969,18.6933594 C11.1703125,18.4359375 10.7226563,18.1808594 10.2785156,17.9199219 C10.1378906,17.8457031 10.0855469,17.6511719 10.1707031,17.5171875 C10.2445313,17.384375 10.428125,17.3332031 10.5597656,17.4101562 C11.1507813,17.7386719 11.7269531,18.0953125 12.321875,18.4164063 C12.5839844,18.559375 12.8378906,18.2519531 12.8175781,18.0046875 C12.7988281,17.875 12.6824219,17.7957031 12.5789063,17.7335938 L11.3140625,17.0050781 C11.2324219,16.9582031 11.1492188,16.8957031 11.1277344,16.7984375 C11.0761719,16.6363281 11.1988281,16.4503906 11.3671875,16.4316406 C11.4578125,16.4140625 11.5425781,16.4601563 11.6191406,16.5023438 C12.1394531,16.8046875 12.6605469,17.1046875 13.18125,17.4058594 C13.2910156,17.4667969 13.43125,17.5285156 13.5527344,17.4617187 C13.6769531,17.3878906 13.7578125,17.2496094 13.7792969,17.1085938 C13.7984375,16.9632813 13.678125,16.8527344 13.5636719,16.7871094 L12.3257813,16.071875 C12.1855469,16.0015625 12.1195313,15.8152344 12.1976563,15.6761719 C12.2671875,15.5300781 12.465625,15.4726563 12.603125,15.5582031 C13.1535156,15.865625 13.6914063,16.196875 14.2460938,16.4960938 C14.5171875,16.6429688 14.7828125,16.3058594 14.7316406,16.0523438 C14.6847656,15.9007813 14.5261719,15.8328125 14.4050781,15.7507813 L13.7616175,15.3286169 L12.4839844,14.4703125 C11.846875,14.0371094 11.3402344,13.4175781 11.0398438,12.7082031 C10.9902344,12.5847656 10.9148438,12.4449219 10.9808594,12.3128906 C11.0445313,12.1648438 11.2414063,12.096875 11.3824219,12.1765625 C11.4921875,12.2285156 11.5269531,12.353125 11.5722656,12.4554688 C11.6480469,12.6472656 11.7488281,12.828125 11.8570313,13.003125 C12.0445313,12.8160156 12.23125,12.6285156 12.41875,12.4417969 C12.28125,12.2757812 12.1902344,12.0542969 11.98125,11.9636719 C11.6476563,11.7875 11.3378906,11.5613281 10.9824219,11.4304688 C10.5609375,11.2832031 10.1214844,11.465625 9.74921875,11.6617188 Z M16.1335937,5.26054687 C15.9921875,5.24726563 15.8945312,5.36679687 15.8265625,5.4734375 C15.4917969,6.00625 15.1335938,6.5234375 14.7851562,7.046875 C14.6,7.31835938 14.428125,7.60039062 14.2140625,7.85039063 C13.7890625,8.35429687 13.2371094,8.74765625 12.6265625,8.99414062 C12.5035156,9.0515625 12.3429688,9.07421875 12.2375,8.96992188 C12.0855469,8.8421875 12.1222656,8.56601563 12.3097656,8.49257812 C12.5476563,8.38945313 12.7851562,8.28359375 13.0039062,8.14335937 C12.8171875,7.95507812 12.6289062,7.76835938 12.4414062,7.58046875 C12.2804688,7.71054687 12.0734375,7.80117188 11.9765625,7.99414062 C11.8140625,8.2984375 11.6164063,8.584375 11.4789063,8.90117187 C11.4367188,8.99257812 11.4179688,9.10638021 11.3653646,9.19408275 L11.358,9.203 L11.3673322,9.23192998 C11.412066,9.40594618 11.4299479,9.88320313 11.6617188,10.2503906 C12.0453125,10.9746094 12.553125,11.6214844 13.0308594,12.2839844 C13.1277344,12.4023438 13.1144531,12.5820312 13.0019531,12.6851563 C12.7433594,12.9503906 12.4777344,13.2082031 12.2175781,13.4714844 C12.5726563,13.8640625 13.0347656,14.1292969 13.4671875,14.425 C13.7744792,14.6299479 14.0802083,14.8375 14.3886574,15.0407118 L14.408,15.053 L14.4183469,15.0391594 C14.4512344,14.9984531 14.4899219,14.9611719 14.5246094,14.9253906 C14.6375,14.8167969 15.3210938,13.9316406 15.4691406,13.8691406 C16.2644531,13.5363281 16.9929687,13.0042969 17.4777344,12.2832031 C18.0003906,11.5390625 18.2902344,10.6695312 18.6894531,9.86015625 C18.8933594,9.4703125 19.1277344,9.09726562 19.3410156,8.7125 C19.3976563,8.60664063 19.4460937,8.4703125 19.3765625,8.35898438 C19.2921875,8.22929687 19.1382812,8.14296875 18.9832031,8.14296875 C18.8347656,8.15195313 18.7488281,8.29023437 18.6800781,8.4046875 C18.4316406,8.83671875 18.1835938,9.26914063 17.9328125,9.69960937 C17.8703125,9.82109375 17.7292969,9.90039062 17.5933594,9.86171875 C17.4148437,9.82265625 17.3136719,9.59882812 17.4097656,9.44101563 C17.7363281,8.846875 18.0984375,8.27148438 18.4167969,7.6734375 C18.5980469,7.340625 18.0238281,6.99609375 17.8132812,7.30429688 C17.5585938,7.69570312 17.3421875,8.11171875 17.1039063,8.51328125 C17.015625,8.653125 16.9492188,8.85546875 16.7605469,8.88046875 C16.5359375,8.92421875 16.3417969,8.65195313 16.4636719,8.45546875 C16.7703125,7.90585937 17.0929688,7.36523438 17.4046875,6.81875 C17.4652344,6.7078125 17.5277344,6.5671875 17.4597656,6.4453125 C17.3789062,6.3140625 17.2261719,6.22539063 17.0722656,6.21953125 C16.9292969,6.22109375 16.8390625,6.34882812 16.7726563,6.45898438 C16.5542969,6.83945313 16.3332031,7.21835937 16.1167969,7.6 C16.0628906,7.6890625 16.0050781,7.7921875 15.896875,7.821875 C15.7421875,7.87578125 15.5578125,7.77109375 15.5246094,7.61054688 C15.4945313,7.50625 15.5503906,7.40585938 15.5996094,7.3171875 C15.8792969,6.84023438 16.1523438,6.35976562 16.4308594,5.88242188 C16.4953125,5.76601563 16.5695313,5.62265625 16.5039062,5.490625 C16.4285156,5.36054687 16.2816406,5.27617187 16.1335937,5.26054687 Z M5.70351562,5.01875 C5.38125,5.34101562 5.0578125,5.66210938 4.7375,5.98632812 C4.603125,6.13085938 4.40390625,6.17421875 4.23515625,6.26367188 C3.775,6.49609375 3.34140625,6.78867187 2.98007813,7.15820312 C2.67519531,7.46923828 1.92529297,8.85842896 1.59054031,9.49683609 L1.583,9.509 L1.56914063,9.56796875 C1.33867188,10.1773438 0.97265625,10.7210937 0.658203125,11.2882813 C0.6,11.3949219 0.55234375,11.5332031 0.623828125,11.6457031 C0.71171875,11.7714844 0.863671875,11.8578125 1.01796875,11.8582031 C1.16640625,11.8472656 1.25117188,11.709375 1.3203125,11.5949219 C1.55703125,11.1804688 1.79804688,10.7691406 2.03359375,10.3542969 C2.09414063,10.2378906 2.1953125,10.1183594 2.340625,10.1292969 C2.55039063,10.1242188 2.7015625,10.3792969 2.58984375,10.5597656 C2.29609375,11.0835938 1.990625,11.6011719 1.69023438,12.1214844 C1.61171875,12.2628906 1.49101563,12.4359375 1.58125,12.6 C1.66132813,12.7242188 1.80507813,12.8054687 1.95117188,12.8191406 C2.10117187,12.8269531 2.19921875,12.69375 2.26679687,12.5789062 C2.51601562,12.1492187 2.76210937,11.7175781 3.01171875,11.2882813 C3.07890625,11.1523438 3.24765625,11.0738281 3.39101563,11.1386719 C3.56132813,11.2019531 3.6234375,11.4261719 3.52226563,11.5742188 C3.215625,12.1113281 2.90351562,12.6449219 2.5953125,13.1808594 C2.534375,13.2921875 2.47148438,13.4328125 2.540625,13.5550781 C2.62148438,13.6863281 2.77421875,13.7746094 2.928125,13.7800781 C3.0703125,13.7777344 3.1609375,13.6507812 3.22695313,13.5410156 C3.45117188,13.1519531 3.67617188,12.7636719 3.89882813,12.3738281 C3.94804687,12.2925781 4.00546875,12.203125 4.10351562,12.1777344 C4.25898437,12.1238281 4.44296875,12.2296875 4.47539062,12.3902344 C4.50390625,12.4945313 4.44960937,12.5949219 4.40039062,12.6832031 C4.12070312,13.1601562 3.84765625,13.640625 3.56914063,14.1179688 C3.50507813,14.2339844 3.43007813,14.378125 3.49804688,14.509375 C3.57304688,14.640625 3.71992188,14.7253906 3.86875,14.7394531 C4.00898437,14.7507812 4.10546875,14.6316406 4.17382812,14.5261719 C4.51328125,13.984375 4.878125,13.459375 5.23203125,12.9269531 C5.41132812,12.6644531 5.57773437,12.3917969 5.78476563,12.1496094 C6.2234375,11.6304688 6.79609375,11.2253906 7.43164062,10.984375 C7.55585938,10.9273438 7.715625,10.9546875 7.79765625,11.0683594 C7.91132812,11.2074219 7.85625,11.4429688 7.68671875,11.5089844 C7.45,11.6109375 7.2140625,11.7164063 6.99648438,11.8566406 C7.18320312,12.0445312 7.37109375,12.2316406 7.55859375,12.4195313 C7.72734375,12.2851562 7.94296875,12.1875 8.0375,11.98125 L8.13828668,11.7981518 L8.35229492,11.4368164 C8.45664062,11.2548828 8.55019531,11.0681641 8.60234375,10.8636719 C8.69570313,10.3914062 8.4484375,9.94414062 8.2265625,9.54570312 C7.8609375,8.92382812 7.4328125,8.34179688 7.00195312,7.76445313 C6.94804688,7.68710937 6.8890625,7.6 6.90390625,7.50078125 C6.91132813,7.39726563 6.99023438,7.32148438 7.05742187,7.25117187 C7.30117187,7.01210937 7.54101562,6.76953125 7.78242187,6.52851562 C7.59453125,6.33125 7.38984375,6.15 7.16367187,5.9984375 L5.70351562,5.01875 Z M10.9660156,8.60234375 C10.5003906,8.88203125 10.0054687,9.16367188 9.45273438,9.20507812 C9.159375,9.22890625 8.87109375,9.14609375 8.60351562,9.03320312 C8.8734375,9.48085937 9.14140625,9.95429688 9.2015625,10.4824219 C9.23828125,10.796875 9.15898437,11.1105469 9.034375,11.3972656 C9.4984375,11.1167969 9.99335938,10.8363281 10.5453125,10.7945312 C10.8390625,10.7710938 11.1285156,10.8511719 11.3960938,10.965625 C11.2554687,10.7277344 11.1027344,10.4917969 11.0085937,10.2304688 C10.9777663,10.136364 10.7955746,9.27343131 10.8308594,9.05976562 L10.83,9.058 L10.8457153,8.94099731 C10.8715332,8.8244873 10.9255859,8.71396484 10.9660156,8.60234375 Z M8.14101562,0.9765625 C8.12539062,1.14453125 8.28046875,1.2484375 8.40820312,1.32070312 C8.83046875,1.56328125 9.25195312,1.80742187 9.67421875,2.05 C9.7609375,2.09804687 9.84648437,2.16875 9.86367187,2.27265625 C9.89960938,2.421875 9.79609375,2.58554687 9.64609375,2.61757812 C9.55664062,2.64375 9.46640625,2.60820312 9.38984375,2.5640625 C8.85351562,2.25390625 8.31757813,1.94375 7.78085937,1.634375 C7.66757812,1.57070312 7.521875,1.50703125 7.3984375,1.58242187 C7.265625,1.6703125 7.17226562,1.8328125 7.18203125,1.99414062 C7.20820312,2.15664062 7.37109375,2.23515625 7.49804687,2.3109375 C7.91015625,2.54882812 8.32421875,2.78398437 8.73398437,3.02539062 C8.88867188,3.10625 8.93203125,3.33046875 8.81757812,3.4625 C8.72695312,3.58085937 8.54921875,3.60273437 8.4265625,3.52226562 C7.890625,3.2140625 7.35585937,2.90351562 6.81992187,2.59492187 C6.703125,2.5265625 6.54609375,2.46367187 6.421875,2.55117187 C6.30585937,2.63828125 6.22421875,2.78007812 6.22070312,2.9265625 C6.22148437,3.06835937 6.3484375,3.15976562 6.45859375,3.225 C6.84726562,3.44960937 7.23554687,3.67460937 7.62539062,3.89765625 C7.7078125,3.9453125 7.79609375,4.00429687 7.821875,4.10273437 C7.875,4.25703125 7.77070312,4.43945312 7.61171875,4.47382812 C7.51796875,4.50117187 7.42460937,4.4609375 7.34453125,4.41445312 C6.84960937,4.12734375 6.35351562,3.84140625 5.85820312,3.55507812 C5.74179687,3.4875 5.58710937,3.42578125 5.46289062,3.51015625 C5.35,3.59335937 5.27304687,3.72773437 5.25976562,3.86757812 C5.24921875,3.99648437 5.35117187,4.09375 5.45078125,4.15703125 C6.13398437,4.58984375 6.7984375,5.05117187 7.471875,5.49882812 C8.17890625,5.96953125 8.73632812,6.665625 9.02617187,7.46484375 C9.09101562,7.61953125 8.98828125,7.809375 8.82695312,7.84726562 C8.68359375,7.8890625 8.525,7.80117187 8.47773437,7.66132812 C8.38515625,7.43085937 8.27695312,7.20664062 8.14296875,6.996875 C7.95546875,7.18359375 7.76875,7.37109375 7.58125,7.55820312 C7.68125,7.684375 7.76132812,7.8265625 7.8734375,7.94296875 C8.021875,8.04804687 8.18828125,8.12578125 8.34296875,8.22148437 C8.634375,8.3828125 8.92070312,8.59023437 9.26328125,8.61992187 C9.63398437,8.64609375 9.98125,8.47929687 10.3011719,8.31132812 C11.0085937,7.9203125 11.6519531,7.42734375 12.3046875,6.95390625 C12.4207031,6.86679687 12.590625,6.89257812 12.6863281,6.99765625 C12.9496094,7.25703125 13.2085937,7.52070312 13.4710937,7.78125 C13.6753906,7.58867187 13.8597656,7.375 14.015625,7.14140625 L14.98125,5.70195312 C14.6519531,5.37226562 14.3226562,5.04257812 13.9921875,4.7140625 C13.8777344,4.60625 13.8414062,4.44804687 13.7734375,4.31171875 C13.5449219,3.83867187 13.2515625,3.39257812 12.88125,3.01835937 C12.5121094,2.64335937 12.0644531,2.35507812 11.6,2.11210937 C10.8914062,1.73984375 10.1222656,1.49023437 9.43554688,1.07421875 C9.15507812,0.921484375 8.88984375,0.738671875 8.5984375,0.607421875 C8.36210937,0.510546875 8.16445312,0.765234375 8.14101562,0.9765625 Z"></path></clipPath><clipPath id="i1"><path d="M2.22682656,0 C2.35885781,0.028515625 2.47643594,0.1359375 2.47877969,0.277734375 C2.49010781,0.44296875 2.34167031,0.5484375 2.24049844,0.655859375 C1.85456094,1.0390625 0.944901354,2.0580603 0.562088854,2.44438843 C0.493338854,2.50923218 0.418338854,2.5830603 0.317948229,2.58735718 C0.144510729,2.6080603 -0.0175986459,2.44595093 0.00154197911,2.27290405 C0.00505760411,2.17173218 0.0804482291,2.09673218 0.145682604,2.02798218 C0.512479479,1.6658728 1.40026406,0.665625 1.76432656,0.301171875 C1.87917031,0.18984375 1.98073281,0.0515625 2.13893594,0 L2.22682656,0 Z"></path></clipPath></defs><g clip-path="url(#i0)"><polygon points="0,0 20,0 20,20 0,20 0,0" stroke="none" fill="#000000"></polygon></g><g transform="translate(12.63606406039037 0.0)"><g clip-path="url(#i1)"><polygon points="5.55111512e-17,0 2.47939166,0 2.47939166,2.58914814 5.55111512e-17,2.58914814 5.55111512e-17,0" stroke="none" fill="#000000"></polygon></g></g></svg>