<?xml version="1.0" encoding="UTF-8"?><svg version="1.1" width="13px" height="16px" viewBox="0 0 13.0 16.0" xmlns="http://www.w3.org/2000/svg" xmlns:xlink="http://www.w3.org/1999/xlink"><defs><clipPath id="i0"><path d="M7.80815356,0.201508428 C8.77903106,0.505267449 9.63240088,1.16561314 10.1708366,2.02846485 C10.7018223,2.87032096 10.9293876,3.89842841 10.7993502,4.88556057 C10.6720221,5.90283158 10.1674502,6.86625902 9.40483559,7.55132535 C10.295117,7.87472542 11.1007388,8.42907716 11.7116432,9.15376424 C12.5467266,10.1344623 13.0177731,11.4206125 12.9994867,12.7094718 C12.9828933,13.242828 12.517265,13.7115041 11.9842475,13.7314838 C11.5034859,13.7390264 8.93462729,13.8166313 8.32193798,13.8227571 C8.30837221,13.8487671 8.28850384,13.8737312 8.26836372,13.8984327 C7.83626058,14.4250161 7.28427931,14.8540715 6.66592483,15.1402213 C6.56230135,15.1903398 6.43768226,15.1916944 6.3350747,15.1385281 C5.69125263,14.8382815 5.11303913,14.3881375 4.67704107,13.8265864 L4.75769509,13.8256254 C4.38519238,13.8303663 1.79325087,13.7335156 1.42074817,13.7348702 C1.17929869,13.7318224 0.928367325,13.7568817 0.699447484,13.663756 C0.295112734,13.5157709 0.0032060727,13.1073724 7.80602109e-05,12.6759466 C-0.00559853659,11.6417436 0.298499122,10.6088952 0.856914534,9.73893211 C1.49660326,8.73486802 2.47560809,7.95362826 3.59650258,7.5526799 C2.85217445,6.88149776 2.35065036,5.94719326 2.21079253,4.95396561 C2.06619376,3.97902445 2.27174752,2.95768977 2.77868983,2.11278592 C3.29850042,1.23571138 4.13967924,0.555385994 5.10615443,0.230970006 C5.97273117,-0.0677094323 6.93480405,-0.075836764 7.80815356,0.201508428 Z M7.47933527,10.8496674 C7.20232872,10.8865791 6.97307024,11.0707986 6.78817344,11.2692409 C6.68861363,11.3833622 6.52098741,11.4344967 6.37706592,11.3806531 C6.24635133,11.3406937 6.18099404,11.2116723 6.08312742,11.1273513 C5.90026246,10.9648046 5.66253801,10.8554243 5.41634759,10.8476356 C5.11631359,10.8561016 4.88908695,11.1077102 4.79257488,11.3735417 C4.60463034,11.884209 4.70757654,12.4615882 4.95715335,12.9329735 C5.297824,13.5753713 5.86199627,14.0816363 6.50066908,14.4182433 C6.92024258,14.2001599 7.30087261,13.9062214 7.61411352,13.5520052 C7.99575947,13.120918 8.28326383,12.57808 8.30527535,11.9932507 C8.31204813,11.6789939 8.25041586,11.3444188 8.04892576,11.093826 C7.91550207,10.924168 7.69674139,10.8185127 7.47933527,10.8496674 Z M8.66829616,8.0917929 C7.91380887,8.52897562 7.02691381,8.73486802 6.15728932,8.66239931 C5.5159074,8.61295804 4.89010286,8.41146795 4.33304201,8.0917929 C3.2930822,8.33798332 2.34590942,8.95159686 1.69707744,9.80090302 C1.0729661,10.6075407 0.72349084,11.6224412 0.722474923,12.6424213 C0.712993036,12.8357841 0.883328362,13.0135695 1.07736841,13.0108604 C1.4672283,13.0151892 3.27394227,13.0700967 4.23375317,13.0951108 C4.02858367,12.6468591 3.93250251,12.1496166 3.98763041,11.6593529 C4.0319921,11.2357157 4.19589329,10.8110626 4.50608644,10.5110286 C4.78681802,10.2336834 5.19284597,10.0843437 5.58668291,10.1307372 C5.92667629,10.1659557 6.23957856,10.3305341 6.50134636,10.5442152 C6.81153952,10.2858338 7.2057151,10.1043234 7.61648399,10.1243031 C8.04215299,10.1405578 8.44276271,10.3809913 8.68184171,10.7297893 C8.98323026,11.1622311 9.06856725,11.7142123 9.01167592,12.2302979 C8.97912676,12.5296516 8.89462663,12.8191099 8.77181173,13.0922808 C9.05943614,13.0842025 9.4285746,13.0743127 9.81216328,13.0639556 L10.3442745,13.0495804 C11.0496838,13.0305674 11.706225,13.0132685 11.9229538,13.0108604 C12.1176712,13.0142468 12.2883451,12.8361227 12.2788632,12.6420827 C12.2764928,11.8676157 12.0766959,11.0948419 11.7048704,10.4158711 C11.0804205,9.25874227 9.94936681,8.39081098 8.66829616,8.0917929 Z M6.31069271,0.737573678 C5.20232785,0.78870814 4.13697013,1.38843749 3.51759973,2.3088578 C3.03266894,3.01491973 2.81323099,3.89775113 2.91211352,4.74875048 C2.99169365,5.47479211 3.3018868,6.17238808 3.78444712,6.72064432 C4.33202609,7.34915797 5.10344532,7.77922927 5.92803084,7.9085893 C6.75634139,8.04506074 7.62969091,7.87607997 8.34963703,7.44465412 C9.12884496,6.98342805 9.72180153,6.2170884 9.96900786,5.34543208 C10.1471319,4.73249582 10.1579683,4.07215012 9.999824,3.45379564 C9.78546562,2.6011031 9.24838446,1.83239298 8.51489278,1.34610764 C7.87181766,0.911634031 7.08549832,0.695243826 6.31069271,0.737573678 Z"></path></clipPath></defs><g clip-path="url(#i0)"><polygon points="-1.26305487e-15,2.77555756e-17 13,2.77555756e-17 13,15.1781066 -1.26305487e-15,15.1781066 -1.26305487e-15,2.77555756e-17" stroke="none" fill="#000000"></polygon></g></svg>