<?xml version="1.0" encoding="UTF-8"?><svg version="1.1" fill="#7dbb3e" width="23px" height="23px" viewBox="0 0 23.0 23.0" xmlns="http://www.w3.org/2000/svg" xmlns:xlink="http://www.w3.org/1999/xlink"><defs><clipPath id="i0"><path d="M11.7807617,0 C13.393457,0.044921875 14.9989648,0.417324219 16.4544336,1.11720703 C18.8649414,2.2640625 20.8482422,4.27835937 21.9573633,6.70638672 C22.6091797,8.11828125 22.9546289,9.66449219 23,11.2174414 L23,11.8090625 C22.9460937,13.4648828 22.5534766,15.1135156 21.810918,16.5963867 C21.0319727,18.1753906 19.8819727,19.5688672 18.4835547,20.6380078 C17.1570117,21.6545898 15.6063086,22.3796289 13.9720508,22.7331641 C13.2528516,22.8957812 12.516582,22.97125 11.7807617,23 L11.2241797,23 C9.47941406,22.9514844 7.74318359,22.5170898 6.195625,21.70625 C3.84216797,20.4870703 1.93613281,18.42875 0.906523437,15.9858984 C0.345,14.6705859 0.048515625,13.2488086 0,11.8207422 L0,11.1895898 C0.0642382813,8.95248047 0.781191406,6.73333984 2.07763672,4.90546875 C2.95630859,3.64720703 4.09238281,2.57177734 5.39017578,1.75330078 C7.10664062,0.668886719 9.11599609,0.0705273437 11.1428711,0 L11.7807617,0 Z M6.44,2.71058594 C4.96296875,3.55691406 3.70919922,4.786875 2.82558594,6.24144531 C1.96578125,7.64929687 1.46041016,9.271875 1.37011719,10.9191602 C1.27982422,12.5201758 1.56912109,14.1436523 2.22453125,15.6081055 C2.83322266,16.9804687 3.75277344,18.2140234 4.89244141,19.1910742 C6.64978516,20.7130273 8.94574219,21.6002344 11.2713477,21.6415625 C12.1172266,21.6806445 12.9743359,21.4937695 13.7204883,21.0917187 C14.4401367,20.7094336 15.0569141,20.1371289 15.4944531,19.4502734 C16.0460937,18.5900195 16.3039453,17.5469336 16.2185937,16.5290039 C16.1377344,15.4773828 15.6867187,14.46125 14.9670703,13.6908398 C14.1279297,12.779375 12.919082,12.2200977 11.6796875,12.1810156 C11.3207617,12.1742773 10.9609375,12.1657422 10.6060547,12.1095898 C9.20449219,11.9056445 7.88693359,11.187793 6.94941406,10.1267383 C6.05142578,9.12228516 5.50248047,7.81191406 5.42431641,6.46605469 C5.33851562,5.14849609 5.69699219,3.80353516 6.44,2.71058594 Z M11.3203125,1.35708984 C10.2942969,1.39167969 9.28580078,1.77755859 8.495625,2.43162109 C7.62144531,3.14722656 7.015,4.183125 6.83126953,5.29853516 C6.64753906,6.3753125 6.8496875,7.51408203 7.40222656,8.45744141 C8.00103516,9.49558594 9.00683594,10.2911523 10.1577344,10.6285156 C10.6065039,10.7632812 11.0759375,10.8234766 11.5440234,10.824375 C12.5053516,10.8306641 13.4644336,11.0678516 14.3157031,11.5148242 C15.5919336,12.1810156 16.6179492,13.3125977 17.1516211,14.6503711 C17.62375,15.8214844 17.7149414,17.1412891 17.4112695,18.3667578 C17.2450586,19.0527148 16.9494727,19.7031836 16.5635937,20.2925586 C18.5603711,19.1367187 20.1501562,17.2899805 20.973125,15.1323828 C21.7668945,13.0843945 21.8589844,10.7758594 21.242207,8.66857422 C20.4857227,6.02941406 18.5994531,3.7446875 16.1592969,2.48957031 C14.6746289,1.71511719 12.9941016,1.32339844 11.3203125,1.35708984 Z"></path></clipPath><clipPath id="i1"><path d="M3.26018135,0.417864448 C3.71164619,0.761067573 4.00768135,1.30013007 4.04945869,1.86659492 C4.095279,2.40161445 3.91424385,2.95100898 3.56070869,3.35530585 C3.17393135,3.80811835 2.5787165,4.07225898 1.98350166,4.05518867 C1.38693916,4.04665351 0.805650098,3.75331367 0.437739941,3.28477851 C0.055454785,2.80815742 -0.0896428712,2.1536457 0.0550055663,1.56022773 C0.22615791,0.802395698 0.871685254,0.181575385 1.63490791,0.0382746039 C2.197779,-0.0744793023 2.80691963,0.0647785102 3.26018135,0.417864448 Z M1.81594307,1.38638007 C1.52395088,1.48206367 1.31686104,1.79112617 1.35594307,2.09884101 C1.38738838,2.46180976 1.752154,2.7551496 2.11467354,2.69899726 C2.48348213,2.65811835 2.77008369,2.2758332 2.6937165,1.90971992 C2.63307197,1.51934882 2.18969307,1.2480207 1.81594307,1.38638007 Z"></path></clipPath><clipPath id="i2"><path d="M3.20493528,0.376760461 C3.61417356,0.667404993 3.90931028,1.11392843 4.01173215,1.60582296 C4.13436887,2.1673464 4.00140012,2.77783468 3.65550168,3.23693624 C3.30780637,3.70996359 2.74628293,4.01722921 2.16005247,4.05181906 C1.53743528,4.09674093 0.903138403,3.82990499 0.497493872,3.35597921 C0.0922985592,2.89687765 -0.081549097,2.24865499 0.0361462155,1.64849874 C0.173607153,0.881682336 0.793529028,0.233010461 1.55136106,0.0564674926 C2.11423215,-0.0814426636 2.73505247,0.0362526489 3.20493528,0.376760461 Z M1.77597043,1.40097921 C1.50329465,1.51058859 1.31731809,1.80842062 1.35640012,2.10310812 C1.39009153,2.46607687 1.75665403,2.75761984 2.11917356,2.69787374 C2.4987634,2.65385031 2.78581418,2.24730734 2.68698606,1.87490499 C2.60477903,1.48588156 2.14298215,1.23701437 1.77597043,1.40097921 Z"></path></clipPath></defs><g transform=""><g clip-path="url(#i0)"><polygon points="0,0 23,0 23,23 0,23 0,0" stroke="none" fill="#7dbb3e"></polygon></g><g transform="translate(9.471576464968281 4.059948052327259)"><g clip-path="url(#i1)"><polygon points="0,4.4408921e-16 4.05645682,4.4408921e-16 4.05645682,4.05596844 0,4.05596844 0,4.4408921e-16" stroke="none" fill="#7dbb3e"></polygon></g></g><g transform="translate(9.471568628258195 14.883649694889852)"><g clip-path="url(#i2)"><polygon points="5.55111512e-17,6.9388939e-18 4.05646959,6.9388939e-18 4.05646959,4.05671359 5.55111512e-17,4.05671359 5.55111512e-17,6.9388939e-18" stroke="none" fill="#7dbb3e"></polygon></g></g></g></svg>