<?xml version="1.0" encoding="UTF-8"?><svg version="1.1" width="20px" height="20px" viewBox="0 0 20.0 20.0" xmlns="http://www.w3.org/2000/svg" xmlns:xlink="http://www.w3.org/1999/xlink"><defs><clipPath id="i0"><path d="M15.2082031,0 C15.3089844,0.021875 15.4125,0.0625 15.475,0.14921875 C15.5601562,0.248046875 15.5601562,0.38515625 15.5613281,0.508203125 C15.5585938,0.937890625 15.5605469,1.3671875 15.5597656,1.79648438 C16.5070313,1.79765625 17.4542969,1.79609375 18.4011719,1.79726562 C18.5804688,1.78476562 18.7632812,1.89882813 18.8101563,2.07578125 C18.8414062,2.22851562 18.8253906,2.38554688 18.828125,2.54023437 C18.8277344,7.47460938 18.828125,12.4089844 18.828125,17.34375 C19.1019531,17.3484375 19.3761719,17.3347656 19.6496094,17.3488281 C19.8359375,17.359375 19.9804688,17.5234375 20,17.7039063 L20,19.6515625 C19.9742187,19.8351562 19.8234375,19.9820313 19.6386719,20 L11.715625,20 C11.6136719,19.9761719 11.5089844,19.9335938 11.446875,19.8445312 C11.3226563,19.6878906 11.3492188,19.4394531 11.5042969,19.3132812 C11.5933594,19.2296875 11.7203125,19.2171875 11.8367187,19.2179688 C14.2972656,19.2199219 16.7578125,19.2183594 19.21875,19.21875 L19.21875,18.125 L0.78125,18.125 L0.78125,19.21875 C3.25703125,19.2191406 5.7328125,19.2183594 8.20820313,19.2191406 C8.41328125,19.203125 8.61484375,19.3613281 8.6296875,19.5699219 C8.65703125,19.7765625 8.49414062,19.9648438 8.29453125,20 L0.3484375,20 C0.172265625,19.975 0.0328125,19.8371094 0,19.6632813 L0,17.7058594 C0.01796875,17.5261719 0.161328125,17.3605469 0.346875,17.3496094 C0.621484375,17.3339844 0.896875,17.3488281 1.171875,17.34375 L1.17109375,2.46210937 C1.17851563,2.29257812 1.1390625,2.096875 1.2515625,1.95273438 C1.33007812,1.8421875 1.46757812,1.79296875 1.59921875,1.79726562 C2.54609375,1.79609375 3.49335938,1.79765625 4.44023438,1.79648438 C4.43945312,1.36757812 4.44140625,0.93828125 4.43867187,0.509375 C4.43945312,0.386328125 4.43945312,0.250390625 4.5234375,0.151171875 C4.58125,0.0703125 4.6765625,0.031640625 4.76679687,0 L15.2082031,0 Z M18.046875,2.578125 L1.953125,2.578125 L1.953125,17.34375 L6.796875,17.34375 C6.79726562,16.5625 6.79648438,15.7808594 6.79726562,14.9996094 C6.796875,14.5183594 6.90585938,14.0371094 7.11757812,13.6046875 C7.440625,12.934375 8.00625,12.3859375 8.68398438,12.0800781 C9.25117188,11.8226563 9.89453125,11.7378906 10.5089844,11.8378906 C11.1152344,11.9328125 11.690625,12.2109375 12.1445312,12.6230469 C12.68125,13.1066406 13.0496094,13.7753906 13.1617188,14.4898438 C13.2018555,14.722168 13.2041992,14.9575684 13.2035217,15.192749 L13.203125,17.34375 L18.046875,17.34375 L18.046875,2.578125 Z M9.60898437,12.609375 C8.77148438,12.74375 8.03046875,13.3472656 7.7359375,14.1433594 C7.62617187,14.428125 7.57734375,14.734375 7.57851562,15.0390625 L7.578125,17.34375 L9.609375,17.34375 C9.60898437,15.765625 9.60976562,14.1875 9.60898437,12.609375 Z M10.3910156,12.6097656 C10.3902344,14.1875 10.390625,15.765625 10.390625,17.34375 L12.421875,17.34375 L12.421875,15.2734375 C12.4289062,14.9320313 12.4144531,14.5847656 12.3039063,14.2585938 C12.0386719,13.4085938 11.2699219,12.7480469 10.3910156,12.6097656 Z M14.7785156,0.78125 L5.22148438,0.78125 L5.22148438,1.796875 L14.7785156,1.796875 L14.7785156,0.78125 Z"></path></clipPath><clipPath id="i1"><path d="M2.2694654,0.002734375 C2.47649665,-0.001953125 2.66126228,0.18359375 2.6554029,0.390625 C2.6585279,1.0171875 2.65891853,1.64414062 2.6554029,2.27070312 C2.65930915,2.4765625 2.47532478,2.66054687 2.26907478,2.65546875 C1.64212165,2.65859375 1.01516853,2.65898437 0.388215402,2.65546875 C0.182356027,2.65976562 -0.000847097661,2.4765625 0.00305915234,2.27109375 C-0.00123772266,1.6578125 0.00227790234,1.04414062 0.00110602734,0.430859375 C-0.0117845977,0.26015625 0.0889966523,0.0875 0.251496652,0.027734375 C0.333918527,-0.00234375 0.423762277,0.001953125 0.510090402,0 C1.09641853,0.00390625 1.68313728,-0.00234375 2.2694654,0.002734375 Z M1.87610603,0.782421875 L0.782356027,0.782421875 L0.782356027,1.87617187 L1.87610603,1.87617187 L1.87610603,0.782421875 Z"></path></clipPath><clipPath id="i2"><path d="M2.27070313,0.003125 C2.4765625,-0.001171875 2.66015625,0.183203125 2.65507812,0.3890625 C2.65976562,1.00195313 2.65585937,1.61484375 2.65703125,2.22773437 C2.66445313,2.3703125 2.60117187,2.51757812 2.47734375,2.59375 C2.38203125,2.6609375 2.26015625,2.65703125 2.14882813,2.65859375 C1.57539063,2.65585938 1.0015625,2.65859375 0.427734375,2.65742187 C0.27734375,2.66601562 0.12265625,2.59140625 0.051171875,2.45664063 C0.0095703125,2.3875 0.00246582031,2.3078125 0.000854492188,2.22878418 L0,2.15039063 C0.003515625,1.56328125 -0.002734375,0.97578125 0.002734375,0.388671875 C0,0.230859375 0.105859375,0.081640625 0.253125,0.026953125 C0.334375,-0.001953125 0.422265625,0.001953125 0.507421875,0 C1.0953125,0.00390625 1.68320312,-0.00234375 2.27070313,0.003125 Z M1.87578125,0.782421875 L0.78203125,0.782421875 L0.78203125,1.87617187 L1.87578125,1.87617187 L1.87578125,0.782421875 Z"></path></clipPath><clipPath id="i3"><path d="M0.507344831,0 L2.26906358,0.002734375 C2.47492296,-0.001953125 2.65968858,0.181640625 2.65539171,0.387890625 C2.66086046,0.9625 2.65461046,1.53710937 2.65812608,2.11132813 L2.65603233,2.26371562 C2.65186046,2.34023437 2.63812608,2.41523437 2.59289171,2.4796875 C2.51632921,2.60195313 2.37023546,2.66484375 2.22843858,2.65742188 C1.61554796,2.65625 1.00226671,2.66015625 0.388985456,2.65546875 C0.183126081,2.66054688 -0.00124891929,2.4765625 0.00265733071,2.27070312 C-0.00124891929,1.65742188 0.00226670571,1.04375 0.00109483071,0.430078125 C-0.0117957943,0.258984375 0.0901573307,0.0859375 0.253438581,0.026953125 C0.334297956,-0.001953125 0.422188581,0.001953125 0.507344831,0 Z M1.87609483,0.782421875 L0.782344831,0.782421875 L0.782344831,1.87617188 L1.87609483,1.87617188 L1.87609483,0.782421875 Z"></path></clipPath><clipPath id="i4"><path d="M2.26972581,0.002734375 C2.47519456,-0.0015625 2.65956956,0.18203125 2.65527268,0.387890625 C2.65878831,1.015625 2.65878831,1.64335937 2.65527268,2.27109375 C2.65878831,2.47734375 2.47402268,2.6609375 2.26777268,2.65546875 C1.64121018,2.65859375 1.01464768,2.65898437 0.388085181,2.65546875 C0.182616431,2.65976562 -0.00136794384,2.4765625 0.00292893116,2.27109375 C-0.00175856884,1.65664062 0.00214768116,1.0421875 0.000975806158,0.42734375 C-0.0111335688,0.2578125 0.0904289312,0.08671875 0.251757056,0.027734375 C0.333788306,-0.001953125 0.422460181,0.001953125 0.508788306,0 C1.09550706,0.00390625 1.68261643,-0.00234375 2.26972581,0.002734375 Z M1.87597581,0.782421875 L0.782225806,0.782421875 L0.782225806,1.87617187 L1.87597581,1.87617187 L1.87597581,0.782421875 Z"></path></clipPath><clipPath id="i5"><path d="M2.2703125,0.002734375 C2.4765625,-0.001171875 2.6609375,0.183984375 2.65507812,0.390625 C2.65820312,1.01679688 2.65859375,1.64375 2.65507812,2.26992188 C2.659375,2.4765625 2.47460937,2.66054688 2.26796875,2.65546875 C1.65507812,2.66015625 1.04179687,2.65625 0.428515625,2.65742188 C0.27734375,2.66601563 0.121875,2.59101563 0.050390625,2.4546875 C0.0087890625,2.38525391 0.00212402344,2.30505371 0.000732421875,2.22562256 L0,2.146875 C0.003515625,1.56054688 -0.002734375,0.97421875 0.002734375,0.38828125 C0.000390625,0.230859375 0.105859375,0.081640625 0.252734375,0.02734375 C0.33515625,-0.002734375 0.42421875,0.001953125 0.510546875,0 C1.096875,0.00390625 1.68359375,-0.00234375 2.2703125,0.002734375 Z M1.87578125,0.782421875 L0.78203125,0.782421875 L0.78203125,1.87617188 L1.87578125,1.87617188 L1.87578125,0.782421875 Z"></path></clipPath><clipPath id="i6"><path d="M2.27304687,0.003125 C2.47773437,0 2.659375,0.18359375 2.65507812,0.38828125 C2.66054687,0.975 2.65429687,1.56171875 2.6578125,2.14882813 C2.65703125,2.26132813 2.6609375,2.38398438 2.5921875,2.48007812 C2.515625,2.6015625 2.37070312,2.66445313 2.2296875,2.65703125 L0.42734375,2.65742188 C0.276171875,2.665625 0.12109375,2.590625 0.05,2.45429688 C0.008984375,2.38544922 0.00224609375,2.30649414 0.00078125,2.22814331 L0,2.15039062 C0.003515625,1.56289062 -0.002734375,0.975390625 0.002734375,0.38828125 C0.00078125,0.231640625 0.104296875,0.08359375 0.25,0.028515625 C0.3328125,-0.002734375 0.42265625,0.001953125 0.509765625,0 C1.09726562,0.00390625 1.68515625,-0.00234375 2.27304687,0.003125 Z M1.87578125,0.782421875 L0.78203125,0.782421875 L0.78203125,1.87617188 L1.87578125,1.87617188 L1.87578125,0.782421875 Z"></path></clipPath><clipPath id="i7"><path d="M2.27252796,0.003125 C2.47721546,-0.000390625 2.65963733,0.1828125 2.65534046,0.387890625 C2.66080921,0.973828125 2.65455921,1.56015625 2.65807483,2.14609375 C2.65690296,2.25898437 2.66198108,2.38203125 2.59323108,2.47890625 C2.51666858,2.60234375 2.36940296,2.66484375 2.22682483,2.65742187 C1.61393421,2.65625 1.00065296,2.66015625 0.387762333,2.65546875 C0.182293583,2.65976562 -0.00130016743,2.4765625 0.00299670757,2.27109375 C-0.00130016743,1.65703125 0.00221545757,1.04296875 0.00104358257,0.428515625 C-0.0114564174,0.259375 0.0893248326,0.087890625 0.250262333,0.028125 C0.332293583,-0.00234375 0.421356083,0.001953125 0.507293583,0 C1.09557483,0.00390625 1.68424671,-0.00234375 2.27252796,0.003125 Z M1.87604358,0.782421875 L0.782293583,0.782421875 L0.782293583,1.87617187 L1.87604358,1.87617187 L1.87604358,0.782421875 Z"></path></clipPath><clipPath id="i8"><path d="M2.27181281,0.003125 C2.47806281,-0.00078125 2.66165656,0.18515625 2.65540656,0.391796875 C2.65970344,1.00390625 2.65657844,1.61679687 2.65696906,2.22890625 C2.66439094,2.37070312 2.60110969,2.51757812 2.47845344,2.59335937 C2.38314094,2.6609375 2.26126594,2.65703125 2.14993781,2.65859375 C1.56282844,2.6546875 0.976109685,2.6609375 0.389390935,2.65546875 C0.182359685,2.66054687 -0.00201531499,2.47578125 0.00267218501,2.26953125 C-0.00123406499,1.65703125 0.00228156001,1.04414062 0.00110968501,0.431640625 C-0.01178094,0.2609375 0.088609685,0.0875 0.25150031,0.027734375 C0.33353156,-0.00234375 0.42337531,0.001953125 0.509703435,0 C1.09720344,0.00390625 1.68431281,-0.00234375 2.27181281,0.003125 Z M1.87610969,0.782421875 L0.782359685,0.782421875 L0.782359685,1.87617187 L1.87610969,1.87617187 L1.87610969,0.782421875 Z"></path></clipPath><clipPath id="i9"><path d="M0.5109375,0 C1.096875,0.00390625 1.68320312,-0.001953125 2.26914062,0.002734375 C2.47539062,-0.001953125 2.66015625,0.182421875 2.65507812,0.3890625 C2.65859375,1.015625 2.65820312,1.6421875 2.65507812,2.26875 C2.65976562,2.47421875 2.47734375,2.65898437 2.27148437,2.65546875 C1.65742187,2.66015625 1.04296875,2.65625 0.42890625,2.65742187 C0.278125,2.66601562 0.12265625,2.59179687 0.05078125,2.45585937 C0.00947265625,2.38671875 0.00244140625,2.30703125 0.000848388672,2.22800293 L0,2.14960937 C0.003515625,1.56210937 -0.002734375,0.97421875 0.002734375,0.38671875 C0.001171875,0.23046875 0.10546875,0.0828125 0.25078125,0.027734375 C0.333984375,-0.002734375 0.423828125,0.001953125 0.5109375,0 Z M1.87578125,0.782421875 L0.78203125,0.782421875 L0.78203125,1.87617187 L1.87578125,1.87617187 L1.87578125,0.782421875 Z"></path></clipPath><clipPath id="i10"><path d="M0.506895751,0 C1.09400513,0.00390625 1.68150513,-0.001953125 2.26900513,0.002734375 C2.47603638,-0.001953125 2.66158325,0.18359375 2.65533325,0.39140625 C2.65963013,1.0046875 2.65650513,1.61796875 2.65689575,2.23164062 C2.663927,2.37226562 2.60064575,2.5171875 2.47916138,2.59296875 C2.3842395,2.66054687 2.2623645,2.65742187 2.151427,2.65859375 C1.56431763,2.6546875 0.977208251,2.6609375 0.390489501,2.65546875 C0.183848876,2.6609375 -0.00130737424,2.47773437 0.00298950076,2.27109375 C-0.00169799924,1.65742187 0.00220825076,1.04296875 0.00103637576,0.429296875 C-0.0114636242,0.25859375 0.0900988758,0.086328125 0.252208251,0.02734375 C0.333458251,-0.001953125 0.421739501,0.001953125 0.506895751,0 Z M1.87603638,0.782421875 L0.782286376,0.782421875 L0.782286376,1.87617187 L1.87603638,1.87617187 L1.87603638,0.782421875 Z"></path></clipPath><clipPath id="i11"><path d="M0.777146562,0.348791268 C0.806052812,0.555822518 0.643552812,0.745275643 0.443943437,0.781603768 L0.346677812,0.781603768 C0.213084062,0.755041268 0.0845684365,0.676525643 0.0330059365,0.545275643 C-0.0634784385,0.341369393 0.0615215615,0.0757443934 0.278709062,0.0179318934 C0.501365312,-0.0574587316 0.759959062,0.114806893 0.777146562,0.348791268 Z"></path></clipPath></defs><g clip-path="url(#i0)"><polygon points="0,0 20,0 20,20 0,20 0,0" stroke="none" fill="#000000"></polygon></g><g transform="translate(3.045768972661244 4.295703125)"><g clip-path="url(#i1)"><polygon points="-4.33680869e-19,0 2.65789529,0 2.65789529,2.65796113 -4.33680869e-19,2.65796113 -4.33680869e-19,0" stroke="none" fill="#000000"></polygon></g></g><g transform="translate(6.79609375 4.295703125)"><g clip-path="url(#i2)"><polygon points="0,0 2.65761705,0 2.65761705,2.65859375 0,2.65859375 0,0" stroke="none" fill="#000000"></polygon></g></g><g transform="translate(10.54578016929324 4.295703125)"><g clip-path="url(#i3)"><polygon points="0,0 2.65812608,0 2.65812608,2.65801106 0,2.65801106 0,0" stroke="none" fill="#000000"></polygon></g></g><g transform="translate(14.29589919384198 4.295703125)"><g clip-path="url(#i4)"><polygon points="-1.08420217e-19,0 2.6579094,0 2.6579094,2.65796113 -1.08420217e-19,2.65796113 -1.08420217e-19,0" stroke="none" fill="#000000"></polygon></g></g><g transform="translate(3.0460937499999985 8.045703125)"><g clip-path="url(#i5)"><polygon points="0,0 2.65757051,0 2.65757051,2.65808753 0,2.65808753 0,0" stroke="none" fill="#000000"></polygon></g></g><g transform="translate(6.796093750000001 8.045703125)"><g clip-path="url(#i6)"><polygon points="0,0 2.6578125,0 2.6578125,2.65803109 0,2.65803109 0,0" stroke="none" fill="#000000"></polygon></g></g><g transform="translate(10.54583141743024 8.045703125)"><g clip-path="url(#i7)"><polygon points="-2.16840434e-19,0 2.65807483,0 2.65807483,2.65801407 -2.16840434e-19,2.65801407 -2.16840434e-19,0" stroke="none" fill="#000000"></polygon></g></g><g transform="translate(14.2957653149886 8.045703125)"><g clip-path="url(#i8)"><polygon points="-2.16840434e-19,0 2.65770332,0 2.65770332,2.65859375 -2.16840434e-19,2.65859375 -2.16840434e-19,0" stroke="none" fill="#000000"></polygon></g></g><g transform="translate(3.0460937500000003 11.795703125)"><g clip-path="url(#i9)"><polygon points="0,0 2.65757051,0 2.65757051,2.6580937 0,2.6580937 0,0" stroke="none" fill="#000000"></polygon></g></g><g transform="translate(14.295838624240417 11.795703125)"><g clip-path="url(#i10)"><polygon points="2.16840434e-19,0 2.65763001,0 2.65763001,2.65859375 2.16840434e-19,2.65859375 2.16840434e-19,0" stroke="none" fill="#000000"></polygon></g></g><g transform="translate(9.609572188471875 19.21839623158726)"><g clip-path="url(#i11)"><polygon points="-3.46944695e-17,-2.77555756e-17 0.7804903,-2.77555756e-17 0.7804903,0.781603768 -3.46944695e-17,0.781603768 -3.46944695e-17,-2.77555756e-17" stroke="none" fill="#000000"></polygon></g></g></svg>