<?xml version="1.0" encoding="UTF-8"?><svg version="1.1" width="20px" height="28px" viewBox="0 0 20.0 28.0" xmlns="http://www.w3.org/2000/svg" xmlns:xlink="http://www.w3.org/1999/xlink"><defs><clipPath id="i0"><path d="M12.9776738,0.000156928369 C13.334116,-0.00310252022 13.6974239,0.0438128303 14.0218264,0.197145927 C14.7713277,0.523836966 15.3039886,1.29164673 15.3394612,2.10980467 C15.3543368,2.67679385 15.3423219,3.24435516 15.3451826,3.81191647 C16.2760518,4.40694043 17.2137867,4.99223804 18.1440837,5.58783413 C18.327168,5.68967477 18.4107002,5.93683857 18.3031382,6.12278356 C17.9163726,6.78474771 17.2200802,7.25275694 16.4648575,7.37633884 C16.0941118,7.44156262 15.7159283,7.40437362 15.3463269,7.35516972 C15.3457547,7.46444815 15.3451826,7.57372659 15.3457547,7.68357717 C15.876127,7.68186075 16.4030665,7.98394984 16.6204791,8.47656102 C16.7972699,8.83014257 16.7503545,9.23693298 16.6771208,9.61053937 C16.5855787,10.134046 16.2749075,10.6140702 15.8343609,10.9104379 C15.5408539,11.1152634 15.1889888,11.2028006 14.8571485,11.3246661 C14.4669501,12.3928485 13.8250108,13.3654838 12.9954101,14.1430199 C14.6065519,14.618467 16.2205544,15.0870483 17.8299797,15.5687889 C19.0698037,15.9601316 19.9789316,17.1850799 19.9955237,18.4855506 L19.9987419,22.5992258 L19.9989565,26.7129011 C20.0075386,26.8742441 19.9646282,27.0550398 19.8164443,27.1431492 C19.6099024,27.2890445 19.2837835,27.1763332 19.2185597,26.9308858 C19.17851,26.7260602 19.2019677,26.5149412 19.1973906,26.3078271 C19.1962463,23.712035 19.2002513,21.1168152 19.1956741,18.5210231 C19.1905249,17.5443829 18.5102523,16.6198072 17.5776667,16.3285887 C16.4276685,15.9813007 15.272521,15.6500325 14.1208064,15.3101823 C13.7752347,17.4185124 13.4308074,19.5268425 13.0863801,21.6357447 C13.2711808,21.636889 13.4565536,21.6231577 13.6407822,21.6460432 C13.8410307,21.6746501 13.9777717,21.8754707 13.9634683,22.0717142 C13.9657568,23.6365128 13.9651847,25.2018835 13.9634683,26.7672542 C13.986926,27.001831 13.7866775,27.2226764 13.5486679,27.2066565 C11.1823034,27.2089451 8.81593891,27.2089451 6.4495744,27.2066565 C6.21442551,27.2221043 6.01417706,27.0052638 6.03591832,26.7724035 C6.03420191,25.2058885 6.03420191,23.6393735 6.03591832,22.0728585 C6.02047058,21.8754707 6.1577838,21.6729337 6.35974867,21.6454711 C6.54283296,21.6237298 6.72820581,21.636889 6.91243438,21.6357447 L5.87858026,15.3096102 C4.72343278,15.6506047 3.56714103,15.9870221 2.41313784,16.3320215 C1.48512932,16.6261007 0.806001012,17.5483878 0.80314032,18.5227396 C0.799135351,21.2695761 0.804284596,24.0169848 0.800851766,26.7638214 C0.82488158,26.9955374 0.630926655,27.2215321 0.394061348,27.2100894 C0.16520598,27.2135222 -0.0190225918,26.9961096 0.00157439141,26.7718313 C0.00157439141,24.0072585 -0.00300271596,21.2421135 0.00386294509,18.4769685 C0.022743513,17.1793585 0.93358788,15.9607037 2.17055115,15.5705053 C3.77997653,15.0881926 5.39397901,14.6224719 7.00454867,14.1435921 C6.17380368,13.3649117 5.52957582,12.3911321 5.14052169,11.3212333 C4.82241273,11.2062334 4.48656748,11.1221291 4.2010704,10.9344677 C3.72390696,10.6272293 3.39035026,10.1100162 3.31082302,9.54760415 C3.23873358,9.179147 3.21241521,8.77636155 3.39893234,8.43593919 C3.62664343,7.96621355 4.13813518,7.68300503 4.6536319,7.68414931 L4.65305976,7.35574185 C4.2828862,7.40437362 3.90413056,7.44213476 3.53338487,7.37633884 C2.78903278,7.25390122 2.10361095,6.79905117 1.71226827,6.15253475 C1.58353713,5.96544549 1.6590594,5.69367974 1.85701929,5.58840627 C2.78846064,4.99567087 3.72219055,4.40808471 4.6536319,3.8153493 C4.65592045,3.26609642 4.64848265,2.7162714 4.65649259,2.16644637 C4.67022391,1.55368612 4.95514884,0.955229335 5.4191531,0.555304579 C5.8242271,0.195429512 6.36489791,0.00147458715 6.90556872,0.00204672557 C8.92979446,-0.000813966532 10.9540202,0.00204672557 12.9776738,0.000156928369 Z M9.01733163,21.5207449 C8.91663527,21.7564659 8.83882445,22.0024854 8.72439676,22.2319129 C8.65459588,22.372659 8.49325284,22.4390271 8.34278044,22.4355942 C7.8404429,22.4401713 7.33810537,22.4338778 6.83633997,22.4367385 C6.83576783,23.7612389 6.83576783,25.0857394 6.83576783,26.410812 L13.1636188,26.410812 L13.1636188,22.4367385 C12.6607091,22.4338778 12.1577994,22.4401713 11.6554619,22.4355942 C11.5038452,22.4390271 11.3407858,22.3715147 11.2727013,22.2290523 C11.15999,22.0001969 11.0821792,21.7558938 10.982055,21.521317 C10.3269565,21.5207449 9.67185799,21.5207449 9.01733163,21.5207449 Z M12.2419038,14.7580687 C11.5215815,15.246675 10.6404883,15.494983 9.7702658,15.441202 C9.05223208,15.4034409 8.35365107,15.1551328 7.75691069,14.7580687 C7.38845355,14.8656308 7.02171282,14.9771978 6.65325568,15.0824712 C7.01027005,17.2663236 7.36728443,19.4507481 7.7242988,21.6351726 L8.10820368,21.6351726 C8.20890004,21.401168 8.28671087,21.1580091 8.39770572,20.9285816 C8.46750661,20.7809699 8.63628745,20.7128854 8.79248123,20.7197511 L11.2034725,20.7197511 C11.3613827,20.7117412 11.5313079,20.7809699 11.6016809,20.930298 C11.7126757,21.1585813 11.7910587,21.4017401 11.8906108,21.6351726 L12.2745157,21.6351726 C12.6321022,19.4507481 12.9891166,17.2663236 13.3461309,15.0824712 C12.9782459,14.9720485 12.6109331,14.8633422 12.2419038,14.7580687 Z M6.56686278,6.63942455 C6.16751016,6.72696173 5.82765994,6.96554345 5.45462568,7.12002082 C5.45691424,8.2007903 5.40599392,9.29872393 5.68348105,10.3543193 C6.05022178,11.8722026 6.97994672,13.2539168 8.27126313,14.1367264 C9.29424663,14.8175711 10.7131499,14.8135662 11.7349891,14.1332936 C13.0715045,13.2144393 14.0178214,11.7640684 14.354811,10.1809614 C14.5916763,9.17800273 14.5396117,8.14186005 14.5441888,7.12059296 C14.3616766,7.03877717 14.1808809,6.95181213 14.0040901,6.85798143 C13.4948869,6.58793209 12.879266,6.48838001 12.3197146,6.64686235 C11.940959,6.74755871 11.6491684,7.02790654 11.2887212,7.17094114 C10.7411847,7.41352784 10.1278523,7.44957256 9.53854974,7.39235871 C9.04136145,7.33800556 8.56877511,7.14290636 8.15569117,6.86541923 C7.69111477,6.55760876 7.09837937,6.50726058 6.56686278,6.63942455 Z M4.65305976,8.47656102 C4.37385621,8.49200876 4.0849263,8.67680947 4.06089649,8.97546573 C4.0580358,9.35422136 4.13241379,9.76558889 4.39731388,10.0539466 C4.5226122,10.2009862 4.695398,10.2948169 4.86417883,10.3829262 C4.73430341,9.75529039 4.66278611,9.11735605 4.65305976,8.47656102 Z M15.3463269,8.47656102 C15.3366005,9.11735605 15.2645111,9.75529039 15.1352078,10.3829262 C15.3051329,10.2965333 15.4767744,10.2009862 15.6026449,10.0533745 C15.8664007,9.76387247 15.9419229,9.35307708 15.937918,8.97374931 C15.913316,8.67623733 15.6249583,8.49029234 15.3463269,8.47656102 Z M14.4034427,4.43554735 C11.3693927,4.43840804 8.33591477,4.43611949 5.30243686,4.43669163 C5.13079534,4.42410458 5.00091992,4.55226359 4.86246242,4.63236297 C4.12039889,5.10723786 3.37204183,5.5723864 2.62940616,6.04611701 C2.92405745,6.34248471 3.31025088,6.55417593 3.72962834,6.59823058 C4.3618413,6.65887726 5.00606916,6.49925064 5.55589419,6.18514664 C6.32027112,5.75547069 7.27917511,5.63017238 8.10763154,5.94713706 C8.51213341,6.09246022 8.83424734,6.40713635 9.25419694,6.51755907 C9.73650963,6.65143946 10.2617327,6.65086732 10.7440454,6.51755907 C11.163995,6.40656421 11.4861089,6.09246022 11.8906108,5.94713706 C12.7196394,5.62960024 13.6791155,5.75547069 14.4446367,6.18686306 C14.9944617,6.50039491 15.6386896,6.65887726 16.2714747,6.59823058 C16.69028,6.55417593 17.074757,6.34134043 17.3694083,6.04611701 C16.5695588,5.53348098 15.7628436,5.03114345 14.9629941,4.51907956 C14.8022232,4.39435339 14.590532,4.44527371 14.4034427,4.43554735 Z M6.84892702,0.804756931 C6.14348034,0.807045484 5.50497387,1.40493013 5.46206348,2.11037681 C5.44261078,2.61843573 5.46034707,3.12706678 5.45462568,3.63569784 L14.5447609,3.63569784 C14.5384674,3.12706678 14.557348,2.61786359 14.536751,2.10980467 C14.4938406,1.404358 13.854762,0.807045484 13.1493153,0.804756931 C11.0495673,0.799607685 8.94924716,0.800179823 6.84892702,0.804756931 Z"></path></clipPath><clipPath id="i1"><path d="M1.04894893,0.599775309 C1.01805345,0.981391636 0.523725855,1.19937637 0.220492491,0.964227483 C-0.113064208,0.751391991 -0.0569946431,0.188407784 0.313178916,0.0476617325 C0.667904737,-0.127984763 1.11817767,0.210149044 1.04894893,0.599775309 Z"></path></clipPath><clipPath id="i2"><path d="M1.04913646,0.600392121 C1.01766885,0.982008448 0.522196979,1.19942105 0.219535754,0.963700019 C-0.113448807,0.750292388 -0.056234965,0.187308181 0.313938594,0.0471342677 C0.669236553,-0.127367951 1.11836521,0.210765856 1.04913646,0.600392121 Z"></path></clipPath><clipPath id="i3"><path d="M3.60984352,0.0121956472 C3.90449481,0.0654045204 4.03036526,0.480204876 3.80379845,0.6815976 C3.26598833,1.17706947 2.51877555,1.43109893 1.7898712,1.38475572 C1.1748224,1.348711 0.57293278,1.09754223 0.118082735,0.682169739 C-0.0976134494,0.495080475 -0.000349917784,0.106026348 0.26855514,0.0259269693 C0.461937927,-0.0530281328 0.639300837,0.0785637041 0.781191166,0.194707804 C1.43972249,0.708488106 2.43524334,0.719930874 3.10464529,0.219309756 C3.25168487,0.111747733 3.40959507,-0.0450181949 3.60984352,0.0121956472 Z"></path></clipPath><clipPath id="i4"><path d="M0.800394829,0.437102792 C0.802683382,2.40640324 0.802111244,4.37570368 0.800394829,6.34500413 C0.820991812,6.57099881 0.631041856,6.78841141 0.401042211,6.78154575 C0.171042565,6.78898355 -0.0200516674,6.57099881 0.00168959264,6.34500413 C-2.68226208e-05,4.37684796 -2.68226208e-05,2.40869179 0.00168959264,0.440535623 C-0.0143302832,0.24600856 0.116689415,0.0520536348 0.31064434,0.0120039453 C0.565818076,-0.0560805269 0.827285335,0.176207672 0.800394829,0.437102792 Z"></path></clipPath><clipPath id="i5"><path d="M0.800480607,0.438794614 C0.802769161,2.40695078 0.802197023,4.37567909 0.800480607,6.3444074 C0.821649729,6.57040208 0.631699773,6.78838681 0.401700128,6.78152115 C0.170556205,6.78953109 -0.0205380273,6.57040208 0.00177537114,6.34326312 C5.89558748e-05,4.37510695 -0.000513182546,2.40580651 0.00177537114,0.437650337 C-0.0136723662,0.243695412 0.117919471,0.0514569028 0.310730119,0.0119793518 C0.566475993,-0.0561051204 0.829087528,0.176755217 0.800480607,0.438794614 Z"></path></clipPath><clipPath id="i6"><path d="M2.87547713,0.540161663 C3.23878503,0.930932205 3.38811315,1.50478704 3.26681981,2.02428873 C3.10376036,2.79781987 2.32679638,3.37682396 1.5378175,3.3030181 C0.696201881,3.26468483 -0.0212596992,2.49229796 0.000481560854,1.65068234 C-0.0166825918,0.824514458 0.674460621,0.0687196037 1.49719567,0.0075007926 C2.00639887,-0.0422752501 2.53391049,0.157973197 2.87547713,0.540161663 Z M1.44856391,0.826803012 C1.03948493,0.921205851 0.744833647,1.34973753 0.810057427,1.76568216 C0.857544916,2.19879095 1.27806666,2.54379041 1.71231972,2.50431286 C2.18891102,2.4825716 2.57910943,2.00483602 2.49786577,1.53282182 C2.44294048,1.04879272 1.91886169,0.694639037 1.44856391,0.826803012 Z"></path></clipPath></defs><g transform=""><g clip-path="url(#i0)"><polygon points="-5.55111512e-17,1.96354434e-15 20,1.96354434e-15 20,27.2105062 -5.55111512e-17,27.2105062 -5.55111512e-17,1.96354434e-15" stroke="none" fill="#000000"></polygon></g><g transform="translate(7.643980224080511 8.089049067108661)"><g clip-path="url(#i1)"><polygon points="-4.16333634e-16,-7.35522754e-16 1.05606162,-7.35522754e-16 1.05606162,1.06156446 -4.16333634e-16,1.06156446 -4.16333634e-16,-7.35522754e-16" stroke="none" fill="#000000"></polygon></g></g><g transform="translate(11.30547858074157 8.089004393497843)"><g clip-path="url(#i2)"><polygon points="-3.88578059e-16,-1.94289029e-16 1.05626481,-1.94289029e-16 1.05626481,1.06151429 -3.88578059e-16,1.06151429 -3.88578059e-16,-1.94289029e-16" stroke="none" fill="#000000"></polygon></g></g><g transform="translate(8.04046912847965 11.38513201543574)"><g clip-path="url(#i3)"><polygon points="-5.96744876e-16,-7.77156117e-16 3.92006167,-7.77156117e-16 3.92006167,1.39014566 -5.96744876e-16,1.39014566 -5.96744876e-16,-7.77156117e-16" stroke="none" fill="#000000"></polygon></g></g><g transform="translate(3.8772668799253744 20.42739932762918)"><g clip-path="url(#i4)"><polygon points="-3.33066907e-16,1.38777878e-15 0.802306554,1.38777878e-15 0.802306554,6.78173079 -3.33066907e-16,6.78173079 -3.33066907e-16,1.38777878e-15" stroke="none" fill="#000000"></polygon></g></g><g transform="translate(15.31994952746239 20.42742392111169)"><g clip-path="url(#i5)"><polygon points="-5.55111512e-17,-1.51788304e-15 0.802624911,-1.51788304e-15 0.802624911,6.78173422 -5.55111512e-17,6.78173422 -5.55111512e-17,-1.51788304e-15" stroke="none" fill="#000000"></polygon></g></g><g transform="translate(8.344587428394517 22.76851579288811)"><g clip-path="url(#i6)"><polygon points="0,8.67361738e-19 3.30825386,8.67361738e-19 3.30825386,3.30936175 0,3.30936175 0,8.67361738e-19" stroke="none" fill="#000000"></polygon></g></g></g></svg>