<?xml version="1.0" encoding="UTF-8"?><svg version="1.1" width="19px" height="19px" viewBox="0 0 19.0 19.0" xmlns="http://www.w3.org/2000/svg" xmlns:xlink="http://www.w3.org/1999/xlink"><defs><clipPath id="i0"><path d="M9.80578125,0 C10.6711719,0.0411914063 11.5354492,0.176640625 12.3600195,0.446054687 C12.5689453,0.5165625 12.7025391,0.748867188 12.6624609,0.96484375 C12.6346289,1.15039062 12.4854492,1.30884766 12.3025,1.34892578 C12.1611133,1.38529297 12.0212109,1.33 11.8872461,1.29103516 C10.5153125,0.889140625 9.04207031,0.842011719 7.64675781,1.15261719 C6.39394531,1.43056641 5.20384766,1.99240234 4.19707031,2.78839844 C3.08416016,3.66492188 2.19724609,4.82496094 1.63912109,6.12712891 C1.03683594,7.52021484 0.815292969,9.07621094 1.01197266,10.5813672 C1.21199219,12.1585156 1.85992187,13.6774023 2.86744141,14.9079492 C4.14845703,16.4873242 6.01246094,17.579082 8.015625,17.9264258 C9.69816406,18.2292383 11.4697656,18.0017578 13.0253906,17.2937109 C14.3160547,16.7144336 15.4556836,15.8041406 16.3080859,14.6752734 C17.3100391,13.3582617 17.9186328,11.7458594 18.0307031,10.0944922 C18.1004688,9.12148437 17.9950781,8.13808594 17.7341992,7.19847656 C17.6878125,7.01998047 17.5942969,6.83183594 17.6674023,6.64703125 C17.7445898,6.41398438 18.0203125,6.2759375 18.2529883,6.35498047 C18.422207,6.40359375 18.5424414,6.555 18.5817773,6.72310547 C18.8189063,7.52689453 18.9836719,8.36185547 18.9706836,9.203125 L18.9704517,9.3382959 C18.9719824,9.38338379 18.9784766,9.42763672 19,9.46845703 L19,9.51818359 C18.9892383,10.8819531 18.6957031,12.2446094 18.1219922,13.4829492 C17.5501367,14.7279688 16.7029297,15.8457031 15.6568164,16.7300195 C14.5568945,17.6677734 13.2402539,18.3465039 11.8404883,18.7049805 C11.1662109,18.8797656 10.4722656,18.9691992 9.77720703,19 L9.226875,19 C7.58330078,18.9421094 5.95382813,18.4659961 4.54998047,17.6069141 C2.50265625,16.3685742 0.969667969,14.3205078 0.342148438,12.0130469 C0.135078125,11.2749414 0.02671875,10.5112305 0,9.74529297 L0,9.22279297 C0.03265625,8.42642578 0.151035156,7.63265625 0.375175781,6.86708984 C0.854257812,5.19753906 1.7990625,3.66121094 3.08787109,2.49486328 C4.75705078,0.959277344 6.98992188,0.0601171875 9.2565625,0 L9.80578125,0 Z"></path></clipPath><clipPath id="i1"><path d="M6.92617651,0.100352326 C7.04682065,0.192816802 7.11066924,0.345067545 7.1065859,0.495832915 C7.10769953,0.961497384 7.10621468,1.42679051 7.10732832,1.89245498 C7.58396547,1.89394035 8.06060261,1.88985557 8.53723976,1.89394035 C8.75551284,1.89356901 8.95633893,2.06550094 8.99160414,2.2805087 C9.02464207,2.44315706 8.95745257,2.61286093 8.83792207,2.72463526 C7.90357963,3.65967763 6.96886597,4.59472 6.03415232,5.52939102 C5.94209156,5.62371222 5.81365196,5.68201311 5.68112901,5.67941371 C5.13618872,5.68127042 4.59087722,5.67978505 4.04556572,5.67978505 C3.98839896,5.66678804 3.95424739,5.71840475 3.91786854,5.75108296 C2.88626836,6.78601667 1.8520697,7.81872232 0.818613455,8.85217066 C0.669014725,9.01147692 0.408794601,9.04935394 0.224301874,8.9297814 C0.0442636996,8.82134917 -0.0448273556,8.58554619 0.0223621486,8.3857635 C0.0613394852,8.25467933 0.168991177,8.16407157 0.261423147,8.07049306 C1.27037935,7.06192472 2.27859312,6.05298504 3.2868069,5.04404536 C3.33803426,5.00394029 3.31390543,4.93264238 3.32058726,4.87768357 C3.31910241,4.3570603 3.31835998,3.83643703 3.32058726,3.31581375 C3.31910241,3.18398689 3.37664038,3.05661615 3.47092841,2.96600839 C4.41195269,2.02428184 5.35334817,1.08329798 6.29437244,0.141942773 C6.45547877,-0.0288751338 6.74428227,-0.0489276707 6.92617651,0.100352326 Z M6.15999343,1.61543289 C5.52856058,2.24671646 4.89712772,2.87800003 4.26643729,3.51002629 L4.26643729,4.73434507 C4.6747713,4.73434507 5.08273409,4.73508776 5.49106809,4.73397373 C6.1210161,4.10269016 6.75282016,3.47252062 7.38239695,2.8408657 C7.12477532,2.83752361 6.86715368,2.84606451 6.60990326,2.83715227 C6.37529682,2.82972541 6.16741769,2.62474392 6.16259192,2.38894094 C6.15591009,2.1312287 6.16222071,1.87314513 6.15999343,1.61543289 Z"></path></clipPath><clipPath id="i2"><path d="M6.97686386,0.0319473051 C7.23431953,0.0730910619 7.42732025,0.344348574 7.37561062,0.601041924 C7.34101616,0.788555506 7.17204949,0.940750995 6.98086954,0.952038221 C6.84686149,0.956771573 6.71431006,0.931648394 6.58066616,0.930556082 C5.49512817,0.909802152 4.40667696,1.220747 3.49447546,1.80877503 C2.51526994,2.43466988 1.7392614,3.37442242 1.31502397,4.45690373 C0.863110975,5.59545708 0.807031522,6.88438539 1.14969883,8.05971324 C1.44721126,9.08757895 2.05170407,10.0229622 2.86303538,10.7202215 C3.73445182,11.4746451 4.84511632,11.946888 5.99365266,12.048473 C7.00781681,12.1409554 8.04819991,11.953806 8.96112972,11.5001323 C9.87697274,11.0504638 10.6635417,10.3430097 11.2090418,9.48081131 C11.792778,8.56290502 12.09903,7.46986469 12.0698979,6.38228591 C12.0666205,6.19877747 12.0018014,5.99779204 12.1081339,5.83066829 C12.2385004,5.59072372 12.591364,5.52300037 12.8000232,5.70104725 C12.9456841,5.80809384 12.9831918,5.99633563 12.98829,6.16637221 C13.0917092,7.82340971 12.505424,9.50520628 11.415152,10.7544473 C10.4676278,11.8540415 9.14138511,12.6230292 7.71281565,12.8870046 C6.71139684,13.0756105 5.66518729,13.0286411 4.68671008,12.7420912 C3.68893279,12.4540849 2.76325765,11.9206725 2.01346808,11.2022952 C1.10527225,10.3393686 0.454167948,9.20846149 0.171221614,7.98762064 C-0.131024791,6.69978464 -0.032339519,5.31946621 0.461086841,4.09134328 C0.991292583,2.75326092 1.98360759,1.60596908 3.22755183,0.882858453 C4.0010113,0.430277128 4.86987868,0.14227083 5.76023104,0.0417781143 C6.16371179,0 6.57338312,-0.0219400932 6.97686386,0.0319473051 Z"></path></clipPath><clipPath id="i3"><path d="M4.27525509,0.0830356391 C4.48861433,0.216729211 4.56587862,0.521754429 4.43880436,0.739741602 C4.35016615,0.909112931 4.15916256,1.00752081 3.97011999,1.00046367 C3.42181811,1.00556049 2.87626167,1.16395405 2.41189155,1.45564912 C1.88319989,1.78576638 1.46040345,2.28368673 1.22508076,2.86080385 C0.948968794,3.52652727 0.927397547,4.29261888 1.16272024,4.97402483 C1.38157035,5.61661651 1.82750686,6.17883523 2.40365525,6.5387493 C2.92489502,6.87082689 3.55203,7.0307887 4.16857547,6.995503 C4.84591262,6.96021731 5.50677719,6.6849889 6.00919114,6.22980345 C6.62769763,5.67817045 6.99754646,4.86150267 7.00225292,4.033073 C6.98538812,3.77039061 7.19717855,3.51711775 7.4630932,3.50339553 C7.7258702,3.47477492 7.98237194,3.69001765 7.99884453,3.95348416 C8.02747546,5.09046762 7.52231607,6.22117806 6.67436996,6.9762919 C5.98095242,7.60437725 5.06044848,7.97370084 4.12504077,7.9976167 C3.12884136,8.03290239 2.12675888,7.67494864 1.37686389,7.01863474 C0.611280727,6.3584002 0.112396614,5.39784521 0.0194441491,4.39024263 C-0.0762537469,3.43752891 0.183777831,2.45345012 0.744630254,1.67638073 C1.42039859,0.721314629 2.53308274,0.0900927778 3.70224433,0.0120721887 C3.89324791,0.00383886021 4.10699936,-0.0330150864 4.27525509,0.0830356391 Z"></path></clipPath></defs><g clip-path="url(#i0)"><polygon points="0,0 19,0 19,19 0,19 0,0" stroke="none" fill="#000000"></polygon></g><g transform="translate(9.0 1.0)"><g clip-path="url(#i1)"><polygon points="-2.77555756e-17,-2.77555756e-17 9,-2.77555756e-17 9,9 -2.77555756e-17,9 -2.77555756e-17,-2.77555756e-17" stroke="none" fill="#000000"></polygon></g></g><g transform="translate(3.0 3.0)"><g clip-path="url(#i2)"><polygon points="2.77555756e-17,2.88758874e-05 13,2.88758874e-05 13,13 2.77555756e-17,13 2.77555756e-17,2.88758874e-05" stroke="none" fill="#000000"></polygon></g></g><g transform="translate(5.623136105513815 5.481365263385207)"><g clip-path="url(#i3)"><polygon points="0,0 8,0 8,8 0,8 0,0" stroke="none" fill="rgba(255,255,255,1)"></polygon></g></g></svg>