<?xml version="1.0" encoding="UTF-8"?><svg version="1.1" width="25px" height="25px" viewBox="0 0 25.0 25.0" xmlns="http://www.w3.org/2000/svg" xmlns:xlink="http://www.w3.org/1999/xlink"><defs><clipPath id="i0"><path d="M3.10720346,0.469182288 C3.43672905,0.762377206 3.65917476,1.15245392 3.82680577,1.55527825 C4.22771795,1.01860407 4.94859502,0.7464427 5.60063502,0.918535369 C6.09906638,1.03326382 6.49742904,1.43226386 6.6472134,1.91667285 C7.10485243,1.72928306 7.65554897,1.72673353 8.07558256,2.00973037 C8.52047398,2.29017768 8.74801873,2.81601639 8.7588542,3.3291075 C9.25346127,3.20099407 9.80861948,3.30424967 10.1948719,3.64588549 C10.6212793,4.00536795 10.793372,4.60195587 10.6862921,5.14181695 C11.1050509,5.26865562 11.445412,5.6211269 11.5250845,6.05645762 C11.6525606,6.63456151 11.3542666,7.22031397 10.9151116,7.58489547 C10.7806244,7.71938271 10.5690141,7.79586834 10.5097378,7.99154408 C9.70408912,10.2759149 9.88829201,12.7642474 9.17251398,15.0690144 C8.79900915,16.2857734 8.01375668,17.3801553 6.94869427,18.0838231 C6.02513027,18.6963455 4.87912057,18.9774302 3.77900225,18.8187225 C2.70055486,18.6689381 1.69221929,18.0647017 1.05738855,17.1793805 C0.375391679,16.2539043 0.161231913,15.0001774 0.530912462,13.9077076 C0.84960259,12.8560302 1.79993655,12.1160317 2.03576725,11.0312105 C2.19829921,10.3243558 1.74575923,9.6952615 1.40731031,9.11906975 C0.62588212,7.86598017 0.556407672,6.18903271 1.31680232,4.90981054 C0.730412482,4.27561718 0.218596136,3.5292449 0.0509651288,2.66814417 C-0.0669502187,2.07028149 0.0146344542,1.41951625 0.349259089,0.902600863 C0.663487555,0.407356403 1.20526077,0.0491486991 1.79547489,0.00580684161 C2.2728727,-0.0356228751 2.75600694,0.147305259 3.10720346,0.469182288 Z M1.69476881,0.990559338 C1.25561381,1.1339699 0.970067459,1.5858725 0.963056276,2.03841248 C0.906966813,2.79052118 1.34548443,3.45530879 1.80758512,4.00664271 C1.97330398,4.21761558 2.17089186,4.40309323 2.32513788,4.6236268 C2.44432799,4.79763161 2.39524971,5.02836326 2.27542222,5.18770833 C1.77507872,5.91049754 1.61318414,6.85254556 1.82798128,7.7034482 C1.90876923,8.01417108 2.04978961,8.29773558 2.20630506,8.57437604 L2.52674051,9.12442026 C2.68403276,9.4008217 2.82699516,9.68378866 2.91089034,9.99355546 C3.13397343,10.6876626 3.00777214,11.4512441 2.67123536,12.0867122 C2.28880721,12.8700526 1.62848126,13.5099823 1.39328795,14.3647093 C1.19570007,15.0983339 1.33911063,15.9090816 1.76743016,16.5356264 C2.33278645,17.38143 3.33474821,17.8996202 4.34818282,17.90922 C5.44065258,17.9142799 6.5248364,17.4209476 7.23296586,16.5872542 C8.12019918,15.5508739 8.51091328,14.1907045 8.70148997,12.8643161 L8.75423614,12.412211 L8.85215073,11.5040969 C8.99914655,10.1401131 9.16980512,8.77424703 9.67604438,7.49120058 C9.78631117,7.09793696 10.2445876,7.00105516 10.4593847,6.68300241 C10.5951467,6.52174521 10.6939407,6.18712057 10.4466371,6.08067807 C10.010669,5.92961895 9.64863703,6.41147842 9.2139437,6.27507905 C8.93158424,6.18648319 8.80155867,5.81297836 8.9685523,5.56822434 C9.13809545,5.28841441 9.57470092,5.34769077 9.70855078,5.03601183 C9.84686229,4.76321308 9.70408912,4.40309323 9.42874084,4.28071622 C9.18653635,4.16343826 8.9105507,4.27306766 8.70085259,4.40755489 C8.48223116,4.54331689 8.3840746,4.85754536 8.09852825,4.8785789 C7.77537646,4.92893194 7.47517036,4.5815597 7.59053618,4.26988076 C7.70653939,3.85175931 7.92006178,3.37818578 7.70016559,2.95751481 C7.52106174,2.64009944 7.06278533,2.70447485 6.83651534,2.93456912 C6.51973735,3.17677362 6.66314791,3.67201808 6.36166705,3.92378328 C6.11691303,4.13348138 5.69369254,4.00218105 5.61083311,3.69050211 C5.48973086,3.2290388 5.86897211,2.81346687 5.75998009,2.35264095 C5.74277082,2.05434699 5.491643,1.77644919 5.17677715,1.81979105 C4.69937934,1.82680223 4.39981062,2.30611219 4.38387611,2.74208028 C4.33607259,3.0384621 4.53620999,3.36671293 4.3488202,3.6356874 C4.17672753,3.8810788 3.84019075,3.85430883 3.57695271,3.874705 C3.31180252,3.88808998 3.08170825,3.64461073 3.09509323,3.38264744 C3.07278493,2.70192533 3.0995549,1.94025592 2.65338872,1.37489963 C2.43349253,1.0919028 2.0599877,0.868819709 1.69476881,0.990559338 Z"></path></clipPath><clipPath id="i1"><path d="M10.0046509,0.482570209 C10.5432372,0.948495176 10.7943651,1.68148247 10.7612213,2.38196337 C10.7299897,3.24752576 10.3481989,4.05253703 9.88418605,4.76704029 C10.847905,5.90922571 11.0512293,7.58489841 10.4775871,8.95271644 C10.2455807,9.56013982 9.91669244,10.2313012 10.1652707,10.8865281 C10.3405503,11.3526849 10.6501538,11.7250782 10.9833418,12.0818244 L11.3874007,12.5074086 C11.6548705,12.7927903 11.9090852,13.0881554 12.093346,13.4334996 C12.5242151,14.2130157 12.663164,15.1525142 12.4490042,16.0193513 C12.1902278,17.1194697 11.4189977,18.0710784 10.427234,18.6013788 C9.7598969,18.9627734 8.99249107,19.1265801 8.23528333,19.0940737 C6.92036786,19.0462702 5.65261853,18.4197254 4.77239639,17.4489953 C4.21213915,16.8422093 3.7876439,16.1226069 3.46640425,15.3647618 C2.62824921,13.4041802 2.39369327,11.2186033 1.33882895,9.34406792 C1.25150785,9.14711742 1.02332572,9.0993139 0.859518997,8.98649759 C0.331768144,8.68884101 -0.0640449951,8.09926428 0.00861635411,7.47718115 C0.0417601275,7.06734564 0.326031722,6.72570982 0.679140384,6.53768265 C0.493662729,6.05773531 0.542741009,5.48855474 0.852507814,5.0704333 C1.16546152,4.61215689 1.73400471,4.37058977 2.28215173,4.42859138 C2.20757824,3.91741241 2.34843928,3.35651779 2.74743932,3.00850817 C3.11457034,2.66559759 3.65443142,2.58018863 4.13374138,2.68981804 C4.19620464,2.24492662 4.45179412,1.82680517 4.85015678,1.6094585 C5.48180062,1.23786581 6.33206588,1.36342972 6.85535507,1.86759751 C7.00195253,1.18878753 7.35569857,0.493405673 8.00327691,0.175352925 C8.65149263,-0.157359569 9.47371317,0.00453501616 10.0046509,0.482570209 Z M8.50808208,1.00458464 C8.25185521,1.10784024 8.06446542,1.33283547 7.94463793,1.57567735 C7.69351011,2.09323012 7.75852289,2.6910928 7.83500853,3.24178934 C7.86050374,3.46805933 7.95037435,3.7274731 7.79740309,3.92888526 C7.6227609,4.17491404 7.28303722,4.13858336 7.01788704,4.14878144 C6.75656113,4.15897953 6.52774162,3.91613765 6.54622565,3.65672389 C6.55387421,3.28449382 6.4863119,2.8848564 6.224986,2.60249694 C5.98660578,2.32651129 5.51175749,2.25066304 5.23258494,2.503703 C5.01906255,2.7363468 5.05794275,3.09710402 5.14590122,3.37563919 C5.27847632,3.66628459 5.47797634,3.95501785 5.4435578,4.28964248 C5.40149071,4.59431024 5.0305354,4.78233742 4.75964879,4.63510258 C4.40908965,4.44962493 4.47091553,3.9371712 4.13119185,3.7402207 C3.91703209,3.5917111 3.59642982,3.5368964 3.38481957,3.71791239 C3.21336428,3.86769675 3.20125406,4.12009933 3.24077164,4.32916006 C3.29622372,4.64785019 3.48297613,4.91809941 3.60407838,5.21193171 C3.72390587,5.51150043 3.45301926,5.86397172 3.13496651,5.83847651 C2.87619013,5.83274008 2.74106551,5.57268894 2.51798242,5.48218094 C2.27514055,5.37637582 1.95772518,5.31964898 1.73846637,5.50448925 C1.46566762,5.71546212 1.45100787,6.18202446 1.73782899,6.38726091 C1.9634616,6.51919862 2.28470125,6.47012034 2.4606182,6.69256605 C2.66585464,6.9264846 2.55622524,7.33632011 2.26175556,7.43766357 C1.8729536,7.57278818 1.48032737,7.23178975 1.09471231,7.40834408 C0.900948713,7.47781853 0.937916768,7.72575945 1.02842476,7.86470834 C1.19796791,8.13368281 1.50900948,8.25287292 1.77925871,8.39309657 C1.9666485,8.47659339 2.05014532,8.67545603 2.1508514,8.84053751 C2.90423486,10.1586399 3.28857515,11.6399116 3.6971359,13.0899517 C3.97822059,14.1779598 4.36765993,15.254495 5.00504019,16.1876197 C5.50920797,16.9359042 6.20522721,17.5822077 7.06122889,17.8989857 C7.92169224,18.2144889 8.91281854,18.2444458 9.75862214,17.8664793 C10.5878539,17.5031726 11.2615648,16.7701853 11.499945,15.8906005 C11.6873348,15.2270877 11.5923651,14.4953752 11.2558284,13.8949629 C10.7771558,13.0995124 9.97915571,12.5532775 9.51323074,11.7469915 C9.17796873,11.2026687 9.04921791,10.5378811 9.16649588,9.90814944 C9.27485053,9.17261263 9.69488411,8.52885857 9.81534898,7.79650865 C9.96067168,6.84744945 9.62540967,5.84548769 8.95361088,5.16285343 C8.79171629,5.00924479 8.75984728,4.74983103 8.88413643,4.56371599 C9.2627403,3.93207216 9.70380744,3.29724142 9.79750234,2.54768224 C9.84403109,2.0938675 9.76690808,1.57758949 9.42336013,1.2480639 C9.18880419,1.02051915 8.82740959,0.876471207 8.50808208,1.00458464 Z"></path></clipPath></defs><g transform=""><g transform="translate(13.445254836366372 1.7763568394002505e-15)"><g clip-path="url(#i0)"><polygon points="-6.9388939e-18,8.67361738e-19 11.5547452,8.67361738e-19 11.5547452,18.8623358 -6.9388939e-18,18.8623358 -6.9388939e-18,8.67361738e-19" stroke="none" fill="#000000"></polygon></g></g><g transform="translate(0.0 5.457884202662582)"><g clip-path="url(#i1)"><polygon points="-1.11022302e-16,-2.77555756e-17 12.5481972,-2.77555756e-17 12.5481972,19.0981099 -1.11022302e-16,19.0981099 -1.11022302e-16,-2.77555756e-17" stroke="none" fill="#000000"></polygon></g></g></g></svg>