<?xml version="1.0" encoding="UTF-8"?><svg version="1.1" width="20px" height="20px" viewBox="0 0 20.0 20.0" xmlns="http://www.w3.org/2000/svg" xmlns:xlink="http://www.w3.org/1999/xlink"><defs><clipPath id="i0"><path d="M0.657526701,0 C0.941511076,0.037890625 1.1809642,0.29453125 1.17588608,0.584765625 C1.17822983,1.040625 1.17705795,1.49648437 1.1762767,1.95234375 C1.18682358,2.25429687 0.930182951,2.53242187 0.628620451,2.54726562 C0.316120451,2.57539062 0.0118235757,2.31054687 0.00283920071,1.9953125 C-0.00223892429,1.52460937 0.000886075712,1.05351562 0.00166732571,0.5828125 C-0.00380142429,0.29609375 0.231354826,0.046484375 0.508307951,0 L0.657526701,0 Z"></path></clipPath><clipPath id="i1"><path d="M1.09106467,0.283663422 C1.35356467,0.738741547 1.61215842,1.1957728 1.87270529,1.65163217 C2.00668967,1.8707728 1.97895529,2.17428842 1.80004904,2.36022592 C1.54965842,2.6520228 1.03051779,2.58444467 0.85629904,2.24381967 C0.591064665,1.7770228 0.321533415,1.31256967 0.0598146655,0.843819672 C-0.104247835,0.533663422 0.0859865405,0.108663422 0.42583029,0.0231165467 C0.673095915,-0.0518834533 0.96020529,0.0610071717 1.09106467,0.283663422 Z"></path></clipPath><clipPath id="i2"><path d="M1.8447549,0.244716762 C1.9822549,0.431435512 1.98967677,0.697841762 1.8697549,0.895107387 C1.60842677,1.35174801 1.34983302,1.80956051 1.0869424,2.26541989 C0.949833022,2.49627926 0.645926772,2.60565426 0.392801772,2.51463864 C0.0228798974,2.40057614 -0.118526353,1.90682614 0.111551772,1.60252926 L0.851004897,0.306826137 C0.927567397,0.168154262 1.06155177,0.0615136373 1.2150674,0.0204980123 C1.4447549,-0.0439551127 1.70920802,0.0470605123 1.8447549,0.244716762 Z"></path></clipPath><clipPath id="i3"><path d="M12.2492187,0.237105087 C13.8003906,0.563276962 15.2785156,1.19530821 16.6242188,2.02851134 C17.8101562,2.76991759 18.9105469,3.66405821 19.8152344,4.73476134 C19.9085938,4.83671446 19.9742187,4.96249571 20,5.09921446 L20,5.23280821 C19.9773437,5.36366759 19.9195312,5.48671446 19.8308594,5.58593321 C19.06875,6.49335509 18.1601562,7.27030821 17.1859375,7.94218321 C15.8875,8.82968321 14.4511719,9.52538634 12.9316406,9.93944884 C11.6890625,10.2761676 10.3886719,10.4156207 9.10507813,10.3019488 C7.61757812,10.1742145 6.16679688,9.73827696 4.8203125,9.10077696 C3.55390625,8.49608946 2.36992188,7.71523009 1.325,6.77812071 C0.90625,6.40116759 0.510546875,5.99804259 0.1515625,5.56366759 C0.073046875,5.47382384 0.026953125,5.36210509 0,5.24726134 L0,5.10390196 C0.030078125,4.87343321 0.20703125,4.71288634 0.3484375,4.54491759 C1.04648437,3.75429259 1.85429687,3.06523009 2.71835938,2.46210509 C4.2171875,1.42304259 5.90507812,0.637105087 7.6921875,0.250776962 C9.1875,-0.0793011634 10.7515625,-0.0832074134 12.2492187,0.237105087 Z M9.46835937,1.20976134 C8.89453125,1.28671446 8.33789062,1.49062071 7.85078125,1.80390196 C7.01171875,2.33671446 6.38476562,3.19296446 6.13515625,4.15507384 C5.88984375,5.08163634 5.99296875,6.09569884 6.42460938,6.95155821 C6.86953125,7.84687071 7.66210938,8.56210509 8.59882812,8.91132384 C9.49179688,9.24804259 10.50625,9.24999571 11.3988281,8.91171446 C12.3375,8.56366759 13.1304687,7.84648009 13.5753906,6.95038634 C14.0253906,6.05741759 14.1175781,4.99296446 13.8308594,4.03554259 C13.5472656,3.06718321 12.8785156,2.22108946 12.00625,1.71523009 C11.2480469,1.26952696 10.3394531,1.09218321 9.46835937,1.20976134 Z M14.11875,2.04452696 C14.7804688,2.91483946 15.1582031,3.99726134 15.1714844,5.09101134 C15.1921875,6.23749571 14.8136719,7.38398009 14.1183594,8.29530821 C15.8074219,7.56913634 17.3339844,6.48358946 18.6167969,5.16991759 C17.3402344,3.84921446 15.8082031,2.76913634 14.11875,2.04452696 Z M5.88085938,2.04648009 C4.190625,2.76952696 2.66523438,3.85663634 1.38320313,5.16991759 C2.66015625,6.48944884 4.19140625,7.57030821 5.88085938,8.29413634 C5.20273438,7.40390196 4.82421875,6.28983946 4.82773438,5.16991759 C4.82460937,4.05077696 5.20039062,2.93515196 5.88085938,2.04648009 Z"></path></clipPath><clipPath id="i4"><path d="M3.20409822,0.404815263 C3.62128572,0.718877763 3.90722322,1.20169026 3.97792635,1.71926839 C4.05175447,2.22864339 3.9177701,2.76340901 3.61191072,3.17708089 C3.30605135,3.59856526 2.82987947,3.89387776 2.31425447,3.97239339 C1.77441072,4.06106526 1.20136385,3.91301839 0.771676346,3.57473714 C0.322066971,3.22786214 0.0326138463,2.68176839 0.00370759627,2.11419026 C-0.0291049037,1.59036214 0.157223221,1.05754964 0.509176346,0.668487138 C0.799020096,0.342315263 1.19823885,0.115752763 1.6271451,0.035284013 C2.17362947,-0.070965987 2.76230135,0.065752763 3.20409822,0.404815263 Z M1.78300447,1.20442464 C1.47441072,1.28489339 1.22831697,1.56067464 1.1849576,1.87708089 C1.14159822,2.14934651 1.24862947,2.43801839 1.4568326,2.61770589 C1.67362947,2.81145589 1.99706697,2.87473714 2.27050447,2.77551839 C2.54042635,2.68333089 2.75175447,2.44153401 2.80566072,2.16145589 C2.86347322,1.88723714 2.76737947,1.58762776 2.56112947,1.39856526 C2.3583951,1.20442464 2.05292635,1.12903401 1.78300447,1.20442464 Z"></path></clipPath><clipPath id="i5"><path d="M1.84777252,0.247170941 C1.98371002,0.433108441 1.99035065,0.697170941 1.87277252,0.894045941 C1.61691315,1.34248344 1.36105377,1.79131157 1.10480377,2.23974907 C1.00597565,2.41943657 0.809491271,2.54326469 0.603241271,2.54599907 C0.402460021,2.55498344 0.204022521,2.44990532 0.0958193961,2.28115532 C-0.0209774789,2.10420219 -0.0334774789,1.86201469 0.0719912711,1.67724907 C0.332147521,1.21865532 0.594256896,0.761233441 0.855194396,0.303030316 C0.922772521,0.182717816 1.03292877,0.0874053157 1.16222565,0.0389678157 C1.4036319,-0.0579071843 1.70167877,0.0311553157 1.84777252,0.247170941 Z"></path></clipPath><clipPath id="i6"><path d="M1.10245928,0.303188112 C1.36339678,0.761000612 1.62589678,1.21803186 1.88527178,1.67662561 C2.00167803,1.88521936 1.9731624,2.16334436 1.81495928,2.34264124 C1.5700374,2.65475061 1.02902178,2.59185999 0.852459277,2.23912561 C0.588787402,1.77428186 0.320818652,1.31217249 0.0602717766,0.845766237 C-0.0979313484,0.544984987 0.0700374016,0.137172487 0.392303027,0.0328756118 C0.654021777,-0.0632181382 0.969646777,0.0586568618 1.10245928,0.303188112 Z"></path></clipPath><clipPath id="i7"><path d="M0.588103391,0.000155426658 C0.904900266,-0.00765707334 1.18810339,0.280233552 1.17638464,0.596639802 C1.17677527,1.05249918 1.17794714,1.50874918 1.17560339,1.96460855 C1.18029089,2.25249918 0.945915891,2.50249918 0.667400266,2.54898355 L0.534587766,2.54898355 C0.245525266,2.5200773 -0.00369348368,2.26109293 0.00138464132,1.9669523 C-0.000959108675,1.5091398 0.000212766325,1.0513273 0.000994016325,0.593514802 C-0.0103341087,0.278280427 0.273650266,-0.00648519834 0.588103391,0.000155426658 Z"></path></clipPath></defs><g transform="translate(9.411223299288148 0.0)"><g clip-path="url(#i0)"><polygon points="-5.04370851e-16,0 1.17727072,0 1.17727072,2.54931829 -5.04370851e-16,2.54931829 -5.04370851e-16,0" stroke="none" fill="#000000"></polygon></g></g><g transform="translate(4.827685334533504 0.8647740782709756)"><g clip-path="url(#i1)"><polygon points="2.42861287e-16,3.81639165e-17 1.95672544,3.81639165e-17 1.95672544,2.54416622 2.42861287e-16,2.54416622 2.42861287e-16,3.81639165e-17" stroke="none" fill="#000000"></polygon></g></g><g transform="translate(13.21579197759127 0.8650488626944617)"><g clip-path="url(#i2)"><polygon points="-3.33066907e-16,-1.04083409e-17 1.95417101,-1.04083409e-17 1.95417101,2.54663481 -3.33066907e-16,2.54663481 -3.33066907e-16,-1.04083409e-17" stroke="none" fill="#000000"></polygon></g></g><g transform="translate(0.0 4.830082413354422)"><g clip-path="url(#i3)"><polygon points="0,0 20,0 20,10.3408912 0,10.3408912 0,0" stroke="none" fill="#000000"></polygon></g></g><g transform="translate(8.000979903731547 8.001044112022988)"><g clip-path="url(#i4)"><polygon points="-2.16840434e-18,0 3.99780387,0 3.99780387,3.99761907 -2.16840434e-18,3.99761907 -2.16840434e-18,0" stroke="none" fill="#000000"></polygon></g></g><g transform="translate(4.828789978867957 16.58759468431003)"><g clip-path="url(#i5)"><polygon points="1.2490009e-16,-1.09634524e-15 1.95571125,-1.09634524e-15 1.95571125,2.54653294 1.2490009e-16,2.54653294 1.2490009e-16,-1.09634524e-15" stroke="none" fill="#000000"></polygon></g></g><g transform="translate(13.21355634842435 16.58743688824619)"><g clip-path="url(#i6)"><polygon points="5.82867088e-16,-5.96744876e-16 1.95641742,-5.96744876e-16 1.95641742,2.54408394 5.82867088e-16,2.54408394 5.82867088e-16,-5.96744876e-16" stroke="none" fill="#000000"></polygon></g></g><g transform="translate(9.411505983675047 17.45101644834156)"><g clip-path="url(#i7)"><polygon points="3.70363462e-16,-1.04977875e-16 1.17702446,-1.04977875e-16 1.17702446,2.54898355 3.70363462e-16,2.54898355 3.70363462e-16,-1.04977875e-16" stroke="none" fill="#000000"></polygon></g></g></svg>