<?xml version="1.0" encoding="UTF-8"?><svg version="1.1" width="40px" height="49px" viewBox="0 0 40.0 49.0" xmlns="http://www.w3.org/2000/svg" xmlns:xlink="http://www.w3.org/1999/xlink"><defs><clipPath id="i0"><path d="M3.05582095,0.148289783 C2.54538204,0.423115939 1.96399345,0.85795273 1.81744166,1.74141747 C1.58847525,3.31626772 3.45842299,4.7148238 2.67116402,6.34683257 C2.44236377,6.90761751 1.58847525,7.92151666 0,7.41573019 C0.279312436,7.29210827 0.494487692,7.12495282 0.672941919,6.93735988 C1.63273886,5.89966984 1.25256715,4.92397783 0.797536279,3.95049593 L0.635888828,3.6069085 C0.261072078,2.8049643 -0.0635732486,1.99974862 0.36853955,1.15786882 C1.26812166,-0.419307649 2.76969601,0.0339727355 3.05582095,0.148289783 Z"></path></clipPath><clipPath id="i1"><path d="M3.05116851,0.148289783 C2.5407296,0.423115939 1.95934102,0.85795273 1.810463,1.74141747 C1.58382281,3.31626772 3.45642909,4.7148238 2.6688378,6.34683257 C2.43538511,6.90761751 1.58166275,7.92151666 0,7.41573019 C0.272499938,7.29210827 0.489835254,7.12495282 0.6706157,6.93735988 C1.63041264,5.89966984 1.2496236,4.92397783 0.794312119,3.95049593 L0.632581166,3.6069085 C0.257609451,2.8049643 -0.0668863483,1.99974862 0.366213331,1.15786882 C1.26346922,-0.419307649 2.76504358,0.0339727355 3.05116851,0.148289783 Z"></path></clipPath><clipPath id="i2"><path d="M3.05798101,0.148289783 C2.5475421,0.423115939 1.96382729,0.85795273 1.81511544,1.74141747 C1.59312768,3.31626772 3.45842299,4.7148238 2.67581646,6.34683257 C2.44452383,6.90761751 1.58847525,7.92151666 0,7.41573019 C0.276986217,7.29210827 0.496647752,7.12495282 0.67510198,6.93735988 C1.63378617,5.89966984 1.25307493,4.92397783 0.798077782,3.95049593 L0.636466035,3.6069085 C0.261788131,2.8049643 -0.0623295774,1.99974862 0.37069961,1.15786882 C1.27044788,-0.419307649 2.76969601,0.0339727355 3.05798101,0.148289783 Z"></path></clipPath><clipPath id="i3"><path d="M5.60552311,6.42366633e-05 C7.42063855,-0.0114006997 7.77787932,1.51526359 7.82124669,1.82199217 C7.33157759,1.51526359 6.66328811,1.22913865 5.8253508,1.54500596 C5.20737965,1.79015897 4.79918361,2.33609926 4.40276434,2.89938138 L4.164742,3.23716411 C3.6851878,3.90782135 3.16556864,4.52181854 2.26374338,4.58936197 C1.65942493,4.67177658 0.354748394,4.43832389 0,2.8108014 C0.247077687,2.98476935 0.496647752,3.09460011 0.755356535,3.1519248 C3.42652056,3.75856947 3.37617453,0.112221223 5.60552311,6.42366633e-05 Z"></path></clipPath><clipPath id="i4"><path d="M5.60336305,0 C7.41831233,-0.00678970052 7.77787932,1.51522215 7.82124669,1.82892939 C7.32908521,1.51522215 6.65846951,1.23142343 5.82302458,1.54729074 C4.34205389,2.13781804 4.06972011,4.45423367 2.26141717,4.58915437 C1.65942493,4.6719013 0.350095957,4.4381163 0,2.81308618 C0.242591408,2.98705413 0.498973971,3.09239862 0.750870255,3.15188336 C3.42884678,3.76301432 3.37617453,0.112179784 5.60336305,0 Z"></path></clipPath><clipPath id="i5"><path d="M5.60552311,0 C7.42063855,-0.00909792184 7.78003938,1.51989258 7.82124669,1.82662117 C7.33141143,1.51989258 6.66079573,1.22911521 5.82302458,1.54514867 C4.3443801,2.13567598 4.06972011,4.45674404 2.26374338,4.59166475 C1.65942493,4.67407936 0.354914553,4.44278673 0,2.81310418 C0.247243846,2.98939834 0.496647752,3.09241661 0.753030316,3.15655379 C3.42884678,3.76535853 3.37617453,0.112197782 5.60552311,0 Z"></path></clipPath><clipPath id="i6"><path d="M0.809770916,0 C0.777868484,0.30207615 0.812097135,0.576902307 0.887533093,0.828466274 C1.69788809,3.44247177 4.83147122,1.57701031 6.04459441,3.44712421 C6.9622878,5.01732202 5.81330178,6.09087208 5.57071038,6.28295131 C5.59364025,5.70621516 5.50673935,4.98076715 4.81535384,4.41300356 C4.29278536,4.00099972 3.61597218,3.92082248 2.93017077,3.85918181 L2.51877338,3.82191548 C1.69846965,3.74180631 0.907056716,3.59816229 0.395537779,2.84961825 C0.0223457907,2.36676165 -0.423955937,1.12156987 0.809770916,0 Z"></path></clipPath><clipPath id="i7"><path d="M0.803601725,0 C0.778345633,0.299749931 0.812740442,0.56992365 0.888176401,0.823979995 C1.69620518,3.44263793 4.83427458,1.57019781 6.0429115,3.44479799 C6.96077105,5.01516196 5.81627131,6.08621964 5.5736799,6.27613881 C5.58963112,5.70172888 5.5072165,4.97844093 4.81367093,4.40851728 C3.56166664,3.42652056 1.41921896,4.3443801 0.398341147,2.84745819 C0.0253153176,2.36676165 -0.425638848,1.11708359 0.803601725,0 Z"></path></clipPath><clipPath id="i8"><path d="M0.806086346,0 C0.776343975,0.297589871 0.808412565,0.572249869 0.881688463,0.819493715 C1.30145518,2.16841372 2.3377627,2.32676003 3.40922354,2.41980383 L3.78789915,2.45176361 C4.67046354,2.52856036 5.53048101,2.65085241 6.04323606,3.44712421 C6.95876939,5.01050953 5.81426965,6.0863858 5.57167824,6.27846503 C5.5922819,5.69956882 5.50521484,4.97611472 4.81399549,4.40635722 C3.5619912,3.41970806 1.41489109,4.34222004 0.400991927,2.84513197 C0.0256398784,2.35994916 -0.427640506,1.11243115 0.806086346,0 Z"></path></clipPath><clipPath id="i9"><path d="M3.05798101,0.137012859 C2.78332101,0.262961001 2.56133326,0.43011645 2.38271287,0.617875554 C1.42171757,1.65547999 1.80258703,2.63174784 2.25855349,3.60549022 L2.42053832,3.9491549 C2.79615275,4.75124138 3.12162475,5.55630754 2.68944146,6.39720045 C1.79218557,7.97670314 0.290777373,7.52109654 0,7.40229321 C0.510438908,7.13444571 1.09647993,6.69495648 1.24286557,5.81597802 C1.4693396,4.23664149 -0.40060814,2.84041163 0.384490766,1.21056292 C0.613457177,0.647451767 1.47183198,-0.368773611 3.05798101,0.137012859 Z"></path></clipPath><clipPath id="i10"><path d="M3.05798101,0.137012859 C2.78332101,0.262961001 2.56133326,0.43011645 2.38271287,0.617875554 C1.42402868,1.65547999 1.80478401,2.63174784 2.26073255,3.60549022 L2.42271916,3.9491549 C2.79836621,4.75124138 3.12413727,5.55630754 2.69392774,6.39720045 C1.79451178,7.97670314 0.288451154,7.52109654 0,7.40229321 C0.512598968,7.13444571 1.09631377,6.69495648 1.24286557,5.81597802 C1.47399204,4.23664149 -0.398281921,2.84041163 0.384490766,1.21056292 C0.617943456,0.647451767 1.47399204,-0.368773611 3.05798101,0.137012859 Z"></path></clipPath><clipPath id="i11"><path d="M3.05332857,0.137012859 C2.77866857,0.262961001 2.56133326,0.43011645 2.38271287,0.617875554 C1.42163197,1.65547999 1.80245993,2.63174784 2.25779294,3.60549022 L2.41952859,3.9491549 C2.7944994,4.75124138 3.11887558,5.55630754 2.68478902,6.39720045 C1.78753313,7.97670314 0.286124935,7.52109654 0,7.40229321 C0.510438908,7.13444571 1.09398755,6.69495648 1.24053935,5.81597802 C1.4693396,4.23664149 -0.402934359,2.84041163 0.384490766,1.21056292 C0.617943456,0.647451767 1.47166582,-0.368773611 3.05332857,0.137012859 Z"></path></clipPath><clipPath id="i12"><path d="M7.81908663,1.79611268 C7.574169,1.61981851 7.32243887,1.51231396 7.06605631,1.45033684 C4.39256607,0.841532102 4.44523831,4.49469285 2.21588974,4.60689063 C0.39844808,4.61598856 0.0436996851,3.08699805 0,2.78026946 C0.492327631,3.08699805 1.15613083,3.37312299 1.99373582,3.0595819 C3.47935896,2.4690546 3.75169274,0.150312748 5.55766946,0.0130658282 C6.16198792,-0.0648625076 7.46649829,0.166263964 7.81908663,1.79611268 Z"></path></clipPath><clipPath id="i13"><path d="M7.82357291,1.79159555 C7.57632906,1.6176276 7.3199465,1.51228312 7.06821637,1.45063831 C4.39688619,0.841667416 4.44507215,4.49482817 2.21339736,4.60700785 C0.40060814,4.61379765 0.0433673681,3.08480715 0,2.77807856 C0.489835254,3.08480715 1.16277717,3.3732583 2.00054832,3.05971721 C3.47686658,2.46918991 3.75368664,0.150448062 5.55517708,0.0155273611 C6.16182176,-0.0715396922 7.46400592,0.166565436 7.82357291,1.79159555 Z"></path></clipPath><clipPath id="i14"><path d="M7.82141285,1.79285099 C7.574169,1.61655683 7.32243887,1.5113785 7.07054259,1.45189375 C4.39256607,0.842922857 4.44523831,4.49375739 2.21588974,4.60362901 C0.39844808,4.61272687 0.0435335266,3.08606259 0,2.78166022 C0.489835254,3.08606259 1.16061711,3.37451374 1.99838826,3.05864644 C2.61545939,2.81259339 3.02269771,2.26609924 3.41864245,1.70264549 L3.65644238,1.36480593 C4.13568503,0.694127922 4.65584421,0.0806707448 5.55999568,0.0142904246 C6.16198792,-0.0681241907 7.46882451,0.165494658 7.82141285,1.79285099 Z"></path></clipPath><clipPath id="i15"><path d="M0.825617823,0 C0.800361731,0.581388587 0.887428784,1.30235031 1.57864814,1.86994774 C2.83297864,2.85659691 4.97542633,1.93641114 5.99397792,3.43100684 C6.36700375,3.91386343 6.82028414,5.15922138 5.58655728,6.28079125 C5.61646581,5.97854894 5.582071,5.70621516 5.50879511,5.45664509 C4.69628005,2.83599325 1.55804448,4.705941 0.349573725,2.83350088 C-0.566125761,1.26346922 0.578373977,0.192079224 0.825617823,0 Z"></path></clipPath><clipPath id="i16"><path d="M0.822908724,0 C0.80463129,0.576902307 0.889372124,1.30019025 1.58059148,1.86778768 C2.83259576,2.85211063 4.97736966,1.93425108 5.99824748,3.42652056 C6.36894709,3.91186953 6.81990126,5.15938754 5.58850062,6.27630497 C5.61591677,5.97638888 5.58168812,5.7040551 5.50608601,5.45465119 C4.69822339,2.83599325 1.55998782,4.70610716 0.349190845,2.82685454 C-0.566342482,1.26346922 0.580151158,0.190085322 0.822908724,0 Z"></path></clipPath><clipPath id="i17"><path d="M0.820901936,0 C0.800132124,0.579062368 0.887033019,1.30467653 1.57841853,1.87244012 C2.83258288,2.85892313 4.97519672,1.93641114 5.99607453,3.431173 C6.37142658,3.91635581 6.81988837,5.1615476 5.59098011,6.28311747 C5.61374383,5.98336753 5.58167524,5.71103376 5.5085655,5.46146369 C4.70053672,2.83831947 1.55997494,4.70826722 0.349177959,2.83366703 C-0.566355368,1.2679555 0.580470589,0.192245383 0.820901936,0 Z"></path></clipPath><clipPath id="i18"><path d="M2.40979671,0 L2.40979671,0.462751419 L0.533534939,0.462751419 L0.533534939,1.95070077 L2.40979671,1.95070077 L2.40979671,2.41378451 L0.533534939,2.41378451 L0.533534939,4.52034195 L0,4.52034195 L0,0 L2.40979671,0 Z"></path></clipPath><clipPath id="i19"><path d="M0.498973971,0 L0.498973971,2.45881346 C0.498973971,2.94167006 0.62641754,3.32167455 0.877981507,3.58752814 C1.12854852,3.85404637 1.45737619,3.98929939 1.85599043,3.98929939 C2.25958942,3.98929939 2.59041099,3.85288327 2.8398149,3.58337418 C3.09154502,3.31419741 3.21898859,2.92023561 3.21898859,2.41411683 L3.21898859,0 L3.71397476,0 L3.71397476,2.39467628 C3.71397476,3.04817766 3.54017297,3.56110894 3.19705567,3.91901435 C2.85144599,4.27858134 2.40032567,4.46019258 1.85599043,4.46019258 C1.31315061,4.46019258 0.862861083,4.28024292 0.518082199,3.9248299 C0.174300265,3.57041382 0,3.08074472 0,2.47160767 L0,0 L0.498973971,0 Z"></path></clipPath><clipPath id="i20"><path d="M0.398946555,0 L0.418220941,0.0211021293 L3.49215316,3.56310284 L3.49215316,0 L3.98747165,0 L3.98747165,4.40536027 L3.59550375,4.40536027 L3.57589705,4.38292888 L0.495484643,0.841758954 L0.495484643,4.40536027 L0,4.40536027 L0,0 L0.398946555,0 Z"></path></clipPath><clipPath id="i21"><path d="M2.14327847,0 L2.15058945,0.0149542649 L2.30594764,0.345111202 L4.28506152,4.52732061 L3.77096713,4.52732061 L3.75335432,4.49359044 L2.14045378,1.07903329 L0.517749882,4.52732061 L0,4.52732061 L0.00548323045,4.51668647 L0.056327731,4.41400052 L2.14327847,0 Z"></path></clipPath><clipPath id="i22"><path d="M2.20592023,0 C2.67199482,0 3.16183007,0.116310949 3.66263178,0.346606628 L3.69669428,0.362225527 L3.70882385,0.406922163 L3.70882385,0.897920526 L3.5896882,0.830127859 C3.11397642,0.5777331 2.64142165,0.449791056 2.18647968,0.449791056 C1.70844168,0.449791056 1.30351342,0.614287969 0.982495202,0.938629359 C0.661310824,1.26330306 0.498807813,1.67520998 0.498807813,2.16371597 C0.498807813,2.65670823 0.661310824,3.06695357 0.984156787,3.38315319 C1.30716891,3.7010144 1.7263868,3.86285278 2.22951473,3.86285278 C2.65521281,3.86285278 3.12693678,3.72643665 3.63189246,3.4575922 L3.74969884,3.39661203 L3.74969884,3.90289697 L3.71497171,3.91934666 C3.22181329,4.18004935 2.72383627,4.31264383 2.23433333,4.31264383 C1.6002725,4.31264383 1.06358055,4.10561034 0.640374854,3.69735891 C0.215341414,3.2894398 0,2.77285302 0,2.16371597 C0,1.55009263 0.219495377,1.03034885 0.653501375,0.618940407 C1.0870089,0.208528916 1.60858042,0 2.20592023,0 Z"></path></clipPath><clipPath id="i23"><path d="M0.475047147,0 L0.475047147,4.29320329 L0,4.29320329 L0,0 L0.475047147,0 Z"></path></clipPath><clipPath id="i24"><path d="M2.28135619,0 C2.91624781,0 3.46241079,0.217002999 3.90455856,0.644528816 C4.34620785,1.07255311 4.57052182,1.60309719 4.57052182,2.22020986 C4.57052182,2.83549478 4.34620785,3.36454344 3.90455856,3.79173694 C3.46290927,4.21992739 2.91691244,4.43626575 2.28135619,4.43626575 C1.64679688,4.43626575 1.10246164,4.21992739 0.663470885,3.79173694 C0.223317022,3.3638788 0,2.83483014 0,2.22020986 C0,1.60309719 0.223317022,1.07321774 0.664301677,0.645027292 C1.10312627,0.217169158 1.6471292,0 2.28135619,0 Z M2.29348576,0.454609652 C1.79584105,0.454609652 1.36914603,0.626749857 1.02436714,0.965713194 C0.680917527,1.30484269 0.506118787,1.72705143 0.506118787,2.22020986 C0.506118787,2.71187286 0.680917527,3.13258617 1.02436714,3.47088488 C1.36814908,3.80968206 1.79467794,3.98182226 2.29348576,3.98182226 C2.78863808,3.98182226 3.21184378,3.80968206 3.55263486,3.47088488 C3.89259515,3.13258617 4.06523383,2.71187286 4.06523383,2.22020986 C4.06523383,1.7263868 3.89259515,1.30484269 3.55263486,0.965713194 C3.21101299,0.626749857 2.78797345,0.454609652 2.29348576,0.454609652 Z"></path></clipPath><clipPath id="i25"><path d="M0.399112714,0 L0.418220941,0.0211021293 L3.49231932,3.56310284 L3.49231932,0 L3.98747165,0 L3.98747165,4.40536027 L3.59550375,4.40536027 L3.57622937,4.38292888 L0.49581696,0.841758954 L0.49581696,4.40536027 L0,4.40536027 L0,0 L0.399112714,0 Z"></path></clipPath><clipPath id="i26"><path d="M1.35817957,0 C1.9521962,0 2.42176012,0.0895594307 2.76687132,0.269675243 C3.11381026,0.44929258 3.3883041,0.71381691 3.59218058,1.06324823 C3.79655553,1.41184876 3.89907533,1.79251788 3.89907533,2.2044248 C3.89907533,2.49935614 3.8427476,2.78099479 3.72992598,3.04983924 C3.61760283,3.31968064 3.45692756,3.55595803 3.24906328,3.76000066 C3.03621424,3.97035732 2.78963503,4.12937101 2.50816254,4.23621092 C2.34366562,4.30167737 2.19212907,4.3452109 2.05438368,4.36780845 C1.93745557,4.38689294 1.72750583,4.39743214 1.42631327,4.40005386 L0,4.40070784 L0,0 L1.35817957,0 Z M1.40603322,0.447298678 L0.511934334,0.447298678 L0.511934334,3.95357532 L1.42480913,3.95357532 C1.73668863,3.95357532 1.97961235,3.93197471 2.15258335,3.88794271 C2.32555435,3.84507382 2.46894913,3.7910723 2.58542624,3.72444275 C2.70090639,3.65781319 2.80625088,3.57622937 2.90245665,3.47985744 C3.21034835,3.16399013 3.36520807,2.651225 3.36520807,2.17036231 C3.36520807,1.69697675 3.20702518,1.19667351 2.88999477,0.898252843 C2.77318534,0.786926649 2.63992623,0.695373317 2.4878912,0.623925162 C2.33751776,0.552477008 2.19412297,0.505287994 2.05886996,0.48136117 C1.92345078,0.459095932 1.70561699,0.447298678 1.40603322,0.447298678 Z"></path></clipPath><clipPath id="i27"><path d="M1.23987472,0 L0.410743809,1.10030158 L0,1.10030158 L0.495152326,0 L1.23987472,0 Z"></path></clipPath><clipPath id="i28"><path d="M2.89049324,0 C3.69569733,0 4.38824595,0.274327681 4.94886472,0.816502862 C5.50881886,1.35934268 5.79261758,2.03178612 5.79261758,2.81422649 C5.79261758,3.59400832 5.50881886,4.26462402 4.94886472,4.80646689 C4.38891058,5.34897439 3.69586348,5.62346823 2.89049324,5.62346823 C2.0871169,5.62346823 1.39722681,5.34897439 0.839765052,4.80646689 C0.282469448,4.26346092 0,3.59317753 0,2.81422649 C0,2.03178612 0.282967923,1.36000731 0.841426637,0.817499813 C1.39772529,0.274992315 2.08744922,0 2.89049324,0 Z M2.90611214,0.576403832 C2.27554064,0.576403832 1.73502704,0.794071465 1.29803019,1.22375734 C0.862362608,1.65344322 0.641205646,2.1888059 0.641205646,2.81422649 C0.641205646,3.43748702 0.862362608,3.97102196 1.29803019,4.39937857 C1.73386393,4.82906444 2.274876,5.04706439 2.90611214,5.04706439 C3.53452358,5.04706439 4.07088322,4.82906444 4.50256299,4.39937857 C4.93307966,3.97118812 5.15224272,3.43798549 5.15224272,2.81422649 C5.15224272,2.18830743 4.93307966,1.6531109 4.50256299,1.22375734 C4.06938779,0.794071465 3.53252968,0.576403832 2.90611214,0.576403832 Z"></path></clipPath><clipPath id="i29"><path d="M1.62120847,0 C2.04674039,0 2.4742662,0.115480157 2.89281946,0.344612726 L2.94366396,0.378010584 L2.94366396,1.05959275 L2.92854354,1.04978939 L2.79245973,0.966543986 C2.35081044,0.708001362 1.969809,0.576237673 1.65959108,0.576237673 C1.36748444,0.576237673 1.12190218,0.665630945 0.929490641,0.841260478 C0.738242209,1.013733 0.641039488,1.22940673 0.641039488,1.48379539 C0.641039488,1.66457584 0.697865694,1.83056818 0.810521156,1.97695382 C0.923675094,2.12483488 1.17523906,2.27254979 1.55723745,2.41727384 C1.96881205,2.57329667 2.26075253,2.69924481 2.4498409,2.8017646 C2.64624025,2.9102661 2.81588808,3.06861515 2.95396579,3.27348858 C3.09237582,3.47869433 3.16216239,3.74853573 3.16216239,4.0745387 C3.16216239,4.50771391 3.00181944,4.87891199 2.68462286,5.1771665 C2.36975251,5.47292863 1.98044314,5.62330207 1.52616581,5.62330207 C1.06806683,5.62330207 0.593518157,5.46229448 0.115812474,5.14509791 L0.0802545548,5.12216804 L0.0716143129,5.07531134 L0.0716143129,4.38226424 L0.0875655288,4.39422765 L0.230794155,4.50223068 C0.720795567,4.8632931 1.14931833,5.04706439 1.50323594,5.04706439 C1.78836392,5.04706439 2.0322846,4.95285253 2.2288501,4.76874891 C2.42225859,4.58763615 2.52079058,4.35983284 2.52079058,4.0929823 C2.52079058,3.89109972 2.4594781,3.70616531 2.33967782,3.54416077 C2.21954522,3.38165776 1.96083644,3.22281024 1.56969934,3.071606 C1.159454,2.91458622 0.860534864,2.78498259 0.681582161,2.68694908 C0.491829156,2.58343234 0.330323095,2.43472048 0.201550259,2.24579827 C0.0676265089,2.05139282 0,1.80115812 0,1.50190667 C0,1.08651042 0.161007585,0.727940382 0.478370317,0.436332217 C0.793074514,0.146385637 1.17690065,0 1.62120847,0 Z"></path></clipPath><clipPath id="i30"><path d="M0.607807788,0 L0.607807788,5.59206427 L0,5.59206427 L0,0 L0.607807788,0 Z"></path></clipPath><clipPath id="i31"><path d="M1.62037768,0 C2.04557728,0 2.47343541,0.115480157 2.89165635,0.344612726 L2.94266701,0.378010584 L2.94266701,1.05892811 L2.92771275,1.05012171 L2.79063198,0.966876303 C2.34997965,0.708001362 1.96931053,0.576237673 1.65876029,0.576237673 C1.36648749,0.576237673 1.12090523,0.665630945 0.928327532,0.841260478 C0.737245258,1.013733 0.640208695,1.23023752 0.640208695,1.48379539 C0.640208695,1.66424352 0.697034902,1.82990354 0.809690364,1.97695382 C0.92301046,2.12566567 1.17457443,2.27387905 1.5562405,2.41727384 C1.96864589,2.57362898 2.26108485,2.69974329 2.44851164,2.8017646 C2.64657257,2.91192769 2.81555576,3.07077521 2.95163957,3.27415321 C3.09171118,3.48052207 3.16232855,3.749865 3.16232855,4.0745387 C3.16232855,4.50704927 3.00198559,4.87774888 2.68429054,5.1771665 C2.36908787,5.47292863 1.97928004,5.62330207 1.52483654,5.62330207 C1.06723604,5.62330207 0.592853523,5.46229448 0.114815523,5.14509791 L0.0807530303,5.12216804 L0.0699527279,5.07531134 L0.0699527279,4.38492278 L0.229963362,4.50123373 C0.720961725,4.86312694 1.14898602,5.04706439 1.50207283,5.04706439 C1.78769929,5.04706439 2.03161996,4.95285253 2.22702236,4.76874891 C2.42109548,4.58763615 2.51946131,4.35983284 2.51946131,4.0929823 C2.51946131,3.89010277 2.45881346,3.70550068 2.33967782,3.54416077 C2.21838211,3.38165776 1.95934102,3.2221456 1.57019781,3.071606 C1.15912169,2.91425391 0.85987023,2.78481644 0.68174832,2.68694908 C0.49133068,2.58409697 0.329658461,2.43521896 0.200220991,2.24579827 C0.0671280334,2.05322057 0,1.80281971 0,1.50190667 C0,1.08717506 0.159844476,0.728272699 0.476376415,0.436332217 C0.791745246,0.146385637 1.17623601,0 1.62037768,0 Z"></path></clipPath><clipPath id="i32"><path d="M2.71270365,0 L2.72167621,0.0184435933 L2.91890634,0.436332217 L5.4225826,5.72864656 L4.77173976,5.72864656 L4.74980684,5.68544535 L2.708882,1.36532438 L0.655495277,5.72864656 L0,5.72864656 L0.00714481544,5.71468924 L0.0719466299,5.58525177 L2.71270365,0 Z"></path></clipPath><clipPath id="i33"><path d="M2.72184237,0 L2.73114724,0.0187759103 L2.92837738,0.437993802 L5.44152467,5.74875173 L4.78868793,5.74875173 L4.76625653,5.706049 L2.71835304,1.36997682 L0.657655337,5.74875173 L0,5.74875173 L0.00697865694,5.7352929 L0.0716143129,5.60469232 L2.72184237,0 Z"></path></clipPath><clipPath id="i34"><path d="M2.80109997,0 C3.3931227,0 4.01505396,0.147714905 4.65094253,0.440153863 L4.6943099,0.459760566 L4.70976264,0.516752931 L4.70976264,1.14017962 L4.55839225,1.05410952 C3.95423995,0.73375593 3.35407545,0.57108676 2.77650851,0.57108676 C2.16953152,0.57108676 1.65527096,0.780114151 1.24768417,1.19185491 C0.839765052,1.6042603 0.633230038,2.1271611 0.633230038,2.74759693 C0.633230038,3.373516 0.83993121,3.89458905 1.24951191,4.29619414 C1.6599234,4.69995929 2.19212907,4.90516504 2.8310085,4.90516504 C3.37168825,4.90516504 3.97068964,4.73202788 4.61206145,4.39040601 L4.76160409,4.31314231 L4.76160409,4.9561757 L4.71757209,4.97694551 C4.09115455,5.3080994 3.45875531,5.47641796 2.83732252,5.47641796 C2.03195228,5.47641796 1.35070244,5.21338905 0.813013534,4.69497454 C0.27333073,4.17689234 0,3.52106474 0,2.74759693 C0,1.96831357 0.278647802,1.30849818 0.829629383,0.78576354 C1.38027865,0.264690488 2.04258642,0 2.80109997,0 Z"></path></clipPath><clipPath id="i35"><path d="M0.461754468,0 C0.591524255,0 0.702185815,0.0446966361 0.793905306,0.133757591 C0.885458639,0.222818547 0.931318385,0.332150839 0.931318385,0.461920626 C0.931318385,0.589364195 0.885957114,0.696037951 0.795899208,0.782606528 C0.705342827,0.868842789 0.594016632,0.912210157 0.461754468,0.912210157 C0.332150839,0.912210157 0.222652388,0.868842789 0.133425274,0.782606528 C0.0443643191,0.696037951 0,0.589364195 0,0.461920626 C0,0.332150839 0.0443643191,0.222818547 0.133425274,0.133757591 C0.222652388,0.0446966361 0.332150839,0 0.461754468,0 Z"></path></clipPath><clipPath id="i36"><path d="M0.461754468,0 C0.591524255,0 0.702185815,0.0446966361 0.793905306,0.133757591 C0.885458639,0.222818547 0.931152226,0.332150839 0.931152226,0.461920626 C0.931152226,0.589364195 0.885957114,0.696037951 0.79573305,0.782606528 C0.705342827,0.868842789 0.594016632,0.912210157 0.461754468,0.912210157 C0.33198468,0.912210157 0.22248623,0.868842789 0.133425274,0.782606528 C0.0441981606,0.696037951 0,0.589364195 0,0.461920626 C0,0.332150839 0.0441981606,0.222818547 0.133425274,0.133757591 C0.22248623,0.0446966361 0.33198468,0 0.461754468,0 Z"></path></clipPath><clipPath id="i37"><path d="M20.0322347,0 L20.4456371,0.0199390198 L20.575573,0.0199390198 L20.6701172,0.0350594432 L21.004262,0.0199390198 L21.168925,0.0350594432 L22.3906885,0.0350594432 L22.619821,0.054998463 L22.9041182,0.0199390198 C23.1636578,0.149542649 23.4027599,0 23.65233,0.0800883963 L24.0009305,0.0800883963 L24.3006804,0.135086859 L24.3500295,0.114981681 L26.2872714,0.114981681 L26.9655304,0.164995389 L27.4041889,0.164995389 L27.8180897,0.219329218 L27.9181171,0.199888674 L28.0671613,0.199888674 L28.2670499,0.184602092 L28.5458639,0.199888674 L29.2643332,0.249570065 L29.578539,0.269176768 L30.1619215,0.269176768 L30.2612842,0.28446335 L30.3461912,0.28446335 L30.4561882,0.319024317 L30.625836,0.319024317 L30.6805021,0.28446335 L30.7752125,0.304734686 L30.9544975,0.304734686 L31.6231193,0.354748394 L31.8720247,0.36405327 L32.1415338,0.398946555 L32.2565155,0.434172157 L32.2709713,0.484185865 L32.3208188,0.484185865 L32.3909377,0.41390082 L32.4858142,0.468733125 L32.5901618,0.468733125 L32.6199041,0.434172157 L33.019183,0.41390082 L33.0888034,0.468733125 L33.1886647,0.41390082 L33.4030091,0.41390082 L33.5874451,0.448627946 L33.9363779,0.468733125 L34.1156629,0.484185865 L34.2308108,0.468733125 L34.2507498,0.518580674 L34.5001537,0.498475496 L34.600015,0.568594382 L34.7793,0.518580674 L34.8637085,0.568594382 L34.9786902,0.568594382 L35.0285377,0.534033414 L35.0635972,0.518580674 L35.213306,0.534033414 L35.3128349,0.534033414 L35.2978806,0.603653825 L35.3128349,0.648350462 L35.3824553,0.663304726 L35.5122251,0.663304726 L35.6468135,0.534033414 L35.7765833,0.534033414 L35.881097,0.603653825 L35.881097,0.633230038 L35.9615177,0.683576063 L36.0457601,0.603653825 L36.1457875,0.648350462 L36.1803484,0.717804714 L36.2250451,0.783437321 L36.3300572,0.783437321 L36.4146319,0.683576063 L36.4945542,0.717804714 L36.579295,0.717804714 L36.6143544,0.683576063 L36.6643681,0.683576063 L36.7936395,0.783437321 L36.9584687,0.768150739 L37.1129961,0.768150739 L37.2425997,0.817665972 L37.3074015,0.733423613 L37.3776866,0.768150739 L37.4569442,0.827967798 L37.7910889,0.853057732 L37.9708724,0.853057732 L38.0549486,0.862861083 L38.4195004,0.862861083 L38.887735,0.96720862 L39.0028828,0.96720862 L39.2870139,1.01705617 L39.3222395,0.997781784 L39.5510397,0.997781784 L39.820715,1.01705617 L40,1.03234275 L40,1.10246164 L39.9204101,1.14699212 L39.9852119,1.26612776 L39.9403491,1.39639602 L39.9052897,1.39639602 L39.7010809,1.3812756 L39.5365839,1.41151645 L39.2370002,1.3812756 L39.1924697,1.35153323 L39.0872914,1.3812756 L38.9231268,1.36133658 L38.858325,1.3812756 L38.7385247,1.31647378 L38.444258,1.30201799 L38.32479,1.30201799 L38.1253998,1.31647378 L37.7409091,1.28191282 L37.327839,1.23206527 L37.3074015,1.21661253 L36.8286989,1.23206527 L36.295164,1.28191282 L36.1650619,1.19700582 L36.080321,1.19700582 L36.0110329,1.21661253 L35.8960512,1.14699212 L35.7463424,1.13203785 L35.6818729,1.16211254 L35.5271794,1.16211254 L35.497437,1.19700582 L35.2776093,1.16211254 L35.1485042,1.14699212 L34.9336612,1.16211254 L34.6794387,1.16211254 L34.6146369,1.23206527 L34.4803808,1.16211254 L34.4453214,1.16211254 L34.3354906,1.26612776 L34.6496963,1.26612776 L34.6345759,1.36133658 L34.5147756,1.31647378 L34.4649281,1.36133658 L34.4348534,1.39639602 L34.1959175,1.31647378 L34.0159678,1.31647378 L33.9662864,1.35153323 L33.7168825,1.36133658 L33.5874451,1.28191282 L33.4825991,1.41151645 L33.4229482,1.43145547 L33.4330838,1.36133658 L33.4030091,1.32627714 L33.2534665,1.44624357 L33.1539375,1.48130301 L33.1539375,1.53081825 L33.2333613,1.56587769 L33.2682546,1.55092343 L33.3380412,1.53081825 L33.4676448,1.64579993 L33.5527179,1.53081825 L33.6372926,1.53081825 L33.8165776,1.56587769 L33.9363779,1.51603014 L33.9363779,1.68052705 L34.0659815,1.69581364 L34.0659815,1.76526789 L33.8021218,1.7303746 L33.7325014,1.76526789 L33.6173536,1.7303746 L33.4030091,1.74566119 L33.303314,1.80032733 L33.2534665,1.7303746 L33.1042561,1.7303746 L32.7848995,1.68052705 L32.6901892,1.69581364 L32.5901618,1.7303746 L32.2862579,1.7303746 L32.2364103,1.76526789 L32.0916863,1.69581364 L31.9418113,1.71542034 L31.8720247,1.66058803 L31.8570705,1.63067951 L31.8221772,1.63067951 L31.7379348,1.69581364 L31.6428922,1.69581364 L31.4531391,1.66058803 L31.3936544,1.69581364 L31.358595,1.71542034 L31.2386285,1.68052705 L31.0244502,1.64579993 L30.9892246,1.66058803 L30.8099396,1.61057433 L30.7600921,1.63067951 L30.6954564,1.69581364 L30.660397,1.71542034 L30.6103832,1.71542034 L30.4561882,1.60126945 L30.2911928,1.66058803 L30.1816943,1.63067951 L30.126862,1.64579993 L29.8630023,1.64579993 L29.8279429,1.68052705 L29.7083088,1.64579993 L29.683385,1.60126945 L29.5983118,1.61057433 L29.5285253,1.63067951 L29.4338149,1.56587769 L29.2643332,1.57601336 L28.9803684,1.56587769 L28.9350071,1.60126945 L28.8306596,1.61057433 L28.7804797,1.63067951 L28.6658303,1.55092343 L28.4014722,1.56587769 L28.0477207,1.55092343 L27.9978732,1.56587769 L27.8533153,1.55092343 L27.7484693,1.56587769 L27.5831416,1.56587769 L27.4841111,1.53081825 L27.319448,1.53081825 L27.2499938,1.48130301 L27.2149343,1.53081825 L27.1049374,1.46601643 L27.0502713,1.48130301 L26.9401082,1.4957588 L26.8558658,1.46601643 L26.771125,1.53081825 L26.6362043,1.53081825 L26.5512973,1.46601643 L26.4665564,1.43145547 L26.3723446,1.4957588 L26.3369528,1.51603014 L26.3022257,1.53081825 L26.1576678,1.48130301 L25.7090399,1.48130301 L24.0860036,1.46601643 L23.9213406,1.46601643 L23.8168269,1.44624357 L23.7317537,1.46601643 L23.4974702,1.43145547 L23.3678666,1.41151645 L23.3030648,1.43145547 L23.2485648,1.48130301 L23.0189338,1.46601643 L22.9690862,1.43145547 L22.948981,1.39639602 L22.5005192,1.46601643 L22.3709156,1.43145547 L22.0562114,1.43145547 L22.0015453,1.46601643 L21.9719691,1.48130301 L21.8222603,1.39639602 L21.6675667,1.43145547 L21.6428091,1.44624357 L21.5731887,1.46601643 L21.5030698,1.41151645 L21.2240897,1.43145547 L21.1242284,1.43145547 L20.9547467,1.44624357 L20.9195211,1.46601643 L20.8253093,1.44624357 L20.66048,1.41151645 L20.4762103,1.46601643 L20.256881,1.43145547 L20.0470229,1.43145547 L19.9273887,1.44624357 L19.7329833,1.43145547 L19.4186114,1.39639602 L19.3340367,1.3812756 L19.2341755,1.44624357 L18.9500444,1.3812756 L18.4665232,1.43145547 L18.017563,1.41151645 L17.9575797,1.43145547 L17.8377795,1.41151645 L17.7684914,1.44624357 L17.5538146,1.43145547 L17.4245433,1.36133658 L17.3889854,1.3812756 L17.1847766,1.39639602 L17.1048543,1.41151645 L17.0202796,1.36133658 L16.9257355,1.41151645 L16.8905099,1.41151645 L16.8404961,1.46601643 L16.7708757,1.43145547 L16.4714581,1.39639602 L16.3772463,1.43145547 L16.3416883,1.46601643 L16.3074597,1.48130301 L16.1874932,1.46601643 L16.0229963,1.46601643 L15.9277875,1.44624357 L15.4396138,1.46601643 L15.3445712,1.44624357 L15.2103151,1.44624357 L15.025713,1.48130301 L15.025713,1.46601643 L14.7266277,1.48130301 L14.6917344,1.4957588 L14.5815714,1.53081825 L14.5471766,1.55092343 L14.3974677,1.55092343 L14.1480638,1.51603014 L14.0285959,1.53081825 L13.9632956,1.48130301 L13.6695274,1.46601643 L13.6141966,1.51603014 L13.4998795,1.51603014 L13.4450472,1.53081825 L13.3350503,1.53081825 L13.0309803,1.55092343 L12.8663172,1.56587769 L12.8164696,1.60126945 L12.7166084,1.57601336 L12.4675368,1.60126945 L12.0685902,1.60126945 L12.0341954,1.61057433 L11.9986375,1.64579993 L11.4403449,1.61057433 L11.2708633,1.63067951 L11.1213206,1.63067951 L11.0714731,1.69581364 L10.4819427,1.68052705 L10.3275815,1.69581364 L9.9135145,1.68052705 L9.82893983,1.71542034 L9.40008474,1.71542034 L8.83182268,1.74566119 L8.52226939,1.76526789 L8.05868718,1.76526789 L7.70493574,1.85034104 L7.53528791,1.85034104 L6.94176975,1.85997823 L6.89208836,1.87991725 L6.58785215,1.82541727 L6.20867846,1.89536999 L6.07425623,1.90965962 L5.62529597,1.94521754 L5.42590577,1.99506509 L5.31109025,1.99506509 L4.60740901,2.02929374 L4.35817126,2.02929374 L4.25349141,2.0498974 L4.16841825,1.99506509 L3.98913323,2.01483795 L3.95457227,2.0498974 L3.85936345,2.0498974 L3.8095159,2.06485166 L3.58503577,2.07465501 L3.44047787,2.14427542 L3.32582851,2.12932116 L2.97656334,2.21422815 L2.44352688,2.21422815 L2.1740178,2.2640757 L1.90965962,2.29913515 L1.79534258,2.37839275 L1.6755423,2.34881654 L1.62552859,2.35861989 L1.31647378,2.37839275 L1.28141434,2.39351317 L1.21162777,2.44369304 L1.06706988,2.40846744 L0.997449467,2.46363206 L0.762833667,2.47858632 L0.643199548,2.44369304 L0.533202622,2.46363206 L0.478702634,2.49354059 L0.309220966,2.51331345 L0.229464887,2.47858632 L0.129935946,2.47858632 L0.144391735,2.35861989 L0.129935946,2.31408941 L0.0598170595,2.21422815 L0,2.14427542 L0,1.97977851 L0.0350594432,1.96449193 L0.0849069928,1.74566119 L0.119301802,1.7303746 L0.179451178,1.66058803 L0.264192013,1.64579993 L0.298919139,1.61057433 L0.333812424,1.60126945 L0.393629483,1.53081825 L0.393629483,1.44624357 L0.368705708,1.35153323 L0.533202622,1.10246164 L0.593019681,1.11193267 L0.678258991,1.06690372 L0.87764919,1.03234275 L1.58049964,0.96720862 L1.66025572,0.932647653 L1.84003921,0.912708633 L1.95950717,0.862861083 L2.1740178,0.882966262 L2.20857876,0.827967798 L2.24397052,0.817665972 L2.33851471,0.827967798 L2.4234217,0.803044024 L2.49337443,0.803044024 L2.74244602,0.768150739 L2.87188349,0.733423613 L3.00697035,0.733423613 L3.3706913,0.683576063 L3.54033913,0.663304726 L3.61976289,0.648350462 L3.75435128,0.603653825 L3.90472472,0.613457177 L4.03881463,0.568594382 L4.15396246,0.603653825 L4.20381001,0.568594382 L4.32327797,0.568594382 L4.36797461,0.534033414 L5.37622438,0.518580674 L5.41061919,0.498475496 L5.64540115,0.498475496 L5.89497121,0.484185865 L5.95944071,0.434172157 L6.28826838,0.448627946 L6.69253201,0.398946555 L6.94176975,0.41390082 L7.19133982,0.384324607 L7.44074373,0.36405327 L8.02396006,0.329326144 L8.1186704,0.319024317 L8.31822676,0.329326144 L8.40329991,0.329326144 L8.56713219,0.304734686 L8.77200562,0.269176768 L8.9017754,0.28446335 L9.63420207,0.249570065 L10.0781776,0.249570065 L10.218083,0.234283483 L10.3824138,0.249570065 L10.4473818,0.219329218 L10.9865661,0.234283483 L11.0714731,0.184602092 L11.1410935,0.199888674 L11.4852077,0.184602092 L12.0341954,0.184602092 L12.1636329,0.164995389 L12.4127045,0.164995389 L13.1956433,0.114981681 L14.0285959,0.114981681 L14.0628245,0.10517833 L14.2779998,0.054998463 L14.3974677,0.0800883963 L14.511951,0.10517833 L14.7266277,0.0800883963 L14.8460957,0.0800883963 L14.9162146,0.054998463 C15.080213,0.054998463 15.2103151,-0.0147881064 15.3598578,0.0350594432 L15.7732601,0.0350594432 L15.8086519,0.0199390198 L15.9384217,0.054998463 L16.0427692,0.0199390198 L16.1624033,0.0350594432 L16.2576121,0.054998463 L16.3920344,0.0350594432 L16.9355388,0.0350594432 L17.2195037,0 L17.4090905,0.0199390198 L17.7684914,0.0350594432 L17.8028862,0 L17.932656,0.0199390198 L18.1373632,0.0350594432 L18.4063738,0.0350594432 L18.4312976,0 L18.6803692,0.0350594432 L19.6977577,0.0350594432 L20.0322347,0 Z"></path></clipPath><clipPath id="i38"><path d=""></path></clipPath><clipPath id="i39"><path d="M0.100027416,0 L0.329326144,0.0250899333 L0.498475496,0.0548323045 L0.518248357,0.139240822 L0.448960263,0.139240822 L0.433673681,0.188756054 L0.543172132,0.154693562 L0.648018145,0.0847408343 L0.663138568,0.388644728 L0.628411442,0.438658436 L0.313873404,0.453446543 L0.199057881,0.453446543 L0.100027416,0.418387099 L0.0197728613,0.438658436 L0,0.274161523 L0.0644694975,0.188756054 L0.0644694975,0.119634119 L0.0299085297,0.0548323045 L0.100027416,0 Z"></path></clipPath></defs><g transform="translate(24.35571211378533 7.327347227575931)"><g clip-path="url(#i0)"><polygon points="0,-2.88657986e-15 3.05582095,-2.88657986e-15 3.05582095,7.55297811 0,7.55297811 0,-2.88657986e-15" stroke="none" fill="#D1116B"></polygon></g></g><g transform="translate(29.78279761064079 7.327347227575931)"><g clip-path="url(#i1)"><polygon points="0,-2.88657986e-15 3.05116851,-2.88657986e-15 3.05116851,7.55297811 0,7.55297811 0,-2.88657986e-15" stroke="none" fill="#D1116B"></polygon></g></g><g transform="translate(27.065840305067 7.327347227575931)"><g clip-path="url(#i2)"><polygon points="0,-2.88657986e-15 3.05798101,-2.88657986e-15 3.05798101,7.55297811 0,7.55297811 0,-2.88657986e-15" stroke="none" fill="#D1116B"></polygon></g></g><g transform="translate(22.18121245856422 15.711251987883282)"><g clip-path="url(#i3)"><polygon points="0,-2.17625126e-15 7.82124669,-2.17625126e-15 7.82124669,4.60365775 0,4.60365775 0,-2.17625126e-15" stroke="none" fill="#F2B244"></polygon></g></g><g transform="translate(24.893617021276604 20.405869182435573)"><g clip-path="url(#i4)"><polygon points="0,-2.26458311e-05 7.82124669,-2.26458311e-05 7.82124669,4.60354032 0,4.60354032 0,-2.26458311e-05" stroke="none" fill="#F2B244"></polygon></g></g><g transform="translate(23.53626824628013 18.05740019737986)"><g clip-path="url(#i5)"><polygon points="0,-4.04329226e-05 7.82124669,-4.04329226e-05 7.82124669,4.60603041 0,4.60603041 0,-4.04329226e-05" stroke="none" fill="#F2B244"></polygon></g></g><g transform="translate(17.01561311829802 18.512964516852634)"><g clip-path="url(#i6)"><polygon points="1.94289029e-15,0 6.39466486,0 6.39466486,6.28295131 1.94289029e-15,6.28295131 1.94289029e-15,0" stroke="none" fill="#4B4672"></polygon></g></g><g transform="translate(14.304908082452577 23.21214286307709)"><g clip-path="url(#i7)"><polygon points="-2.0539126e-15,0 6.39393143,0 6.39393143,6.27613881 -2.0539126e-15,6.27613881 -2.0539126e-15,0" stroke="none" fill="#4B4672"></polygon></g></g><g transform="translate(15.661965528426022 20.86595163126106)"><g clip-path="url(#i8)"><polygon points="-1.99840144e-15,0 6.39280577,0 6.39280577,6.27846503 -1.99840144e-15,6.27846503 -1.99840144e-15,0" stroke="none" fill="#4B4672"></polygon></g></g><g transform="translate(12.59062699909444 14.60825785480225)"><g clip-path="url(#i9)"><polygon points="0,-6.66133815e-16 3.05798101,-6.66133815e-16 3.05798101,7.55481314 0,7.55481314 0,-6.66133815e-16" stroke="none" fill="#00A69E"></polygon></g></g><g transform="translate(7.1659009529189905 14.60825785480225)"><g clip-path="url(#i10)"><polygon points="0,-6.66133815e-16 3.05798101,-6.66133815e-16 3.05798101,7.55481314 0,7.55481314 0,-6.66133815e-16" stroke="none" fill="#00A69E"></polygon></g></g><g transform="translate(9.880598502911928 14.60825785480225)"><g clip-path="url(#i11)"><polygon points="0,-6.66133815e-16 3.05332857,-6.66133815e-16 3.05332857,7.55481314 0,7.55481314 0,-6.66133815e-16" stroke="none" fill="#00A69E"></polygon></g></g><g transform="translate(10.01085014995805 9.17943710033163)"><g clip-path="url(#i12)"><polygon points="0,1.11022302e-16 7.81908663,1.11022302e-16 7.81908663,4.60693107 0,4.60693107 0,1.11022302e-16" stroke="none" fill="#000000"></polygon></g></g><g transform="translate(7.298661593293842 4.484709414792974)"><g clip-path="url(#i13)"><polygon points="0,3.83547361e-15 7.82357291,3.83547361e-15 7.82357291,4.60703039 0,4.60703039 0,3.83547361e-15" stroke="none" fill="#000000"></polygon></g></g><g transform="translate(8.653534606661303 6.831904961150032)"><g clip-path="url(#i14)"><polygon points="0,-4.23446e-15 7.82141285,-4.23446e-15 7.82141285,4.60366951 0,4.60366951 0,-4.23446e-15" stroke="none" fill="#000000"></polygon></g></g><g transform="translate(16.594655175423277 4.694758530161918)"><g clip-path="url(#i15)"><polygon points="1.94289029e-15,0 6.39292193,0 6.39292193,6.28079125 1.94289029e-15,6.28079125 1.94289029e-15,0" stroke="none" fill="#D0222A"></polygon></g></g><g transform="translate(19.30511639870896 0.0)"><g clip-path="url(#i16)"><polygon points="-1.88737914e-15,0 6.39426054,0 6.39426054,6.27630497 -1.88737914e-15,6.27630497 -1.88737914e-15,0" stroke="none" fill="#D0222A"></polygon></g></g><g transform="translate(17.95000703377018 2.343898244535458)"><g clip-path="url(#i17)"><polygon points="8.8817842e-16,0 6.39523431,0 6.39523431,6.28311747 8.8817842e-16,6.28311747 8.8817842e-16,0" stroke="none" fill="#D0222A"></polygon></g></g><g transform="translate(2.2661194513446405 36.85920559621822)"><g clip-path="url(#i18)"><polygon points="0,0 2.40979671,0 2.40979671,4.52034195 0,4.52034195 0,0" stroke="none" fill="#1A1918"></polygon></g></g><g transform="translate(5.461264300015795 36.91928850930903)"><g clip-path="url(#i19)"><polygon points="0,0 3.71397476,0 3.71397476,4.46019258 0,4.46019258 0,0" stroke="none" fill="#1A1918"></polygon></g></g><g transform="translate(9.776932215640494 36.97413742969418)"><g clip-path="url(#i20)"><polygon points="0,0 3.98747165,0 3.98747165,4.40536027 0,4.40536027 0,0" stroke="none" fill="#1A1918"></polygon></g></g><g transform="translate(18.1756129171617 36.85219370757764)"><g clip-path="url(#i21)"><polygon points="0,0 4.28506152,0 4.28506152,4.52732061 0,4.52732061 0,0" stroke="none" fill="#1A1918"></polygon></g></g><g transform="translate(22.29998255335765 37.066903719458)"><g clip-path="url(#i22)"><polygon points="0,0 3.74969884,0 3.74969884,4.31264383 0,4.31264383 0,0" stroke="none" fill="#1A1918"></polygon></g></g><g transform="translate(26.75442604700624 37.08632764794338)"><g clip-path="url(#i23)"><polygon points="0,0 0.475047147,0 0.475047147,4.29320329 0,4.29320329 0,0" stroke="none" fill="#1A1918"></polygon></g></g><g transform="translate(27.98502911927688 36.94323194895611)"><g clip-path="url(#i24)"><polygon points="0,0 4.57052182,0 4.57052182,4.43626575 0,4.43626575 0,0" stroke="none" fill="#1A1918"></polygon></g></g><g transform="translate(33.28048385354789 36.97413742969418)"><g clip-path="url(#i25)"><polygon points="0,0 3.98747165,0 3.98747165,4.40536027 0,4.40536027 0,0" stroke="none" fill="#1A1918"></polygon></g></g><g transform="translate(14.46180431513621 36.9788563310542)"><g clip-path="url(#i26)"><polygon points="0,0 3.89907533,0 3.89907533,4.40070784 0,4.40070784 0,0" stroke="none" fill="#1A1918"></polygon></g></g><g transform="translate(29.65053544576171 35.33684481627024)"><g clip-path="url(#i27)"><polygon points="0,0 1.23987472,0 1.23987472,1.10030158 0,1.10030158 0,0" stroke="none" fill="#1A1918"></polygon></g></g><g transform="translate(2.2660862196449205 42.97834123970856)"><g clip-path="url(#i28)"><polygon points="0,0 5.79261758,0 5.79261758,5.62346823 0,5.62346823 0,0" stroke="none" fill="#1A1918"></polygon></g></g><g transform="translate(13.38926782257597 42.97839108725812)"><g clip-path="url(#i29)"><polygon points="0,0 3.16216239,0 3.16216239,5.62330207 0,5.62330207 0,0" stroke="none" fill="#1A1918"></polygon></g></g><g transform="translate(17.350851977701538 42.97830800800884)"><g clip-path="url(#i30)"><polygon points="0,0 0.607807788,0 0.607807788,5.59206427 0,5.59206427 0,0" stroke="none" fill="#1A1918"></polygon></g></g><g transform="translate(18.66596326235596 42.97839108725812)"><g clip-path="url(#i31)"><polygon points="0,0 3.16232855,0 3.16232855,5.62330207 0,5.62330207 0,0" stroke="none" fill="#1A1918"></polygon></g></g><g transform="translate(7.730590610383251 42.85297465252103)"><g clip-path="url(#i32)"><polygon points="0,0 5.4225826,0 5.4225826,5.72864656 0,5.72864656 0,0" stroke="none" fill="#1A1918"></polygon></g></g><g transform="translate(23.61796838003771 42.8529580366712)"><g clip-path="url(#i33)"><polygon points="0,0 5.44152467,0 5.44152467,5.74875173 0,5.74875173 0,0" stroke="none" fill="#1A1918"></polygon></g></g><g transform="translate(31.08546362375069 43.12544135851186)"><g clip-path="url(#i34)"><polygon points="0,0 4.76160409,0 4.76160409,5.47641796 0,5.47641796 0,0" stroke="none" fill="#1A1918"></polygon></g></g><g transform="translate(29.842714365232986 47.68951622953136)"><g clip-path="url(#i35)"><polygon points="0,0 0.931318385,0 0.931318385,0.912210157 0,0.912210157 0,0" stroke="none" fill="#1A1918"></polygon></g></g><g transform="translate(36.8023960055497 47.68951622953136)"><g clip-path="url(#i36)"><polygon points="0,0 0.931152226,0 0.931152226,0.912210157 0,0.912210157 0,0" stroke="none" fill="#1A1918"></polygon></g></g><g transform="translate(0.0 31.60377844425797)"><g clip-path="url(#i37)"><polygon points="0,0 40,0 40,2.51331345 0,2.51331345 0,0" stroke="none" fill="#1A1918"></polygon></g></g><g transform="translate(34.96348666993445 33.24971129960868)"><g clip-path="url(#i38)"><polygon points="0,0 0.563609627,0 0.563609627,0.204374953 0,0.204374953 0,0" stroke="none" fill="#1A1918"></polygon></g></g><g transform="translate(34.45668663337958 33.24957837280982)"><g clip-path="url(#i38)"><polygon points="0.00822484568,0 0.157933653,0 0.157933653,0.16931551 0.00822484568,0.16931551 0.00822484568,0" stroke="none" fill="#1A1918"></polygon></g></g><g transform="translate(34.7660903736074 33.28362424917128)"><g clip-path="url(#i38)"><polygon points="0.0830792493,0.0657987654 0.0830792493,0.0657987654 0.0830792493,0.100359733 0.0830792493,0.100359733 0.0830792493,0.0657987654" stroke="none" fill="#1A1918"></polygon></g></g><g transform="translate(34.11581247351849 33.21641313649089)"><g clip-path="url(#i38)"><polygon points="0,0.0331486205 0.269342926,0.0331486205 0.269342926,0.133009878 0,0.133009878 0,0.0331486205" stroke="none" fill="#1A1918"></polygon></g></g><g transform="translate(32.156438226424186 32.68115014912726)"><g clip-path="url(#i39)"><polygon points="0,0 0.663138568,0 0.663138568,0.453446543 0,0.453446543 0,0" stroke="none" fill="#1A1918"></polygon></g></g><g transform="translate(32.89614263045519 32.93005558001778)"><g clip-path="url(#i38)"><polygon points="0.00805868718,0 0.158099811,0 0.158099811,0.169481669 0.00805868718,0.169481669 0.00805868718,0" stroke="none" fill="#1A1918"></polygon></g></g><g transform="translate(31.65761379780173 32.8699560510771)"><g clip-path="url(#i38)"><polygon points="0,0 0.284297191,0 0.284297191,0.215175256 0,0.215175256 0,0" stroke="none" fill="#1A1918"></polygon></g></g><g transform="translate(29.64777721468508 32.750837023436645)"><g clip-path="url(#i38)"><polygon points="0,0 0.429187402,0 0.429187402,0.26452433 0,0.26452433 0,0" stroke="none" fill="#1A1918"></polygon></g></g><g transform="translate(30.75924464346541 32.85992007776216)"><g clip-path="url(#i38)"><polygon points="0.0506783421,0.0258376465 0.115480157,0.0258376465 0.115480157,0.140320852 0.0506783421,0.140320852 0.0506783421,0.0258376465" stroke="none" fill="#1A1918"></polygon></g></g><g transform="translate(34.71355105635264 32.87720056161572)"><g clip-path="url(#i38)"><polygon points="0.0158681366,0.0431181304 0.150290362,0.0431181304 0.150290362,0.123040368 0.0158681366,0.123040368 0.0158681366,0.0431181304" stroke="none" fill="#1A1918"></polygon></g></g><g transform="translate(30.16335041996561 32.81746658137197)"><g clip-path="url(#i38)"><polygon points="0.0183605141,0.0184435933 0.147797984,0.0184435933 0.147797984,0.147714905 0.0183605141,0.147714905 0.0183605141,0.0184435933" stroke="none" fill="#1A1918"></polygon></g></g><g transform="translate(28.53693226987386 32.82517620884852)"><g clip-path="url(#i38)"><polygon points="0.0573884714,0.0611295848 0.108770027,0.0611295848 0.108770027,0.105028914 0.0573884714,0.105028914 0.0573884714,0.0611295848" stroke="none" fill="#1A1918"></polygon></g></g><g transform="translate(27.39609693686808 32.7774389990612)"><g clip-path="url(#i38)"><polygon points="0.0431181304,0.0233452691 0.123040368,0.0233452691 0.123040368,0.14281323 0.0431181304,0.14281323 0.0431181304,0.0233452691" stroke="none" fill="#1A1918"></polygon></g></g><g transform="translate(27.85956283699021 32.78774082597389)"><g clip-path="url(#i38)"><polygon points="0.0430350511,0.0481028853 0.123123447,0.0481028853 0.123123447,0.118055613 0.0430350511,0.118055613 0.0430350511,0.0481028853" stroke="none" fill="#1A1918"></polygon></g></g><g transform="translate(33.61735359359293 32.71981523174958)"><g clip-path="url(#i38)"><polygon points="0,0.0160342951 0.234781959,0.0160342951 0.234781959,0.150124203 0,0.150124203 0,0.0160342951" stroke="none" fill="#1A1918"></polygon></g></g><g transform="translate(33.95065092591822 32.76210256964118)"><g clip-path="url(#i38)"><polygon points="0.0653002899,0.058321633 0.100858209,0.058321633 0.100858209,0.107836866 0.0653002899,0.107836866 0.0653002899,0.058321633" stroke="none" fill="#1A1918"></polygon></g></g><g transform="translate(26.10782024973622 32.65536235014581)"><g clip-path="url(#i38)"><polygon points="0,0.00108003024 0.334144741,0.00108003024 0.334144741,0.165078468 0,0.165078468 0,0.00108003024" stroke="none" fill="#1A1918"></polygon></g></g><g transform="translate(28.31860892104979 32.67772728405627)"><g clip-path="url(#i38)"><polygon points="0.0482690438,0.0581554745 0.117889455,0.0581554745 0.117889455,0.108003024 0.0482690438,0.108003024 0.0482690438,0.0581554745" stroke="none" fill="#1A1918"></polygon></g></g><g transform="translate(23.7785605689267 32.62056876054069)"><g clip-path="url(#i38)"><polygon points="0.0233452691,0.0358902357 0.14281323,0.0358902357 0.14281323,0.130268263 0.0233452691,0.130268263 0.0233452691,0.0358902357" stroke="none" fill="#1A1918"></polygon></g></g><g transform="translate(24.06546644844517 32.60278980119136)"><g clip-path="url(#i38)"><polygon points="0.000581554745,0.0181112763 0.165576944,0.0181112763 0.165576944,0.148047222 0.000581554745,0.148047222 0.000581554745,0.0181112763" stroke="none" fill="#1A1918"></polygon></g></g><g transform="translate(31.82865735625214 32.64540945608014)"><g clip-path="url(#i38)"><polygon points="0.0432842889,0.0607309312 0.12287421,0.0607309312 0.12287421,0.105427567 0.0432842889,0.105427567 0.0432842889,0.0607309312" stroke="none" fill="#1A1918"></polygon></g></g><g transform="translate(32.87859629300389 32.66785746923991)"><g clip-path="url(#i38)"><polygon points="0.0605647727,0.0680419052 0.105593726,0.0680419052 0.105593726,0.0981165934 0.0605647727,0.0981165934 0.0605647727,0.0680419052" stroke="none" fill="#1A1918"></polygon></g></g><g transform="translate(22.8711025447174 32.55304194671297)"><g clip-path="url(#i38)"><polygon points="0.0680419052,0.0485182816 0.0981165934,0.0485182816 0.0981165934,0.117640217 0.0680419052,0.117640217 0.0680419052,0.0485182816" stroke="none" fill="#1A1918"></polygon></g></g><g transform="translate(29.03171134945624 32.54539865577776)"><g clip-path="url(#i38)"><polygon points="0.0332316997,0.0408749907 0.132926799,0.0408749907 0.132926799,0.125283508 0.0332316997,0.125283508 0.0332316997,0.0408749907" stroke="none" fill="#1A1918"></polygon></g></g><g transform="translate(22.74407437254397 32.5382538403383)"><g clip-path="url(#i38)"><polygon points="0.0404595944,0.0480198061 0.125698904,0.0480198061 0.125698904,0.118138692 0.0404595944,0.118138692 0.0404595944,0.0480198061" stroke="none" fill="#1A1918"></polygon></g></g><g transform="translate(27.90949346581704 32.50314454958584)"><g clip-path="url(#i38)"><polygon points="0.00847408343,0.0484352023 0.157684415,0.0484352023 0.157684415,0.117723296 0.00847408343,0.117723296 0.00847408343,0.0484352023" stroke="none" fill="#1A1918"></polygon></g></g><g transform="translate(35.13270248490035 32.12923808020471)"><g clip-path="url(#i38)"><polygon points="0.0356409979,0.0432012096 0.130517501,0.0432012096 0.130517501,0.122957289 0.0356409979,0.122957289 0.0356409979,0.0432012096" stroke="none" fill="#1A1918"></polygon></g></g></svg>